%TF.GenerationSoftware,KiCad,Pcbnew,9.0.0*%
%TF.CreationDate,2025-05-16T22:45:05-04:00*%
%TF.ProjectId,REV.C,5245562e-432e-46b6-9963-61645f706362,0.1*%
%TF.SameCoordinates,Original*%
%TF.FileFunction,Legend,Top*%
%TF.FilePolarity,Positive*%
%FSLAX46Y46*%
G04 Gerber Fmt 4.6, Leading zero omitted, Abs format (unit mm)*
G04 Created by KiCad (PCBNEW 9.0.0) date 2025-05-16 22:45:05*
%MOMM*%
%LPD*%
G01*
G04 APERTURE LIST*
%ADD10C,0.300000*%
%ADD11C,0.150000*%
%ADD12C,0.200000*%
%ADD13C,0.240000*%
%ADD14C,0.500000*%
%ADD15C,0.180000*%
%ADD16C,0.203200*%
%ADD17C,0.120000*%
%ADD18C,0.254000*%
%ADD19C,0.100000*%
%ADD20C,1.127631*%
G04 APERTURE END LIST*
D10*
G36*
X154342344Y-133747288D02*
G01*
X154391584Y-134845794D01*
X154898339Y-133747288D01*
X155197536Y-133747288D01*
X155304221Y-134845794D01*
X155753531Y-133747288D01*
X156146420Y-133747288D01*
X155405778Y-135448000D01*
X155022463Y-135448000D01*
X154917487Y-134462431D01*
X154454842Y-135448000D01*
X154071528Y-135448000D01*
X153949455Y-133747288D01*
X154342344Y-133747288D01*
G37*
G36*
X156743798Y-134251848D02*
G01*
X156811872Y-134264899D01*
X156879271Y-134289306D01*
X156885010Y-134292047D01*
X156948354Y-134331120D01*
X157000928Y-134381513D01*
X157029993Y-134421398D01*
X157064726Y-134490091D01*
X157088400Y-134569556D01*
X157098039Y-134628516D01*
X157102874Y-134707979D01*
X157099428Y-134793471D01*
X157089246Y-134875570D01*
X157084361Y-134904022D01*
X157076496Y-134947790D01*
X156337906Y-134947790D01*
X156329940Y-135032787D01*
X156343619Y-135109723D01*
X156389546Y-135168341D01*
X156456239Y-135193987D01*
X156505457Y-135197895D01*
X156573377Y-135187858D01*
X156639605Y-135153632D01*
X156692098Y-135101441D01*
X156696943Y-135095117D01*
X157036147Y-135095117D01*
X157001287Y-135167121D01*
X156962357Y-135232042D01*
X156904120Y-135307586D01*
X156838649Y-135370539D01*
X156765944Y-135420902D01*
X156686005Y-135458674D01*
X156598832Y-135483856D01*
X156528704Y-135494479D01*
X156454508Y-135498020D01*
X156379735Y-135493670D01*
X156310572Y-135480618D01*
X156240973Y-135456211D01*
X156234982Y-135453471D01*
X156173677Y-135418678D01*
X156116567Y-135370611D01*
X156080425Y-135327637D01*
X156041636Y-135261929D01*
X156014003Y-135187319D01*
X156001779Y-135132633D01*
X155993713Y-135051265D01*
X155995636Y-134971764D01*
X156006375Y-134886996D01*
X156007934Y-134878230D01*
X156025368Y-134798745D01*
X156048049Y-134723835D01*
X156048508Y-134722696D01*
X156388513Y-134722696D01*
X156789951Y-134722696D01*
X156777812Y-134641314D01*
X156744131Y-134577713D01*
X156683904Y-134533159D01*
X156622400Y-134522612D01*
X156550858Y-134534118D01*
X156488182Y-134568637D01*
X156480495Y-134574978D01*
X156429970Y-134633516D01*
X156394609Y-134705195D01*
X156388513Y-134722696D01*
X156048508Y-134722696D01*
X156079405Y-134645967D01*
X156093761Y-134616401D01*
X156133698Y-134546808D01*
X156178712Y-134484083D01*
X156228800Y-134428228D01*
X156239427Y-134417881D01*
X156295306Y-134370292D01*
X156355660Y-134330106D01*
X156420489Y-134297324D01*
X156433991Y-134291656D01*
X156503688Y-134268369D01*
X156576858Y-134253707D01*
X156645680Y-134247885D01*
X156669246Y-134247497D01*
X156743798Y-134251848D01*
G37*
G36*
X158011712Y-134251848D02*
G01*
X158079786Y-134264899D01*
X158147185Y-134289306D01*
X158152923Y-134292047D01*
X158216268Y-134331120D01*
X158268841Y-134381513D01*
X158297906Y-134421398D01*
X158332640Y-134490091D01*
X158356314Y-134569556D01*
X158365952Y-134628516D01*
X158370787Y-134707979D01*
X158367341Y-134793471D01*
X158357159Y-134875570D01*
X158352274Y-134904022D01*
X158344410Y-134947790D01*
X157605819Y-134947790D01*
X157597853Y-135032787D01*
X157611532Y-135109723D01*
X157657459Y-135168341D01*
X157724152Y-135193987D01*
X157773370Y-135197895D01*
X157841291Y-135187858D01*
X157907518Y-135153632D01*
X157960011Y-135101441D01*
X157964856Y-135095117D01*
X158304061Y-135095117D01*
X158269200Y-135167121D01*
X158230270Y-135232042D01*
X158172033Y-135307586D01*
X158106563Y-135370539D01*
X158033858Y-135420902D01*
X157953918Y-135458674D01*
X157866745Y-135483856D01*
X157796618Y-135494479D01*
X157722421Y-135498020D01*
X157647648Y-135493670D01*
X157578486Y-135480618D01*
X157508886Y-135456211D01*
X157502896Y-135453471D01*
X157441590Y-135418678D01*
X157384481Y-135370611D01*
X157348339Y-135327637D01*
X157309550Y-135261929D01*
X157281917Y-135187319D01*
X157269692Y-135132633D01*
X157261626Y-135051265D01*
X157263550Y-134971764D01*
X157274289Y-134886996D01*
X157275847Y-134878230D01*
X157293281Y-134798745D01*
X157315963Y-134723835D01*
X157316422Y-134722696D01*
X157656427Y-134722696D01*
X158057864Y-134722696D01*
X158045725Y-134641314D01*
X158012044Y-134577713D01*
X157951817Y-134533159D01*
X157890314Y-134522612D01*
X157818772Y-134534118D01*
X157756095Y-134568637D01*
X157748408Y-134574978D01*
X157697884Y-134633516D01*
X157662522Y-134705195D01*
X157656427Y-134722696D01*
X157316422Y-134722696D01*
X157347318Y-134645967D01*
X157361674Y-134616401D01*
X157401612Y-134546808D01*
X157446625Y-134484083D01*
X157496714Y-134428228D01*
X157507341Y-134417881D01*
X157563220Y-134370292D01*
X157623574Y-134330106D01*
X157688402Y-134297324D01*
X157701905Y-134291656D01*
X157771602Y-134268369D01*
X157844771Y-134253707D01*
X157913593Y-134247885D01*
X157937159Y-134247497D01*
X158011712Y-134251848D01*
G37*
G36*
X159749099Y-134311977D02*
G01*
X159709653Y-134247566D01*
X159655003Y-134189262D01*
X159591059Y-134149098D01*
X159517821Y-134127072D01*
X159459818Y-134122445D01*
X159386730Y-134129476D01*
X159315867Y-134150569D01*
X159296029Y-134159179D01*
X159234390Y-134193093D01*
X159173691Y-134239426D01*
X159153440Y-134258439D01*
X159101426Y-134318054D01*
X159059105Y-134381582D01*
X159044361Y-134408111D01*
X159011925Y-134480857D01*
X158988518Y-134558117D01*
X158980760Y-134595299D01*
X158970897Y-134676414D01*
X158972393Y-134757710D01*
X158975973Y-134785222D01*
X158995127Y-134861575D01*
X159028808Y-134932039D01*
X159031367Y-134936066D01*
X159078555Y-134993024D01*
X159137369Y-135036499D01*
X159202334Y-135062585D01*
X159270289Y-135072523D01*
X159285771Y-135072842D01*
X159364745Y-135064091D01*
X159432176Y-135042659D01*
X159499368Y-135008367D01*
X159566318Y-134961216D01*
X159621927Y-134912100D01*
X159644124Y-134889953D01*
X159549064Y-135412829D01*
X159508032Y-135428460D01*
X159440648Y-135452732D01*
X159372424Y-135472949D01*
X159337745Y-135481217D01*
X159266274Y-135493278D01*
X159196755Y-135497955D01*
X159187634Y-135498020D01*
X159114779Y-135493868D01*
X159044959Y-135481412D01*
X158978174Y-135460651D01*
X158914424Y-135431586D01*
X158847738Y-135389732D01*
X158787707Y-135339345D01*
X158734329Y-135280427D01*
X158707550Y-135244008D01*
X158665283Y-135172309D01*
X158634252Y-135102608D01*
X158609376Y-135027290D01*
X158592658Y-134956778D01*
X158580541Y-134871611D01*
X158577015Y-134782584D01*
X158580977Y-134701520D01*
X158591516Y-134617502D01*
X158595736Y-134592954D01*
X158613994Y-134508508D01*
X158637651Y-134427167D01*
X158666709Y-134348929D01*
X158701165Y-134273796D01*
X158723279Y-134232256D01*
X158765258Y-134162637D01*
X158810411Y-134097393D01*
X158858739Y-134036525D01*
X158910240Y-133980033D01*
X158941095Y-133949716D01*
X158997293Y-133900228D01*
X159055781Y-133855715D01*
X159116560Y-133816175D01*
X159179630Y-133781610D01*
X159216699Y-133764092D01*
X159282272Y-133738053D01*
X159357333Y-133716127D01*
X159432523Y-133702553D01*
X159507840Y-133697332D01*
X159517264Y-133697267D01*
X159585926Y-133700814D01*
X159657472Y-133712568D01*
X159682421Y-133718760D01*
X159752620Y-133741713D01*
X159819212Y-133771063D01*
X159845184Y-133784413D01*
X159749099Y-134311977D01*
G37*
G36*
X160585836Y-134251848D02*
G01*
X160653910Y-134264899D01*
X160721309Y-134289306D01*
X160727048Y-134292047D01*
X160790392Y-134331120D01*
X160842965Y-134381513D01*
X160872030Y-134421398D01*
X160906764Y-134490091D01*
X160930438Y-134569556D01*
X160940076Y-134628516D01*
X160944912Y-134707979D01*
X160941465Y-134793471D01*
X160931283Y-134875570D01*
X160926399Y-134904022D01*
X160918534Y-134947790D01*
X160179944Y-134947790D01*
X160171978Y-135032787D01*
X160185656Y-135109723D01*
X160231583Y-135168341D01*
X160298276Y-135193987D01*
X160347494Y-135197895D01*
X160415415Y-135187858D01*
X160481642Y-135153632D01*
X160534135Y-135101441D01*
X160538981Y-135095117D01*
X160878185Y-135095117D01*
X160843324Y-135167121D01*
X160804394Y-135232042D01*
X160746158Y-135307586D01*
X160680687Y-135370539D01*
X160607982Y-135420902D01*
X160528043Y-135458674D01*
X160440869Y-135483856D01*
X160370742Y-135494479D01*
X160296545Y-135498020D01*
X160221773Y-135493670D01*
X160152610Y-135480618D01*
X160083010Y-135456211D01*
X160077020Y-135453471D01*
X160015714Y-135418678D01*
X159958605Y-135370611D01*
X159922463Y-135327637D01*
X159883674Y-135261929D01*
X159856041Y-135187319D01*
X159843817Y-135132633D01*
X159835750Y-135051265D01*
X159837674Y-134971764D01*
X159848413Y-134886996D01*
X159849972Y-134878230D01*
X159867406Y-134798745D01*
X159890087Y-134723835D01*
X159890546Y-134722696D01*
X160230551Y-134722696D01*
X160631988Y-134722696D01*
X160619849Y-134641314D01*
X160586168Y-134577713D01*
X160525942Y-134533159D01*
X160464438Y-134522612D01*
X160392896Y-134534118D01*
X160330220Y-134568637D01*
X160322533Y-134574978D01*
X160272008Y-134633516D01*
X160236647Y-134705195D01*
X160230551Y-134722696D01*
X159890546Y-134722696D01*
X159921442Y-134645967D01*
X159935799Y-134616401D01*
X159975736Y-134546808D01*
X160020749Y-134484083D01*
X160070838Y-134428228D01*
X160081465Y-134417881D01*
X160137344Y-134370292D01*
X160197698Y-134330106D01*
X160262526Y-134297324D01*
X160276029Y-134291656D01*
X160345726Y-134268369D01*
X160418896Y-134253707D01*
X160487718Y-134247885D01*
X160511284Y-134247497D01*
X160585836Y-134251848D01*
G37*
G36*
X161853749Y-134251848D02*
G01*
X161921823Y-134264899D01*
X161989223Y-134289306D01*
X161994961Y-134292047D01*
X162058306Y-134331120D01*
X162110879Y-134381513D01*
X162139944Y-134421398D01*
X162174677Y-134490091D01*
X162198351Y-134569556D01*
X162207990Y-134628516D01*
X162212825Y-134707979D01*
X162209379Y-134793471D01*
X162199197Y-134875570D01*
X162194312Y-134904022D01*
X162186448Y-134947790D01*
X161447857Y-134947790D01*
X161439891Y-135032787D01*
X161453570Y-135109723D01*
X161499497Y-135168341D01*
X161566190Y-135193987D01*
X161615408Y-135197895D01*
X161683328Y-135187858D01*
X161749556Y-135153632D01*
X161802049Y-135101441D01*
X161806894Y-135095117D01*
X162146099Y-135095117D01*
X162111238Y-135167121D01*
X162072308Y-135232042D01*
X162014071Y-135307586D01*
X161948600Y-135370539D01*
X161875895Y-135420902D01*
X161795956Y-135458674D01*
X161708783Y-135483856D01*
X161638655Y-135494479D01*
X161564459Y-135498020D01*
X161489686Y-135493670D01*
X161420523Y-135480618D01*
X161350924Y-135456211D01*
X161344933Y-135453471D01*
X161283628Y-135418678D01*
X161226518Y-135370611D01*
X161190376Y-135327637D01*
X161151588Y-135261929D01*
X161123954Y-135187319D01*
X161111730Y-135132633D01*
X161103664Y-135051265D01*
X161105587Y-134971764D01*
X161116326Y-134886996D01*
X161117885Y-134878230D01*
X161135319Y-134798745D01*
X161158000Y-134723835D01*
X161158459Y-134722696D01*
X161498464Y-134722696D01*
X161899902Y-134722696D01*
X161887763Y-134641314D01*
X161854082Y-134577713D01*
X161793855Y-134533159D01*
X161732351Y-134522612D01*
X161660809Y-134534118D01*
X161598133Y-134568637D01*
X161590446Y-134574978D01*
X161539921Y-134633516D01*
X161504560Y-134705195D01*
X161498464Y-134722696D01*
X161158459Y-134722696D01*
X161189356Y-134645967D01*
X161203712Y-134616401D01*
X161243650Y-134546808D01*
X161288663Y-134484083D01*
X161338752Y-134428228D01*
X161349378Y-134417881D01*
X161405258Y-134370292D01*
X161465611Y-134330106D01*
X161530440Y-134297324D01*
X161543942Y-134291656D01*
X161613639Y-134268369D01*
X161686809Y-134253707D01*
X161755631Y-134247885D01*
X161779197Y-134247497D01*
X161853749Y-134251848D01*
G37*
G36*
X163984869Y-133745195D02*
G01*
X164055691Y-133759380D01*
X164117383Y-133783631D01*
X164178687Y-133823335D01*
X164230822Y-133877490D01*
X164245952Y-133899695D01*
X164279565Y-133968393D01*
X164300219Y-134045917D01*
X164303740Y-134069688D01*
X164308380Y-134150119D01*
X164303147Y-134228484D01*
X164295875Y-134276025D01*
X164277143Y-134358793D01*
X164252062Y-134434418D01*
X164215624Y-134512099D01*
X164170894Y-134580450D01*
X164158415Y-134596080D01*
X164103769Y-134652476D01*
X164041386Y-134698956D01*
X163971267Y-134735519D01*
X163903567Y-134759377D01*
X163893412Y-134762166D01*
X164220648Y-135460505D01*
X163752875Y-135460505D01*
X163495736Y-134805152D01*
X163376399Y-135460505D01*
X163010181Y-135460505D01*
X163181693Y-134517923D01*
X163548053Y-134517923D01*
X163622937Y-134517923D01*
X163692407Y-134512618D01*
X163763958Y-134492248D01*
X163813740Y-134463603D01*
X163867063Y-134407023D01*
X163899572Y-134332341D01*
X163905038Y-134307678D01*
X163907516Y-134227825D01*
X163873745Y-134155195D01*
X163870502Y-134151754D01*
X163806709Y-134112765D01*
X163734901Y-134098760D01*
X163699532Y-134097434D01*
X163624647Y-134097434D01*
X163548053Y-134517923D01*
X163181693Y-134517923D01*
X163323056Y-133741035D01*
X163912561Y-133741035D01*
X163984869Y-133745195D01*
G37*
G36*
X165155522Y-134251848D02*
G01*
X165223596Y-134264899D01*
X165290995Y-134289306D01*
X165296734Y-134292047D01*
X165360078Y-134331120D01*
X165412651Y-134381513D01*
X165441716Y-134421398D01*
X165476450Y-134490091D01*
X165500124Y-134569556D01*
X165509762Y-134628516D01*
X165514597Y-134707979D01*
X165511151Y-134793471D01*
X165500969Y-134875570D01*
X165496085Y-134904022D01*
X165488220Y-134947790D01*
X164749630Y-134947790D01*
X164741664Y-135032787D01*
X164755342Y-135109723D01*
X164801269Y-135168341D01*
X164867962Y-135193987D01*
X164917180Y-135197895D01*
X164985101Y-135187858D01*
X165051328Y-135153632D01*
X165103821Y-135101441D01*
X165108667Y-135095117D01*
X165447871Y-135095117D01*
X165413010Y-135167121D01*
X165374080Y-135232042D01*
X165315844Y-135307586D01*
X165250373Y-135370539D01*
X165177668Y-135420902D01*
X165097729Y-135458674D01*
X165010555Y-135483856D01*
X164940428Y-135494479D01*
X164866231Y-135498020D01*
X164791459Y-135493670D01*
X164722296Y-135480618D01*
X164652696Y-135456211D01*
X164646706Y-135453471D01*
X164585400Y-135418678D01*
X164528291Y-135370611D01*
X164492149Y-135327637D01*
X164453360Y-135261929D01*
X164425727Y-135187319D01*
X164413503Y-135132633D01*
X164405436Y-135051265D01*
X164407360Y-134971764D01*
X164418099Y-134886996D01*
X164419658Y-134878230D01*
X164437091Y-134798745D01*
X164459773Y-134723835D01*
X164460232Y-134722696D01*
X164800237Y-134722696D01*
X165201674Y-134722696D01*
X165189535Y-134641314D01*
X165155854Y-134577713D01*
X165095627Y-134533159D01*
X165034124Y-134522612D01*
X164962582Y-134534118D01*
X164899906Y-134568637D01*
X164892219Y-134574978D01*
X164841694Y-134633516D01*
X164806333Y-134705195D01*
X164800237Y-134722696D01*
X164460232Y-134722696D01*
X164491128Y-134645967D01*
X164505484Y-134616401D01*
X164545422Y-134546808D01*
X164590435Y-134484083D01*
X164640524Y-134428228D01*
X164651151Y-134417881D01*
X164707030Y-134370292D01*
X164767384Y-134330106D01*
X164832212Y-134297324D01*
X164845715Y-134291656D01*
X164915412Y-134268369D01*
X164988582Y-134253707D01*
X165057404Y-134247885D01*
X165080969Y-134247497D01*
X165155522Y-134251848D01*
G37*
G36*
X166718520Y-135448000D02*
G01*
X166376238Y-135448000D01*
X166400858Y-135313177D01*
X166346810Y-135367496D01*
X166289300Y-135410575D01*
X166217829Y-135446631D01*
X166141646Y-135467391D01*
X166072595Y-135473010D01*
X166002320Y-135467423D01*
X165932661Y-135448582D01*
X165885212Y-135425725D01*
X165824442Y-135381307D01*
X165773266Y-135324893D01*
X165752882Y-135294810D01*
X165716907Y-135221772D01*
X165693818Y-135145879D01*
X165684836Y-135097853D01*
X165678125Y-135018038D01*
X165681030Y-134933882D01*
X165681142Y-134933062D01*
X166053233Y-134933062D01*
X166056182Y-134957560D01*
X166081539Y-135032103D01*
X166086957Y-135041189D01*
X166139376Y-135092806D01*
X166146113Y-135096681D01*
X166214914Y-135116124D01*
X166229204Y-135116611D01*
X166298894Y-135104446D01*
X166318108Y-135096681D01*
X166378952Y-135057993D01*
X166397096Y-135041189D01*
X166445246Y-134981471D01*
X166458988Y-134958732D01*
X166488357Y-134887889D01*
X166495233Y-134858300D01*
X166498714Y-134778224D01*
X166495575Y-134757085D01*
X166469545Y-134682542D01*
X166464117Y-134673457D01*
X166411698Y-134621839D01*
X166404961Y-134617965D01*
X166337467Y-134598140D01*
X166323579Y-134597644D01*
X166253889Y-134610047D01*
X166234675Y-134617965D01*
X166173959Y-134656653D01*
X166155687Y-134673457D01*
X166107730Y-134732515D01*
X166094138Y-134754741D01*
X166064197Y-134827574D01*
X166058234Y-134854001D01*
X166053233Y-134933062D01*
X165681142Y-134933062D01*
X165692016Y-134853610D01*
X165709360Y-134777162D01*
X165733183Y-134703157D01*
X165763483Y-134631593D01*
X165770321Y-134617574D01*
X165807493Y-134550468D01*
X165853783Y-134482999D01*
X165905729Y-134422180D01*
X165963001Y-134368618D01*
X166024799Y-134323461D01*
X166084905Y-134289702D01*
X166154365Y-134262113D01*
X166225926Y-134245977D01*
X166292805Y-134241244D01*
X166368387Y-134248575D01*
X166435363Y-134270566D01*
X166501368Y-134313650D01*
X166556132Y-134375883D01*
X166568066Y-134394434D01*
X166717494Y-133572214D01*
X167059776Y-133572214D01*
X166718520Y-135448000D01*
G37*
G36*
X167551828Y-134297518D02*
G01*
X167432149Y-134956387D01*
X167425382Y-135040745D01*
X167447793Y-135118760D01*
X167505203Y-135162525D01*
X167574054Y-135172884D01*
X167646967Y-135162525D01*
X167713586Y-135125314D01*
X167762382Y-135061042D01*
X167790458Y-134982604D01*
X167795973Y-134956387D01*
X167915652Y-134297518D01*
X168258276Y-134297518D01*
X168125261Y-135028293D01*
X168105362Y-135112245D01*
X168077721Y-135187954D01*
X168042338Y-135255420D01*
X167991273Y-135323712D01*
X167929672Y-135380784D01*
X167868531Y-135420626D01*
X167799745Y-135452225D01*
X167723313Y-135475581D01*
X167653780Y-135488747D01*
X167578937Y-135496189D01*
X167515240Y-135498020D01*
X167437382Y-135495158D01*
X167366870Y-135486572D01*
X167291953Y-135468711D01*
X167217921Y-135437456D01*
X167158287Y-135394980D01*
X167143893Y-135380784D01*
X167098394Y-135314643D01*
X167072001Y-135233847D01*
X167064579Y-135151130D01*
X167069860Y-135071299D01*
X167076531Y-135028293D01*
X167209546Y-134297518D01*
X167551828Y-134297518D01*
G37*
G36*
X168786231Y-134824301D02*
G01*
X168483272Y-134297518D01*
X168935659Y-134297518D01*
X169061151Y-134535117D01*
X169276915Y-134297518D01*
X169729644Y-134297518D01*
X169225282Y-134824692D01*
X169604494Y-135448000D01*
X169144242Y-135448000D01*
X168955150Y-135107232D01*
X168640223Y-135448000D01*
X168182023Y-135448000D01*
X168786231Y-134824301D01*
G37*
G36*
X170442930Y-134672675D02*
G01*
X170999609Y-134672675D01*
X170936008Y-135022822D01*
X170379330Y-135022822D01*
X170442930Y-134672675D01*
G37*
G36*
X172576439Y-133702367D02*
G01*
X172643935Y-133717669D01*
X172712904Y-133746634D01*
X172738715Y-133761747D01*
X172797867Y-133807237D01*
X172848804Y-133863108D01*
X172891527Y-133929359D01*
X172899085Y-133943854D01*
X172931683Y-134021898D01*
X172953541Y-134100294D01*
X172968312Y-134186418D01*
X172972602Y-134227176D01*
X172976727Y-134312563D01*
X172975042Y-134391124D01*
X172968415Y-134473275D01*
X172956847Y-134559017D01*
X172950376Y-134596862D01*
X172932387Y-134683990D01*
X172910733Y-134767565D01*
X172885413Y-134847587D01*
X172856428Y-134924056D01*
X172838220Y-134966157D01*
X172804149Y-135036557D01*
X172762005Y-135111472D01*
X172716441Y-135180477D01*
X172667458Y-135243571D01*
X172661095Y-135251042D01*
X172608714Y-135306876D01*
X172553469Y-135355969D01*
X172495361Y-135398321D01*
X172434389Y-135433931D01*
X172363646Y-135464912D01*
X172291443Y-135485753D01*
X172217780Y-135496456D01*
X172176224Y-135498020D01*
X172102512Y-135492951D01*
X172034481Y-135477742D01*
X171965552Y-135448952D01*
X171939944Y-135433931D01*
X171881413Y-135388365D01*
X171830630Y-135332265D01*
X171787593Y-135265633D01*
X171779916Y-135251042D01*
X171749826Y-135180477D01*
X171726878Y-135102431D01*
X171711070Y-135016904D01*
X171705373Y-134966157D01*
X171701398Y-134880794D01*
X171703179Y-134802295D01*
X171703392Y-134799681D01*
X172074668Y-134799681D01*
X172079762Y-134879720D01*
X172095526Y-134957560D01*
X172127824Y-135029337D01*
X172153998Y-135061119D01*
X172218589Y-135094947D01*
X172249057Y-135097853D01*
X172316644Y-135083504D01*
X172356427Y-135061119D01*
X172412638Y-135010272D01*
X172452170Y-134957560D01*
X172490853Y-134889588D01*
X172523298Y-134816541D01*
X172529790Y-134799681D01*
X172555259Y-134722093D01*
X172574661Y-134644635D01*
X172584159Y-134596862D01*
X172596148Y-134517214D01*
X172602625Y-134436387D01*
X172603307Y-134395215D01*
X172598609Y-134314312D01*
X172583475Y-134236946D01*
X172551658Y-134166176D01*
X172525003Y-134134559D01*
X172460842Y-134100371D01*
X172431311Y-134097434D01*
X172362229Y-134111936D01*
X172322575Y-134134559D01*
X172266868Y-134185035D01*
X172226831Y-134236946D01*
X172187582Y-134304420D01*
X172154745Y-134378086D01*
X172148185Y-134395215D01*
X172122773Y-134472987D01*
X172103523Y-134549813D01*
X172094159Y-134596862D01*
X172081961Y-134677590D01*
X172075367Y-134758721D01*
X172074668Y-134799681D01*
X171703392Y-134799681D01*
X171709869Y-134720243D01*
X171721467Y-134634638D01*
X171727941Y-134596862D01*
X171745914Y-134509582D01*
X171767519Y-134425892D01*
X171792757Y-134345793D01*
X171821627Y-134269284D01*
X171839755Y-134227176D01*
X171873992Y-134156851D01*
X171916366Y-134082205D01*
X171962202Y-134013664D01*
X172011500Y-133951229D01*
X172017906Y-133943854D01*
X172070650Y-133888362D01*
X172125959Y-133839514D01*
X172183832Y-133797309D01*
X172244270Y-133761747D01*
X172314706Y-133730577D01*
X172387144Y-133709609D01*
X172461583Y-133698841D01*
X172503803Y-133697267D01*
X172576439Y-133702367D01*
G37*
G36*
X173008164Y-135235801D02*
G01*
X173030721Y-135160947D01*
X173044068Y-135133415D01*
X173087254Y-135070577D01*
X173107327Y-135049395D01*
X173164791Y-135005631D01*
X173189392Y-134993122D01*
X173257674Y-134974071D01*
X173280690Y-134972801D01*
X173349834Y-134986216D01*
X173364124Y-134993122D01*
X173419737Y-135040566D01*
X173426015Y-135049395D01*
X173456795Y-135121587D01*
X173459183Y-135133415D01*
X173461270Y-135212336D01*
X173457815Y-135235801D01*
X173435258Y-135310138D01*
X173421912Y-135337797D01*
X173378549Y-135400635D01*
X173358311Y-135421817D01*
X173300670Y-135465221D01*
X173275903Y-135477699D01*
X173207943Y-135496750D01*
X173184947Y-135498020D01*
X173115577Y-135484605D01*
X173101172Y-135477699D01*
X173045895Y-135430554D01*
X173039623Y-135421817D01*
X173009179Y-135349625D01*
X173006796Y-135337797D01*
X173004709Y-135258981D01*
X173008164Y-135235801D01*
G37*
G36*
X174726413Y-134747706D02*
G01*
X174897725Y-134747706D01*
X174833782Y-135097853D01*
X174662470Y-135097853D01*
X174598869Y-135448000D01*
X174256245Y-135448000D01*
X174319846Y-135097853D01*
X173613740Y-135097853D01*
X173667424Y-134803589D01*
X173707150Y-134747706D01*
X174048004Y-134747706D01*
X174383789Y-134747706D01*
X174504152Y-134086101D01*
X174048004Y-134747706D01*
X173707150Y-134747706D01*
X174418325Y-133747288D01*
X174908325Y-133747288D01*
X174726413Y-134747706D01*
G37*
G36*
X176648958Y-133745195D02*
G01*
X176719781Y-133759380D01*
X176781472Y-133783631D01*
X176842776Y-133823335D01*
X176894911Y-133877490D01*
X176910041Y-133899695D01*
X176943654Y-133968393D01*
X176964308Y-134045917D01*
X176967829Y-134069688D01*
X176972470Y-134150119D01*
X176967237Y-134228484D01*
X176959965Y-134276025D01*
X176941232Y-134358793D01*
X176916151Y-134434418D01*
X176879713Y-134512099D01*
X176834983Y-134580450D01*
X176822505Y-134596080D01*
X176767858Y-134652476D01*
X176705476Y-134698956D01*
X176635357Y-134735519D01*
X176567656Y-134759377D01*
X176557501Y-134762166D01*
X176884738Y-135460505D01*
X176416964Y-135460505D01*
X176159825Y-134805152D01*
X176040488Y-135460505D01*
X175674270Y-135460505D01*
X175845782Y-134517923D01*
X176212142Y-134517923D01*
X176287027Y-134517923D01*
X176356497Y-134512618D01*
X176428048Y-134492248D01*
X176477829Y-134463603D01*
X176531152Y-134407023D01*
X176563662Y-134332341D01*
X176569127Y-134307678D01*
X176571605Y-134227825D01*
X176537834Y-134155195D01*
X176534591Y-134151754D01*
X176470798Y-134112765D01*
X176398991Y-134098760D01*
X176363621Y-134097434D01*
X176288736Y-134097434D01*
X176212142Y-134517923D01*
X175845782Y-134517923D01*
X175987145Y-133741035D01*
X176576650Y-133741035D01*
X176648958Y-133745195D01*
G37*
G36*
X178131451Y-134122445D02*
G01*
X177673593Y-134122445D01*
X177623670Y-134397560D01*
X178060327Y-134397560D01*
X177991939Y-134772717D01*
X177555282Y-134772717D01*
X177500914Y-135072842D01*
X177958771Y-135072842D01*
X177890383Y-135448000D01*
X177066308Y-135448000D01*
X177375764Y-133747288D01*
X178199839Y-133747288D01*
X178131451Y-134122445D01*
G37*
G36*
X178750362Y-133747288D02*
G01*
X178910732Y-134782487D01*
X179450314Y-133747288D01*
X179858590Y-133747288D01*
X178939455Y-135448000D01*
X178640258Y-135448000D01*
X178342086Y-133747288D01*
X178750362Y-133747288D01*
G37*
G36*
X179591193Y-135235801D02*
G01*
X179613750Y-135160947D01*
X179627096Y-135133415D01*
X179670283Y-135070577D01*
X179690355Y-135049395D01*
X179747819Y-135005631D01*
X179772421Y-134993122D01*
X179840702Y-134974071D01*
X179863719Y-134972801D01*
X179932863Y-134986216D01*
X179947152Y-134993122D01*
X180002766Y-135040566D01*
X180009043Y-135049395D01*
X180039823Y-135121587D01*
X180042212Y-135133415D01*
X180044299Y-135212336D01*
X180040844Y-135235801D01*
X180018287Y-135310138D01*
X180004940Y-135337797D01*
X179961577Y-135400635D01*
X179941339Y-135421817D01*
X179883699Y-135465221D01*
X179858932Y-135477699D01*
X179790971Y-135496750D01*
X179767976Y-135498020D01*
X179698606Y-135484605D01*
X179684200Y-135477699D01*
X179628924Y-135430554D01*
X179622651Y-135421817D01*
X179592208Y-135349625D01*
X179589825Y-135337797D01*
X179587738Y-135258981D01*
X179591193Y-135235801D01*
G37*
G36*
X181506057Y-134311977D02*
G01*
X181466611Y-134247566D01*
X181411960Y-134189262D01*
X181348016Y-134149098D01*
X181274778Y-134127072D01*
X181216775Y-134122445D01*
X181143687Y-134129476D01*
X181072824Y-134150569D01*
X181052986Y-134159179D01*
X180991348Y-134193093D01*
X180930648Y-134239426D01*
X180910397Y-134258439D01*
X180858384Y-134318054D01*
X180816063Y-134381582D01*
X180801318Y-134408111D01*
X180768882Y-134480857D01*
X180745475Y-134558117D01*
X180737718Y-134595299D01*
X180727855Y-134676414D01*
X180729351Y-134757710D01*
X180732930Y-134785222D01*
X180752084Y-134861575D01*
X180785765Y-134932039D01*
X180788325Y-134936066D01*
X180835512Y-134993024D01*
X180894326Y-135036499D01*
X180959291Y-135062585D01*
X181027247Y-135072523D01*
X181042728Y-135072842D01*
X181121702Y-135064091D01*
X181189134Y-135042659D01*
X181256325Y-135008367D01*
X181323276Y-134961216D01*
X181378884Y-134912100D01*
X181401081Y-134889953D01*
X181306022Y-135412829D01*
X181264989Y-135428460D01*
X181197605Y-135452732D01*
X181129382Y-135472949D01*
X181094703Y-135481217D01*
X181023231Y-135493278D01*
X180953713Y-135497955D01*
X180944591Y-135498020D01*
X180871737Y-135493868D01*
X180801917Y-135481412D01*
X180735132Y-135460651D01*
X180671381Y-135431586D01*
X180604696Y-135389732D01*
X180544664Y-135339345D01*
X180491287Y-135280427D01*
X180464508Y-135244008D01*
X180422241Y-135172309D01*
X180391209Y-135102608D01*
X180366333Y-135027290D01*
X180349616Y-134956778D01*
X180337498Y-134871611D01*
X180333972Y-134782584D01*
X180337934Y-134701520D01*
X180348474Y-134617502D01*
X180352693Y-134592954D01*
X180370951Y-134508508D01*
X180394609Y-134427167D01*
X180423666Y-134348929D01*
X180458123Y-134273796D01*
X180480237Y-134232256D01*
X180522216Y-134162637D01*
X180567369Y-134097393D01*
X180615696Y-134036525D01*
X180667198Y-133980033D01*
X180698053Y-133949716D01*
X180754250Y-133900228D01*
X180812739Y-133855715D01*
X180873518Y-133816175D01*
X180936588Y-133781610D01*
X180973656Y-133764092D01*
X181039230Y-133738053D01*
X181114291Y-133716127D01*
X181189480Y-133702553D01*
X181264798Y-133697332D01*
X181274221Y-133697267D01*
X181342884Y-133700814D01*
X181414429Y-133712568D01*
X181439378Y-133718760D01*
X181509578Y-133741713D01*
X181576169Y-133771063D01*
X181602142Y-133784413D01*
X181506057Y-134311977D01*
G37*
D11*
X122289819Y-129257506D02*
X123004104Y-129257506D01*
X123004104Y-129257506D02*
X123146961Y-129305125D01*
X123146961Y-129305125D02*
X123242200Y-129400363D01*
X123242200Y-129400363D02*
X123289819Y-129543220D01*
X123289819Y-129543220D02*
X123289819Y-129638458D01*
X123289819Y-128257506D02*
X123289819Y-128828934D01*
X123289819Y-128543220D02*
X122289819Y-128543220D01*
X122289819Y-128543220D02*
X122432676Y-128638458D01*
X122432676Y-128638458D02*
X122527914Y-128733696D01*
X122527914Y-128733696D02*
X122575533Y-128828934D01*
X123289819Y-127305125D02*
X123289819Y-127876553D01*
X123289819Y-127590839D02*
X122289819Y-127590839D01*
X122289819Y-127590839D02*
X122432676Y-127686077D01*
X122432676Y-127686077D02*
X122527914Y-127781315D01*
X122527914Y-127781315D02*
X122575533Y-127876553D01*
X117722493Y-72889819D02*
X117722493Y-73604104D01*
X117722493Y-73604104D02*
X117674874Y-73746961D01*
X117674874Y-73746961D02*
X117579636Y-73842200D01*
X117579636Y-73842200D02*
X117436779Y-73889819D01*
X117436779Y-73889819D02*
X117341541Y-73889819D01*
X118722493Y-73889819D02*
X118151065Y-73889819D01*
X118436779Y-73889819D02*
X118436779Y-72889819D01*
X118436779Y-72889819D02*
X118341541Y-73032676D01*
X118341541Y-73032676D02*
X118246303Y-73127914D01*
X118246303Y-73127914D02*
X118151065Y-73175533D01*
X119341541Y-72889819D02*
X119436779Y-72889819D01*
X119436779Y-72889819D02*
X119532017Y-72937438D01*
X119532017Y-72937438D02*
X119579636Y-72985057D01*
X119579636Y-72985057D02*
X119627255Y-73080295D01*
X119627255Y-73080295D02*
X119674874Y-73270771D01*
X119674874Y-73270771D02*
X119674874Y-73508866D01*
X119674874Y-73508866D02*
X119627255Y-73699342D01*
X119627255Y-73699342D02*
X119579636Y-73794580D01*
X119579636Y-73794580D02*
X119532017Y-73842200D01*
X119532017Y-73842200D02*
X119436779Y-73889819D01*
X119436779Y-73889819D02*
X119341541Y-73889819D01*
X119341541Y-73889819D02*
X119246303Y-73842200D01*
X119246303Y-73842200D02*
X119198684Y-73794580D01*
X119198684Y-73794580D02*
X119151065Y-73699342D01*
X119151065Y-73699342D02*
X119103446Y-73508866D01*
X119103446Y-73508866D02*
X119103446Y-73270771D01*
X119103446Y-73270771D02*
X119151065Y-73080295D01*
X119151065Y-73080295D02*
X119198684Y-72985057D01*
X119198684Y-72985057D02*
X119246303Y-72937438D01*
X119246303Y-72937438D02*
X119341541Y-72889819D01*
X172909819Y-69727506D02*
X173624104Y-69727506D01*
X173624104Y-69727506D02*
X173766961Y-69775125D01*
X173766961Y-69775125D02*
X173862200Y-69870363D01*
X173862200Y-69870363D02*
X173909819Y-70013220D01*
X173909819Y-70013220D02*
X173909819Y-70108458D01*
X173909819Y-68727506D02*
X173909819Y-69298934D01*
X173909819Y-69013220D02*
X172909819Y-69013220D01*
X172909819Y-69013220D02*
X173052676Y-69108458D01*
X173052676Y-69108458D02*
X173147914Y-69203696D01*
X173147914Y-69203696D02*
X173195533Y-69298934D01*
X172909819Y-68394172D02*
X172909819Y-67775125D01*
X172909819Y-67775125D02*
X173290771Y-68108458D01*
X173290771Y-68108458D02*
X173290771Y-67965601D01*
X173290771Y-67965601D02*
X173338390Y-67870363D01*
X173338390Y-67870363D02*
X173386009Y-67822744D01*
X173386009Y-67822744D02*
X173481247Y-67775125D01*
X173481247Y-67775125D02*
X173719342Y-67775125D01*
X173719342Y-67775125D02*
X173814580Y-67822744D01*
X173814580Y-67822744D02*
X173862200Y-67870363D01*
X173862200Y-67870363D02*
X173909819Y-67965601D01*
X173909819Y-67965601D02*
X173909819Y-68251315D01*
X173909819Y-68251315D02*
X173862200Y-68346553D01*
X173862200Y-68346553D02*
X173814580Y-68394172D01*
X177182493Y-123449819D02*
X177182493Y-124164104D01*
X177182493Y-124164104D02*
X177134874Y-124306961D01*
X177134874Y-124306961D02*
X177039636Y-124402200D01*
X177039636Y-124402200D02*
X176896779Y-124449819D01*
X176896779Y-124449819D02*
X176801541Y-124449819D01*
X178182493Y-124449819D02*
X177611065Y-124449819D01*
X177896779Y-124449819D02*
X177896779Y-123449819D01*
X177896779Y-123449819D02*
X177801541Y-123592676D01*
X177801541Y-123592676D02*
X177706303Y-123687914D01*
X177706303Y-123687914D02*
X177611065Y-123735533D01*
X178563446Y-123545057D02*
X178611065Y-123497438D01*
X178611065Y-123497438D02*
X178706303Y-123449819D01*
X178706303Y-123449819D02*
X178944398Y-123449819D01*
X178944398Y-123449819D02*
X179039636Y-123497438D01*
X179039636Y-123497438D02*
X179087255Y-123545057D01*
X179087255Y-123545057D02*
X179134874Y-123640295D01*
X179134874Y-123640295D02*
X179134874Y-123735533D01*
X179134874Y-123735533D02*
X179087255Y-123878390D01*
X179087255Y-123878390D02*
X178515827Y-124449819D01*
X178515827Y-124449819D02*
X179134874Y-124449819D01*
X199558095Y-128654819D02*
X199558095Y-129464342D01*
X199558095Y-129464342D02*
X199605714Y-129559580D01*
X199605714Y-129559580D02*
X199653333Y-129607200D01*
X199653333Y-129607200D02*
X199748571Y-129654819D01*
X199748571Y-129654819D02*
X199939047Y-129654819D01*
X199939047Y-129654819D02*
X200034285Y-129607200D01*
X200034285Y-129607200D02*
X200081904Y-129559580D01*
X200081904Y-129559580D02*
X200129523Y-129464342D01*
X200129523Y-129464342D02*
X200129523Y-128654819D01*
X201081904Y-128654819D02*
X200605714Y-128654819D01*
X200605714Y-128654819D02*
X200558095Y-129131009D01*
X200558095Y-129131009D02*
X200605714Y-129083390D01*
X200605714Y-129083390D02*
X200700952Y-129035771D01*
X200700952Y-129035771D02*
X200939047Y-129035771D01*
X200939047Y-129035771D02*
X201034285Y-129083390D01*
X201034285Y-129083390D02*
X201081904Y-129131009D01*
X201081904Y-129131009D02*
X201129523Y-129226247D01*
X201129523Y-129226247D02*
X201129523Y-129464342D01*
X201129523Y-129464342D02*
X201081904Y-129559580D01*
X201081904Y-129559580D02*
X201034285Y-129607200D01*
X201034285Y-129607200D02*
X200939047Y-129654819D01*
X200939047Y-129654819D02*
X200700952Y-129654819D01*
X200700952Y-129654819D02*
X200605714Y-129607200D01*
X200605714Y-129607200D02*
X200558095Y-129559580D01*
D12*
X105238719Y-124775833D02*
X105953004Y-124775833D01*
X105953004Y-124775833D02*
X106095861Y-124823452D01*
X106095861Y-124823452D02*
X106191100Y-124918690D01*
X106191100Y-124918690D02*
X106238719Y-125061547D01*
X106238719Y-125061547D02*
X106238719Y-125156785D01*
X105238719Y-124394880D02*
X105238719Y-123775833D01*
X105238719Y-123775833D02*
X105619671Y-124109166D01*
X105619671Y-124109166D02*
X105619671Y-123966309D01*
X105619671Y-123966309D02*
X105667290Y-123871071D01*
X105667290Y-123871071D02*
X105714909Y-123823452D01*
X105714909Y-123823452D02*
X105810147Y-123775833D01*
X105810147Y-123775833D02*
X106048242Y-123775833D01*
X106048242Y-123775833D02*
X106143480Y-123823452D01*
X106143480Y-123823452D02*
X106191100Y-123871071D01*
X106191100Y-123871071D02*
X106238719Y-123966309D01*
X106238719Y-123966309D02*
X106238719Y-124252023D01*
X106238719Y-124252023D02*
X106191100Y-124347261D01*
X106191100Y-124347261D02*
X106143480Y-124394880D01*
D13*
X100619047Y-134008924D02*
X100487499Y-135061305D01*
X100487499Y-135061305D02*
X100529166Y-135185115D01*
X100529166Y-135185115D02*
X100578571Y-135247020D01*
X100578571Y-135247020D02*
X100685118Y-135308924D01*
X100685118Y-135308924D02*
X100913690Y-135308924D01*
X100913690Y-135308924D02*
X101035713Y-135247020D01*
X101035713Y-135247020D02*
X101100594Y-135185115D01*
X101100594Y-135185115D02*
X101173213Y-135061305D01*
X101173213Y-135061305D02*
X101304761Y-134008924D01*
X101664285Y-135247020D02*
X101827975Y-135308924D01*
X101827975Y-135308924D02*
X102113690Y-135308924D01*
X102113690Y-135308924D02*
X102235714Y-135247020D01*
X102235714Y-135247020D02*
X102300594Y-135185115D01*
X102300594Y-135185115D02*
X102373214Y-135061305D01*
X102373214Y-135061305D02*
X102388690Y-134937496D01*
X102388690Y-134937496D02*
X102347023Y-134813686D01*
X102347023Y-134813686D02*
X102297618Y-134751781D01*
X102297618Y-134751781D02*
X102191071Y-134689877D01*
X102191071Y-134689877D02*
X101970237Y-134627972D01*
X101970237Y-134627972D02*
X101863690Y-134566067D01*
X101863690Y-134566067D02*
X101814285Y-134504162D01*
X101814285Y-134504162D02*
X101772618Y-134380353D01*
X101772618Y-134380353D02*
X101788094Y-134256543D01*
X101788094Y-134256543D02*
X101860714Y-134132734D01*
X101860714Y-134132734D02*
X101925594Y-134070829D01*
X101925594Y-134070829D02*
X102047618Y-134008924D01*
X102047618Y-134008924D02*
X102333333Y-134008924D01*
X102333333Y-134008924D02*
X102497023Y-134070829D01*
X103341666Y-134627972D02*
X103505356Y-134689877D01*
X103505356Y-134689877D02*
X103554761Y-134751781D01*
X103554761Y-134751781D02*
X103596428Y-134875591D01*
X103596428Y-134875591D02*
X103573213Y-135061305D01*
X103573213Y-135061305D02*
X103500594Y-135185115D01*
X103500594Y-135185115D02*
X103435713Y-135247020D01*
X103435713Y-135247020D02*
X103313690Y-135308924D01*
X103313690Y-135308924D02*
X102856547Y-135308924D01*
X102856547Y-135308924D02*
X103019047Y-134008924D01*
X103019047Y-134008924D02*
X103419047Y-134008924D01*
X103419047Y-134008924D02*
X103525594Y-134070829D01*
X103525594Y-134070829D02*
X103574999Y-134132734D01*
X103574999Y-134132734D02*
X103616666Y-134256543D01*
X103616666Y-134256543D02*
X103601190Y-134380353D01*
X103601190Y-134380353D02*
X103528571Y-134504162D01*
X103528571Y-134504162D02*
X103463690Y-134566067D01*
X103463690Y-134566067D02*
X103341666Y-134627972D01*
X103341666Y-134627972D02*
X102941666Y-134627972D01*
X103755356Y-135432734D02*
X104669642Y-135432734D01*
X104970833Y-135308924D02*
X105133333Y-134008924D01*
X105055952Y-134627972D02*
X105741666Y-134627972D01*
X105656547Y-135308924D02*
X105819047Y-134008924D01*
X106227976Y-135308924D02*
X106390476Y-134008924D01*
X106799405Y-135308924D02*
X106961905Y-134008924D01*
X106961905Y-134008924D02*
X107247619Y-134008924D01*
X107247619Y-134008924D02*
X107411309Y-134070829D01*
X107411309Y-134070829D02*
X107510119Y-134194639D01*
X107510119Y-134194639D02*
X107551786Y-134318448D01*
X107551786Y-134318448D02*
X107577976Y-134566067D01*
X107577976Y-134566067D02*
X107554762Y-134751781D01*
X107554762Y-134751781D02*
X107466667Y-134999400D01*
X107466667Y-134999400D02*
X107394048Y-135123210D01*
X107394048Y-135123210D02*
X107264286Y-135247020D01*
X107264286Y-135247020D02*
X107085119Y-135308924D01*
X107085119Y-135308924D02*
X106799405Y-135308924D01*
X109320829Y-101497261D02*
X109258924Y-101603809D01*
X109258924Y-101603809D02*
X109258924Y-101775237D01*
X109258924Y-101775237D02*
X109320829Y-101954404D01*
X109320829Y-101954404D02*
X109444639Y-102084166D01*
X109444639Y-102084166D02*
X109568448Y-102156785D01*
X109568448Y-102156785D02*
X109816067Y-102244880D01*
X109816067Y-102244880D02*
X110001781Y-102268094D01*
X110001781Y-102268094D02*
X110249400Y-102241904D01*
X110249400Y-102241904D02*
X110373210Y-102200237D01*
X110373210Y-102200237D02*
X110497020Y-102101428D01*
X110497020Y-102101428D02*
X110558924Y-101937737D01*
X110558924Y-101937737D02*
X110558924Y-101823451D01*
X110558924Y-101823451D02*
X110497020Y-101644285D01*
X110497020Y-101644285D02*
X110435115Y-101579404D01*
X110435115Y-101579404D02*
X110001781Y-101525237D01*
X110001781Y-101525237D02*
X110001781Y-101753809D01*
X110187496Y-101091309D02*
X110187496Y-100519880D01*
X110558924Y-101252023D02*
X109258924Y-100689523D01*
X109258924Y-100689523D02*
X110558924Y-100452023D01*
X110558924Y-100052023D02*
X109258924Y-99889523D01*
X109258924Y-99889523D02*
X110187496Y-99605595D01*
X110187496Y-99605595D02*
X109258924Y-99089523D01*
X109258924Y-99089523D02*
X110558924Y-99252023D01*
X109877972Y-98595475D02*
X109877972Y-98195475D01*
X110558924Y-98109166D02*
X110558924Y-98680594D01*
X110558924Y-98680594D02*
X109258924Y-98518094D01*
X109258924Y-98518094D02*
X109258924Y-97946666D01*
X110558924Y-97594880D02*
X109258924Y-97432380D01*
X109258924Y-97432380D02*
X109258924Y-96975237D01*
X109258924Y-96975237D02*
X109320829Y-96868690D01*
X109320829Y-96868690D02*
X109382734Y-96819285D01*
X109382734Y-96819285D02*
X109506543Y-96777618D01*
X109506543Y-96777618D02*
X109692258Y-96800833D01*
X109692258Y-96800833D02*
X109816067Y-96873452D01*
X109816067Y-96873452D02*
X109877972Y-96938333D01*
X109877972Y-96938333D02*
X109939877Y-97060357D01*
X109939877Y-97060357D02*
X109939877Y-97517499D01*
X109258924Y-96003809D02*
X109258924Y-95775237D01*
X109258924Y-95775237D02*
X109320829Y-95668690D01*
X109320829Y-95668690D02*
X109444639Y-95569880D01*
X109444639Y-95569880D02*
X109692258Y-95543690D01*
X109692258Y-95543690D02*
X110125591Y-95597857D01*
X110125591Y-95597857D02*
X110373210Y-95685952D01*
X110373210Y-95685952D02*
X110497020Y-95815714D01*
X110497020Y-95815714D02*
X110558924Y-95937737D01*
X110558924Y-95937737D02*
X110558924Y-96166309D01*
X110558924Y-96166309D02*
X110497020Y-96272857D01*
X110497020Y-96272857D02*
X110373210Y-96371666D01*
X110373210Y-96371666D02*
X110125591Y-96397857D01*
X110125591Y-96397857D02*
X109692258Y-96343690D01*
X109692258Y-96343690D02*
X109444639Y-96255595D01*
X109444639Y-96255595D02*
X109320829Y-96125833D01*
X109320829Y-96125833D02*
X109258924Y-96003809D01*
X110558924Y-94452023D02*
X109939877Y-94774642D01*
X110558924Y-95137737D02*
X109258924Y-94975237D01*
X109258924Y-94975237D02*
X109258924Y-94518094D01*
X109258924Y-94518094D02*
X109320829Y-94411547D01*
X109320829Y-94411547D02*
X109382734Y-94362142D01*
X109382734Y-94362142D02*
X109506543Y-94320475D01*
X109506543Y-94320475D02*
X109692258Y-94343690D01*
X109692258Y-94343690D02*
X109816067Y-94416309D01*
X109816067Y-94416309D02*
X109877972Y-94481190D01*
X109877972Y-94481190D02*
X109939877Y-94603214D01*
X109939877Y-94603214D02*
X109939877Y-95060356D01*
X109258924Y-93946666D02*
X109258924Y-93260952D01*
X110558924Y-93766309D02*
X109258924Y-93603809D01*
D11*
X125675750Y-77153246D02*
X126248170Y-77725666D01*
X126248170Y-77725666D02*
X126349185Y-77759338D01*
X126349185Y-77759338D02*
X126416529Y-77759338D01*
X126416529Y-77759338D02*
X126517544Y-77725666D01*
X126517544Y-77725666D02*
X126652231Y-77590979D01*
X126652231Y-77590979D02*
X126685903Y-77489964D01*
X126685903Y-77489964D02*
X126685903Y-77422620D01*
X126685903Y-77422620D02*
X126652231Y-77321605D01*
X126652231Y-77321605D02*
X126079811Y-76749185D01*
X127494025Y-76749185D02*
X127089964Y-77153246D01*
X127291994Y-76951216D02*
X126584888Y-76244109D01*
X126584888Y-76244109D02*
X126618559Y-76412468D01*
X126618559Y-76412468D02*
X126618559Y-76547155D01*
X126618559Y-76547155D02*
X126584888Y-76648170D01*
D14*
X150490100Y-110151694D02*
X150609147Y-109809432D01*
X150609147Y-109809432D02*
X150609147Y-109214194D01*
X150609147Y-109214194D02*
X150490100Y-108961218D01*
X150490100Y-108961218D02*
X150371052Y-108827289D01*
X150371052Y-108827289D02*
X150132957Y-108678480D01*
X150132957Y-108678480D02*
X149894861Y-108648718D01*
X149894861Y-108648718D02*
X149656766Y-108738004D01*
X149656766Y-108738004D02*
X149537719Y-108842170D01*
X149537719Y-108842170D02*
X149418671Y-109065385D01*
X149418671Y-109065385D02*
X149299623Y-109526694D01*
X149299623Y-109526694D02*
X149180576Y-109749908D01*
X149180576Y-109749908D02*
X149061528Y-109854075D01*
X149061528Y-109854075D02*
X148823433Y-109943361D01*
X148823433Y-109943361D02*
X148585338Y-109913599D01*
X148585338Y-109913599D02*
X148347242Y-109764789D01*
X148347242Y-109764789D02*
X148228195Y-109630861D01*
X148228195Y-109630861D02*
X148109147Y-109377885D01*
X148109147Y-109377885D02*
X148109147Y-108782646D01*
X148109147Y-108782646D02*
X148228195Y-108440385D01*
X148109147Y-106877885D02*
X148109147Y-106401694D01*
X148109147Y-106401694D02*
X148228195Y-106178480D01*
X148228195Y-106178480D02*
X148466290Y-105970147D01*
X148466290Y-105970147D02*
X148942480Y-105910623D01*
X148942480Y-105910623D02*
X149775814Y-106014790D01*
X149775814Y-106014790D02*
X150252004Y-106193361D01*
X150252004Y-106193361D02*
X150490100Y-106461218D01*
X150490100Y-106461218D02*
X150609147Y-106714194D01*
X150609147Y-106714194D02*
X150609147Y-107190385D01*
X150609147Y-107190385D02*
X150490100Y-107413599D01*
X150490100Y-107413599D02*
X150252004Y-107621933D01*
X150252004Y-107621933D02*
X149775814Y-107681456D01*
X149775814Y-107681456D02*
X148942480Y-107577290D01*
X148942480Y-107577290D02*
X148466290Y-107398718D01*
X148466290Y-107398718D02*
X148228195Y-107130861D01*
X148228195Y-107130861D02*
X148109147Y-106877885D01*
X150609147Y-105047527D02*
X148109147Y-104735027D01*
X148109147Y-104735027D02*
X149894861Y-104124908D01*
X149894861Y-104124908D02*
X148109147Y-103068361D01*
X148109147Y-103068361D02*
X150609147Y-103380861D01*
X148109147Y-102115980D02*
X148109147Y-100568361D01*
X148109147Y-100568361D02*
X149061528Y-101520742D01*
X149061528Y-101520742D02*
X149061528Y-101163599D01*
X149061528Y-101163599D02*
X149180576Y-100940384D01*
X149180576Y-100940384D02*
X149299623Y-100836218D01*
X149299623Y-100836218D02*
X149537719Y-100746932D01*
X149537719Y-100746932D02*
X150132957Y-100821337D01*
X150132957Y-100821337D02*
X150371052Y-100970146D01*
X150371052Y-100970146D02*
X150490100Y-101104075D01*
X150490100Y-101104075D02*
X150609147Y-101357051D01*
X150609147Y-101357051D02*
X150609147Y-102071337D01*
X150609147Y-102071337D02*
X150490100Y-102294551D01*
X150490100Y-102294551D02*
X150371052Y-102398718D01*
X148109147Y-99020742D02*
X148109147Y-98782647D01*
X148109147Y-98782647D02*
X148228195Y-98559432D01*
X148228195Y-98559432D02*
X148347242Y-98455266D01*
X148347242Y-98455266D02*
X148585338Y-98365980D01*
X148585338Y-98365980D02*
X149061528Y-98306456D01*
X149061528Y-98306456D02*
X149656766Y-98380861D01*
X149656766Y-98380861D02*
X150132957Y-98559432D01*
X150132957Y-98559432D02*
X150371052Y-98708242D01*
X150371052Y-98708242D02*
X150490100Y-98842170D01*
X150490100Y-98842170D02*
X150609147Y-99095147D01*
X150609147Y-99095147D02*
X150609147Y-99333242D01*
X150609147Y-99333242D02*
X150490100Y-99556456D01*
X150490100Y-99556456D02*
X150371052Y-99660623D01*
X150371052Y-99660623D02*
X150132957Y-99749909D01*
X150132957Y-99749909D02*
X149656766Y-99809432D01*
X149656766Y-99809432D02*
X149061528Y-99735028D01*
X149061528Y-99735028D02*
X148585338Y-99556456D01*
X148585338Y-99556456D02*
X148347242Y-99407647D01*
X148347242Y-99407647D02*
X148228195Y-99273718D01*
X148228195Y-99273718D02*
X148109147Y-99020742D01*
X148942480Y-96148718D02*
X150609147Y-96357052D01*
X147990100Y-96624909D02*
X149775814Y-97443361D01*
X149775814Y-97443361D02*
X149775814Y-95895742D01*
X150609147Y-93618957D02*
X149418671Y-94303481D01*
X150609147Y-95047528D02*
X148109147Y-94735028D01*
X148109147Y-94735028D02*
X148109147Y-93782647D01*
X148109147Y-93782647D02*
X148228195Y-93559433D01*
X148228195Y-93559433D02*
X148347242Y-93455266D01*
X148347242Y-93455266D02*
X148585338Y-93365981D01*
X148585338Y-93365981D02*
X148942480Y-93410624D01*
X148942480Y-93410624D02*
X149180576Y-93559433D01*
X149180576Y-93559433D02*
X149299623Y-93693362D01*
X149299623Y-93693362D02*
X149418671Y-93946338D01*
X149418671Y-93946338D02*
X149418671Y-94898719D01*
X150609147Y-92547528D02*
X148109147Y-92235028D01*
X148109147Y-92235028D02*
X148109147Y-91639790D01*
X148109147Y-91639790D02*
X148228195Y-91297528D01*
X148228195Y-91297528D02*
X148466290Y-91089195D01*
X148466290Y-91089195D02*
X148704385Y-90999909D01*
X148704385Y-90999909D02*
X149180576Y-90940386D01*
X149180576Y-90940386D02*
X149537719Y-90985028D01*
X149537719Y-90985028D02*
X150013909Y-91163600D01*
X150013909Y-91163600D02*
X150252004Y-91312409D01*
X150252004Y-91312409D02*
X150490100Y-91580266D01*
X150490100Y-91580266D02*
X150609147Y-91952290D01*
X150609147Y-91952290D02*
X150609147Y-92547528D01*
X149656766Y-89928481D02*
X149656766Y-88023719D01*
X148109147Y-86996933D02*
X150609147Y-86476100D01*
X150609147Y-86476100D02*
X148109147Y-85330267D01*
X150609147Y-84809433D02*
X148109147Y-84496933D01*
D15*
X202287544Y-69460237D02*
X202287544Y-69031666D01*
X202573259Y-69581666D02*
X201573259Y-69156666D01*
X201573259Y-69156666D02*
X202573259Y-68981666D01*
X201573259Y-68556665D02*
X202382782Y-68657856D01*
X202382782Y-68657856D02*
X202478020Y-68626903D01*
X202478020Y-68626903D02*
X202525640Y-68589999D01*
X202525640Y-68589999D02*
X202573259Y-68510237D01*
X202573259Y-68510237D02*
X202573259Y-68338808D01*
X202573259Y-68338808D02*
X202525640Y-68247141D01*
X202525640Y-68247141D02*
X202478020Y-68198332D01*
X202478020Y-68198332D02*
X202382782Y-68143570D01*
X202382782Y-68143570D02*
X201573259Y-68042379D01*
X202573259Y-67738808D02*
X201573259Y-67613808D01*
X201573259Y-67613808D02*
X201573259Y-67399522D01*
X201573259Y-67399522D02*
X201620878Y-67276903D01*
X201620878Y-67276903D02*
X201716116Y-67203094D01*
X201716116Y-67203094D02*
X201811354Y-67172142D01*
X201811354Y-67172142D02*
X202001830Y-67153094D01*
X202001830Y-67153094D02*
X202144687Y-67170951D01*
X202144687Y-67170951D02*
X202335163Y-67237618D01*
X202335163Y-67237618D02*
X202430401Y-67292380D01*
X202430401Y-67292380D02*
X202525640Y-67389999D01*
X202525640Y-67389999D02*
X202573259Y-67524522D01*
X202573259Y-67524522D02*
X202573259Y-67738808D01*
X202573259Y-66838808D02*
X201573259Y-66713808D01*
X201573259Y-66113809D02*
X201573259Y-65942380D01*
X201573259Y-65942380D02*
X201620878Y-65862618D01*
X201620878Y-65862618D02*
X201716116Y-65788809D01*
X201716116Y-65788809D02*
X201906592Y-65769761D01*
X201906592Y-65769761D02*
X202239925Y-65811428D01*
X202239925Y-65811428D02*
X202430401Y-65878094D01*
X202430401Y-65878094D02*
X202525640Y-65975713D01*
X202525640Y-65975713D02*
X202573259Y-66067380D01*
X202573259Y-66067380D02*
X202573259Y-66238809D01*
X202573259Y-66238809D02*
X202525640Y-66318571D01*
X202525640Y-66318571D02*
X202430401Y-66392380D01*
X202430401Y-66392380D02*
X202239925Y-66411428D01*
X202239925Y-66411428D02*
X201906592Y-66369761D01*
X201906592Y-66369761D02*
X201716116Y-66303094D01*
X201716116Y-66303094D02*
X201620878Y-66205475D01*
X201620878Y-66205475D02*
X201573259Y-66113809D01*
X202668497Y-65693571D02*
X202668497Y-65007856D01*
X201573259Y-64485238D02*
X201573259Y-64313809D01*
X201573259Y-64313809D02*
X201620878Y-64234047D01*
X201620878Y-64234047D02*
X201716116Y-64160238D01*
X201716116Y-64160238D02*
X201906592Y-64141190D01*
X201906592Y-64141190D02*
X202239925Y-64182857D01*
X202239925Y-64182857D02*
X202430401Y-64249523D01*
X202430401Y-64249523D02*
X202525640Y-64347142D01*
X202525640Y-64347142D02*
X202573259Y-64438809D01*
X202573259Y-64438809D02*
X202573259Y-64610238D01*
X202573259Y-64610238D02*
X202525640Y-64690000D01*
X202525640Y-64690000D02*
X202430401Y-64763809D01*
X202430401Y-64763809D02*
X202239925Y-64782857D01*
X202239925Y-64782857D02*
X201906592Y-64741190D01*
X201906592Y-64741190D02*
X201716116Y-64674523D01*
X201716116Y-64674523D02*
X201620878Y-64576904D01*
X201620878Y-64576904D02*
X201573259Y-64485238D01*
X201573259Y-63713809D02*
X202382782Y-63815000D01*
X202382782Y-63815000D02*
X202478020Y-63784047D01*
X202478020Y-63784047D02*
X202525640Y-63747143D01*
X202525640Y-63747143D02*
X202573259Y-63667381D01*
X202573259Y-63667381D02*
X202573259Y-63495952D01*
X202573259Y-63495952D02*
X202525640Y-63404285D01*
X202525640Y-63404285D02*
X202478020Y-63355476D01*
X202478020Y-63355476D02*
X202382782Y-63300714D01*
X202382782Y-63300714D02*
X201573259Y-63199523D01*
X201573259Y-62899524D02*
X201573259Y-62385238D01*
X202573259Y-62767381D02*
X201573259Y-62642381D01*
D16*
X189141073Y-124782095D02*
X189189453Y-124636952D01*
X189189453Y-124636952D02*
X189189453Y-124395047D01*
X189189453Y-124395047D02*
X189141073Y-124298285D01*
X189141073Y-124298285D02*
X189092692Y-124249904D01*
X189092692Y-124249904D02*
X188995930Y-124201523D01*
X188995930Y-124201523D02*
X188899168Y-124201523D01*
X188899168Y-124201523D02*
X188802406Y-124249904D01*
X188802406Y-124249904D02*
X188754025Y-124298285D01*
X188754025Y-124298285D02*
X188705644Y-124395047D01*
X188705644Y-124395047D02*
X188657263Y-124588571D01*
X188657263Y-124588571D02*
X188608882Y-124685333D01*
X188608882Y-124685333D02*
X188560501Y-124733714D01*
X188560501Y-124733714D02*
X188463739Y-124782095D01*
X188463739Y-124782095D02*
X188366977Y-124782095D01*
X188366977Y-124782095D02*
X188270215Y-124733714D01*
X188270215Y-124733714D02*
X188221834Y-124685333D01*
X188221834Y-124685333D02*
X188173453Y-124588571D01*
X188173453Y-124588571D02*
X188173453Y-124346666D01*
X188173453Y-124346666D02*
X188221834Y-124201523D01*
X189189453Y-123766095D02*
X188173453Y-123766095D01*
X188173453Y-123766095D02*
X188173453Y-123379047D01*
X188173453Y-123379047D02*
X188221834Y-123282285D01*
X188221834Y-123282285D02*
X188270215Y-123233904D01*
X188270215Y-123233904D02*
X188366977Y-123185523D01*
X188366977Y-123185523D02*
X188512120Y-123185523D01*
X188512120Y-123185523D02*
X188608882Y-123233904D01*
X188608882Y-123233904D02*
X188657263Y-123282285D01*
X188657263Y-123282285D02*
X188705644Y-123379047D01*
X188705644Y-123379047D02*
X188705644Y-123766095D01*
X189189453Y-122217904D02*
X189189453Y-122798476D01*
X189189453Y-122508190D02*
X188173453Y-122508190D01*
X188173453Y-122508190D02*
X188318596Y-122604952D01*
X188318596Y-122604952D02*
X188415358Y-122701714D01*
X188415358Y-122701714D02*
X188463739Y-122798476D01*
X188802406Y-128967047D02*
X188802406Y-128192952D01*
X189189453Y-128579999D02*
X188415358Y-128579999D01*
D11*
X190729580Y-132442857D02*
X190777200Y-132490476D01*
X190777200Y-132490476D02*
X190824819Y-132633333D01*
X190824819Y-132633333D02*
X190824819Y-132728571D01*
X190824819Y-132728571D02*
X190777200Y-132871428D01*
X190777200Y-132871428D02*
X190681961Y-132966666D01*
X190681961Y-132966666D02*
X190586723Y-133014285D01*
X190586723Y-133014285D02*
X190396247Y-133061904D01*
X190396247Y-133061904D02*
X190253390Y-133061904D01*
X190253390Y-133061904D02*
X190062914Y-133014285D01*
X190062914Y-133014285D02*
X189967676Y-132966666D01*
X189967676Y-132966666D02*
X189872438Y-132871428D01*
X189872438Y-132871428D02*
X189824819Y-132728571D01*
X189824819Y-132728571D02*
X189824819Y-132633333D01*
X189824819Y-132633333D02*
X189872438Y-132490476D01*
X189872438Y-132490476D02*
X189920057Y-132442857D01*
X190158152Y-131585714D02*
X190824819Y-131585714D01*
X189777200Y-131823809D02*
X190491485Y-132061904D01*
X190491485Y-132061904D02*
X190491485Y-131442857D01*
X190824819Y-130538095D02*
X190824819Y-131109523D01*
X190824819Y-130823809D02*
X189824819Y-130823809D01*
X189824819Y-130823809D02*
X189967676Y-130919047D01*
X189967676Y-130919047D02*
X190062914Y-131014285D01*
X190062914Y-131014285D02*
X190110533Y-131109523D01*
X194807142Y-128109580D02*
X194759523Y-128157200D01*
X194759523Y-128157200D02*
X194616666Y-128204819D01*
X194616666Y-128204819D02*
X194521428Y-128204819D01*
X194521428Y-128204819D02*
X194378571Y-128157200D01*
X194378571Y-128157200D02*
X194283333Y-128061961D01*
X194283333Y-128061961D02*
X194235714Y-127966723D01*
X194235714Y-127966723D02*
X194188095Y-127776247D01*
X194188095Y-127776247D02*
X194188095Y-127633390D01*
X194188095Y-127633390D02*
X194235714Y-127442914D01*
X194235714Y-127442914D02*
X194283333Y-127347676D01*
X194283333Y-127347676D02*
X194378571Y-127252438D01*
X194378571Y-127252438D02*
X194521428Y-127204819D01*
X194521428Y-127204819D02*
X194616666Y-127204819D01*
X194616666Y-127204819D02*
X194759523Y-127252438D01*
X194759523Y-127252438D02*
X194807142Y-127300057D01*
X195664285Y-127538152D02*
X195664285Y-128204819D01*
X195426190Y-127157200D02*
X195188095Y-127871485D01*
X195188095Y-127871485D02*
X195807142Y-127871485D01*
X196378571Y-127204819D02*
X196473809Y-127204819D01*
X196473809Y-127204819D02*
X196569047Y-127252438D01*
X196569047Y-127252438D02*
X196616666Y-127300057D01*
X196616666Y-127300057D02*
X196664285Y-127395295D01*
X196664285Y-127395295D02*
X196711904Y-127585771D01*
X196711904Y-127585771D02*
X196711904Y-127823866D01*
X196711904Y-127823866D02*
X196664285Y-128014342D01*
X196664285Y-128014342D02*
X196616666Y-128109580D01*
X196616666Y-128109580D02*
X196569047Y-128157200D01*
X196569047Y-128157200D02*
X196473809Y-128204819D01*
X196473809Y-128204819D02*
X196378571Y-128204819D01*
X196378571Y-128204819D02*
X196283333Y-128157200D01*
X196283333Y-128157200D02*
X196235714Y-128109580D01*
X196235714Y-128109580D02*
X196188095Y-128014342D01*
X196188095Y-128014342D02*
X196140476Y-127823866D01*
X196140476Y-127823866D02*
X196140476Y-127585771D01*
X196140476Y-127585771D02*
X196188095Y-127395295D01*
X196188095Y-127395295D02*
X196235714Y-127300057D01*
X196235714Y-127300057D02*
X196283333Y-127252438D01*
X196283333Y-127252438D02*
X196378571Y-127204819D01*
D13*
X112388924Y-73530595D02*
X111088924Y-73368095D01*
X111088924Y-73368095D02*
X112017496Y-73084167D01*
X112017496Y-73084167D02*
X111088924Y-72568095D01*
X111088924Y-72568095D02*
X112388924Y-72730595D01*
X112388924Y-72159166D02*
X111088924Y-71996666D01*
X112265115Y-70886547D02*
X112327020Y-70951428D01*
X112327020Y-70951428D02*
X112388924Y-71130594D01*
X112388924Y-71130594D02*
X112388924Y-71244880D01*
X112388924Y-71244880D02*
X112327020Y-71408571D01*
X112327020Y-71408571D02*
X112203210Y-71507380D01*
X112203210Y-71507380D02*
X112079400Y-71549047D01*
X112079400Y-71549047D02*
X111831781Y-71575237D01*
X111831781Y-71575237D02*
X111646067Y-71552023D01*
X111646067Y-71552023D02*
X111398448Y-71463928D01*
X111398448Y-71463928D02*
X111274639Y-71391309D01*
X111274639Y-71391309D02*
X111150829Y-71261547D01*
X111150829Y-71261547D02*
X111088924Y-71082380D01*
X111088924Y-71082380D02*
X111088924Y-70968094D01*
X111088924Y-70968094D02*
X111150829Y-70804404D01*
X111150829Y-70804404D02*
X111212734Y-70754999D01*
X112388924Y-69702023D02*
X111769877Y-70024642D01*
X112388924Y-70387737D02*
X111088924Y-70225237D01*
X111088924Y-70225237D02*
X111088924Y-69768094D01*
X111088924Y-69768094D02*
X111150829Y-69661547D01*
X111150829Y-69661547D02*
X111212734Y-69612142D01*
X111212734Y-69612142D02*
X111336543Y-69570475D01*
X111336543Y-69570475D02*
X111522258Y-69593690D01*
X111522258Y-69593690D02*
X111646067Y-69666309D01*
X111646067Y-69666309D02*
X111707972Y-69731190D01*
X111707972Y-69731190D02*
X111769877Y-69853214D01*
X111769877Y-69853214D02*
X111769877Y-70310356D01*
X111088924Y-68796666D02*
X111088924Y-68568094D01*
X111088924Y-68568094D02*
X111150829Y-68461547D01*
X111150829Y-68461547D02*
X111274639Y-68362737D01*
X111274639Y-68362737D02*
X111522258Y-68336547D01*
X111522258Y-68336547D02*
X111955591Y-68390714D01*
X111955591Y-68390714D02*
X112203210Y-68478809D01*
X112203210Y-68478809D02*
X112327020Y-68608571D01*
X112327020Y-68608571D02*
X112388924Y-68730594D01*
X112388924Y-68730594D02*
X112388924Y-68959166D01*
X112388924Y-68959166D02*
X112327020Y-69065714D01*
X112327020Y-69065714D02*
X112203210Y-69164523D01*
X112203210Y-69164523D02*
X111955591Y-69190714D01*
X111955591Y-69190714D02*
X111522258Y-69136547D01*
X111522258Y-69136547D02*
X111274639Y-69048452D01*
X111274639Y-69048452D02*
X111150829Y-68918690D01*
X111150829Y-68918690D02*
X111088924Y-68796666D01*
X112512734Y-68231785D02*
X112512734Y-67317499D01*
X112327020Y-67065713D02*
X112388924Y-66902023D01*
X112388924Y-66902023D02*
X112388924Y-66616308D01*
X112388924Y-66616308D02*
X112327020Y-66494285D01*
X112327020Y-66494285D02*
X112265115Y-66429404D01*
X112265115Y-66429404D02*
X112141305Y-66356785D01*
X112141305Y-66356785D02*
X112017496Y-66341308D01*
X112017496Y-66341308D02*
X111893686Y-66382975D01*
X111893686Y-66382975D02*
X111831781Y-66432380D01*
X111831781Y-66432380D02*
X111769877Y-66538927D01*
X111769877Y-66538927D02*
X111707972Y-66759761D01*
X111707972Y-66759761D02*
X111646067Y-66866308D01*
X111646067Y-66866308D02*
X111584162Y-66915713D01*
X111584162Y-66915713D02*
X111460353Y-66957380D01*
X111460353Y-66957380D02*
X111336543Y-66941904D01*
X111336543Y-66941904D02*
X111212734Y-66869285D01*
X111212734Y-66869285D02*
X111150829Y-66804404D01*
X111150829Y-66804404D02*
X111088924Y-66682380D01*
X111088924Y-66682380D02*
X111088924Y-66396665D01*
X111088924Y-66396665D02*
X111150829Y-66232975D01*
X112388924Y-65873451D02*
X111088924Y-65710951D01*
X111088924Y-65710951D02*
X111088924Y-65425237D01*
X111088924Y-65425237D02*
X111150829Y-65261547D01*
X111150829Y-65261547D02*
X111274639Y-65162737D01*
X111274639Y-65162737D02*
X111398448Y-65121070D01*
X111398448Y-65121070D02*
X111646067Y-65094880D01*
X111646067Y-65094880D02*
X111831781Y-65118094D01*
X111831781Y-65118094D02*
X112079400Y-65206189D01*
X112079400Y-65206189D02*
X112203210Y-65278808D01*
X112203210Y-65278808D02*
X112327020Y-65408570D01*
X112327020Y-65408570D02*
X112388924Y-65587737D01*
X112388924Y-65587737D02*
X112388924Y-65873451D01*
D11*
X195354761Y-134950057D02*
X195259523Y-134902438D01*
X195259523Y-134902438D02*
X195164285Y-134807200D01*
X195164285Y-134807200D02*
X195021428Y-134664342D01*
X195021428Y-134664342D02*
X194926190Y-134616723D01*
X194926190Y-134616723D02*
X194830952Y-134616723D01*
X194878571Y-134854819D02*
X194783333Y-134807200D01*
X194783333Y-134807200D02*
X194688095Y-134711961D01*
X194688095Y-134711961D02*
X194640476Y-134521485D01*
X194640476Y-134521485D02*
X194640476Y-134188152D01*
X194640476Y-134188152D02*
X194688095Y-133997676D01*
X194688095Y-133997676D02*
X194783333Y-133902438D01*
X194783333Y-133902438D02*
X194878571Y-133854819D01*
X194878571Y-133854819D02*
X195069047Y-133854819D01*
X195069047Y-133854819D02*
X195164285Y-133902438D01*
X195164285Y-133902438D02*
X195259523Y-133997676D01*
X195259523Y-133997676D02*
X195307142Y-134188152D01*
X195307142Y-134188152D02*
X195307142Y-134521485D01*
X195307142Y-134521485D02*
X195259523Y-134711961D01*
X195259523Y-134711961D02*
X195164285Y-134807200D01*
X195164285Y-134807200D02*
X195069047Y-134854819D01*
X195069047Y-134854819D02*
X194878571Y-134854819D01*
X196259523Y-134854819D02*
X195688095Y-134854819D01*
X195973809Y-134854819D02*
X195973809Y-133854819D01*
X195973809Y-133854819D02*
X195878571Y-133997676D01*
X195878571Y-133997676D02*
X195783333Y-134092914D01*
X195783333Y-134092914D02*
X195688095Y-134140533D01*
D13*
X197218924Y-90490952D02*
X198518924Y-90253452D01*
X198518924Y-90253452D02*
X197218924Y-89690952D01*
X197280829Y-88670119D02*
X197218924Y-88776667D01*
X197218924Y-88776667D02*
X197218924Y-88948095D01*
X197218924Y-88948095D02*
X197280829Y-89127262D01*
X197280829Y-89127262D02*
X197404639Y-89257024D01*
X197404639Y-89257024D02*
X197528448Y-89329643D01*
X197528448Y-89329643D02*
X197776067Y-89417738D01*
X197776067Y-89417738D02*
X197961781Y-89440952D01*
X197961781Y-89440952D02*
X198209400Y-89414762D01*
X198209400Y-89414762D02*
X198333210Y-89373095D01*
X198333210Y-89373095D02*
X198457020Y-89274286D01*
X198457020Y-89274286D02*
X198518924Y-89110595D01*
X198518924Y-89110595D02*
X198518924Y-88996309D01*
X198518924Y-88996309D02*
X198457020Y-88817143D01*
X198457020Y-88817143D02*
X198395115Y-88752262D01*
X198395115Y-88752262D02*
X197961781Y-88698095D01*
X197961781Y-88698095D02*
X197961781Y-88926667D01*
X198147496Y-88264167D02*
X198147496Y-87692738D01*
X198518924Y-88424881D02*
X197218924Y-87862381D01*
X197218924Y-87862381D02*
X198518924Y-87624881D01*
X198642734Y-87526072D02*
X198642734Y-86611786D01*
X198518924Y-86310595D02*
X197218924Y-86148095D01*
X198518924Y-85739166D02*
X197218924Y-85576666D01*
X197218924Y-85576666D02*
X198518924Y-85053452D01*
X198518924Y-85053452D02*
X197218924Y-84890952D01*
D15*
X206793259Y-134938094D02*
X205793259Y-134813094D01*
X205793259Y-134813094D02*
X205793259Y-134470237D01*
X205793259Y-134470237D02*
X205840878Y-134390475D01*
X205840878Y-134390475D02*
X205888497Y-134353570D01*
X205888497Y-134353570D02*
X205983735Y-134322618D01*
X205983735Y-134322618D02*
X206126592Y-134340475D01*
X206126592Y-134340475D02*
X206221830Y-134395237D01*
X206221830Y-134395237D02*
X206269449Y-134444047D01*
X206269449Y-134444047D02*
X206317068Y-134535713D01*
X206317068Y-134535713D02*
X206317068Y-134878570D01*
X205793259Y-133741666D02*
X205793259Y-133570237D01*
X205793259Y-133570237D02*
X205840878Y-133490475D01*
X205840878Y-133490475D02*
X205936116Y-133416666D01*
X205936116Y-133416666D02*
X206126592Y-133397618D01*
X206126592Y-133397618D02*
X206459925Y-133439285D01*
X206459925Y-133439285D02*
X206650401Y-133505951D01*
X206650401Y-133505951D02*
X206745640Y-133603570D01*
X206745640Y-133603570D02*
X206793259Y-133695237D01*
X206793259Y-133695237D02*
X206793259Y-133866666D01*
X206793259Y-133866666D02*
X206745640Y-133946428D01*
X206745640Y-133946428D02*
X206650401Y-134020237D01*
X206650401Y-134020237D02*
X206459925Y-134039285D01*
X206459925Y-134039285D02*
X206126592Y-133997618D01*
X206126592Y-133997618D02*
X205936116Y-133930951D01*
X205936116Y-133930951D02*
X205840878Y-133833332D01*
X205840878Y-133833332D02*
X205793259Y-133741666D01*
X205793259Y-133055951D02*
X206793259Y-132966666D01*
X206793259Y-132966666D02*
X206078973Y-132705951D01*
X206078973Y-132705951D02*
X206793259Y-132623809D01*
X206793259Y-132623809D02*
X205793259Y-132284523D01*
X206269449Y-132001190D02*
X206269449Y-131701190D01*
X206793259Y-131638095D02*
X206793259Y-132066666D01*
X206793259Y-132066666D02*
X205793259Y-131941666D01*
X205793259Y-131941666D02*
X205793259Y-131513095D01*
X206793259Y-130738094D02*
X206317068Y-130978571D01*
X206793259Y-131252380D02*
X205793259Y-131127380D01*
X205793259Y-131127380D02*
X205793259Y-130784523D01*
X205793259Y-130784523D02*
X205840878Y-130704761D01*
X205840878Y-130704761D02*
X205888497Y-130667856D01*
X205888497Y-130667856D02*
X205983735Y-130636904D01*
X205983735Y-130636904D02*
X206126592Y-130654761D01*
X206126592Y-130654761D02*
X206221830Y-130709523D01*
X206221830Y-130709523D02*
X206269449Y-130758333D01*
X206269449Y-130758333D02*
X206317068Y-130849999D01*
X206317068Y-130849999D02*
X206317068Y-131192856D01*
X206888497Y-130578571D02*
X206888497Y-129892856D01*
X206793259Y-129666666D02*
X205793259Y-129541666D01*
X206793259Y-129238095D02*
X205793259Y-129113095D01*
X205793259Y-129113095D02*
X206793259Y-128723809D01*
X206793259Y-128723809D02*
X205793259Y-128598809D01*
D17*
%TO.C,U5*%
X198570000Y-130250000D02*
X201220000Y-130250000D01*
X199420000Y-133350000D02*
X201220000Y-133350000D01*
D18*
%TO.C,J3*%
X104250000Y-118250000D02*
X95900000Y-118250000D01*
X104250000Y-132650000D02*
X95900000Y-132650000D01*
X110050000Y-118250000D02*
X107250000Y-118250000D01*
X110050000Y-132650000D02*
X107250000Y-132650000D01*
X112750000Y-120100000D02*
X112750000Y-130850000D01*
D19*
%TO.C,J2*%
X95625000Y-78459000D02*
X95625000Y-117601000D01*
X95625000Y-117601000D02*
X108248000Y-117601000D01*
X108248000Y-78459000D02*
X95625000Y-78459000D01*
X108248000Y-117601000D02*
X108248000Y-78459000D01*
D12*
X108752000Y-107530000D02*
X108752000Y-107530000D01*
X108752000Y-107730000D02*
X108752000Y-107730000D01*
X108752000Y-107530000D02*
G75*
G02*
X108752000Y-107730000I0J-100000D01*
G01*
X108752000Y-107730000D02*
G75*
G02*
X108752000Y-107530000I0J100000D01*
G01*
D18*
%TO.C,U1*%
X114352814Y-130549386D02*
X114342814Y-66867814D01*
X116352814Y-132549386D02*
X180028600Y-132553600D01*
X180028600Y-64873600D02*
X116342814Y-64867814D01*
X182028600Y-130553600D02*
X182028600Y-66873600D01*
X114342814Y-66867814D02*
G75*
G02*
X116342814Y-64867814I1999999J1D01*
G01*
X116352814Y-132549386D02*
G75*
G02*
X114352814Y-130549386I-14J1999986D01*
G01*
X180028600Y-64873600D02*
G75*
G02*
X182028600Y-66873600I1J-1999999D01*
G01*
X182028600Y-130553600D02*
G75*
G02*
X180028600Y-132553600I-2000000J0D01*
G01*
D20*
X125102415Y-75173600D02*
G75*
G02*
X123974785Y-75173600I-563815J0D01*
G01*
X123974785Y-75173600D02*
G75*
G02*
X125102415Y-75173600I563815J0D01*
G01*
D18*
%TO.C,J6*%
X204120000Y-63040000D02*
X204120000Y-69040000D01*
X215620000Y-63040000D02*
X204120000Y-63040000D01*
X215620000Y-63040000D02*
X215620000Y-69040000D01*
X215620000Y-69040000D02*
X204120000Y-69040000D01*
%TO.C,SP1*%
X194729480Y-123500000D02*
G75*
G02*
X182730520Y-123500000I-5999480J0D01*
G01*
X182730520Y-123500000D02*
G75*
G02*
X194729480Y-123500000I5999480J0D01*
G01*
D17*
%TO.C,C41*%
X191310000Y-132511252D02*
X191310000Y-131088748D01*
X193130000Y-132511252D02*
X193130000Y-131088748D01*
%TO.C,C40*%
X195309420Y-128740000D02*
X195590580Y-128740000D01*
X195309420Y-129760000D02*
X195590580Y-129760000D01*
D18*
%TO.C,J5*%
X97750000Y-61980000D02*
X95880000Y-61980000D01*
X97750000Y-76780000D02*
X95880000Y-76780000D01*
X107700000Y-61980000D02*
X100250000Y-61980000D01*
X107700000Y-76780000D02*
X100250000Y-76780000D01*
X109700000Y-72480000D02*
X109700000Y-76780000D01*
D17*
%TO.C,Q1*%
X194550000Y-130250000D02*
X194550000Y-131200000D01*
X194550000Y-130250000D02*
X196350000Y-130250000D01*
X194550000Y-132400000D02*
X194550000Y-133350000D01*
X196350000Y-131400000D02*
X196350000Y-132200000D01*
X196350000Y-133350000D02*
X194550000Y-133350000D01*
D18*
%TO.C,J9*%
X185010000Y-101420015D02*
X185010000Y-68400013D01*
X185010000Y-101420015D02*
X190090000Y-101420104D01*
X190090000Y-68400000D02*
X185010000Y-68400013D01*
X190090000Y-68400000D02*
X190090000Y-101420104D01*
%TO.C,J7*%
X194100000Y-103410000D02*
X194100000Y-119290000D01*
X194100000Y-103410000D02*
X200550070Y-103410000D01*
X194100000Y-119290000D02*
X200550070Y-119290000D01*
X215100000Y-103410000D02*
X203449983Y-103410000D01*
X215100000Y-119280000D02*
X203449983Y-119280000D01*
D19*
%TO.C,J4*%
X198890000Y-83172000D02*
X198890000Y-83172000D01*
X198990000Y-83172000D02*
X198990000Y-83172000D01*
D12*
X199560000Y-71775000D02*
X215190000Y-71775000D01*
X199560000Y-102585000D02*
X199560000Y-71775000D01*
X215190000Y-102585000D02*
X199560000Y-102585000D01*
D19*
X198890000Y-83172000D02*
G75*
G02*
X198990000Y-83172000I50000J0D01*
G01*
X198990000Y-83172000D02*
G75*
G02*
X198890000Y-83172000I-50000J0D01*
G01*
D18*
%TO.C,J1*%
X196607000Y-125227500D02*
X196607000Y-121217500D01*
X203067000Y-120697500D02*
X198547000Y-120697500D01*
X203067000Y-125797500D02*
X198547000Y-125797500D01*
X215157000Y-120697500D02*
X205557000Y-120707500D01*
X215157000Y-125797990D02*
X205557000Y-125797500D01*
%TO.C,J8*%
X208820000Y-128125000D02*
X208820000Y-128125000D01*
X208820000Y-135525000D02*
X208820000Y-135525000D01*
X212540000Y-127505000D02*
X210640000Y-127505000D01*
X212540000Y-136145000D02*
X210640000Y-136145000D01*
X215240000Y-127505000D02*
X214590000Y-127505000D01*
X215240000Y-136145000D02*
X214590000Y-136145000D01*
%TD*%
M02*
