%TF.GenerationSoftware,KiCad,Pcbnew,9.0.0*%
%TF.CreationDate,2025-05-16T22:45:05-04:00*%
%TF.ProjectId,REV.C,5245562e-432e-46b6-9963-61645f706362,0.1*%
%TF.SameCoordinates,Original*%
%TF.FileFunction,Soldermask,Top*%
%TF.FilePolarity,Negative*%
%FSLAX46Y46*%
G04 Gerber Fmt 4.6, Leading zero omitted, Abs format (unit mm)*
G04 Created by KiCad (PCBNEW 9.0.0) date 2025-05-16 22:45:05*
%MOMM*%
%LPD*%
G01*
G04 APERTURE LIST*
G04 Aperture macros list*
%AMRoundRect*
0 Rectangle with rounded corners*
0 $1 Rounding radius*
0 $2 $3 $4 $5 $6 $7 $8 $9 X,Y pos of 4 corners*
0 Add a 4 corners polygon primitive as box body*
4,1,4,$2,$3,$4,$5,$6,$7,$8,$9,$2,$3,0*
0 Add four circle primitives for the rounded corners*
1,1,$1+$1,$2,$3*
1,1,$1+$1,$4,$5*
1,1,$1+$1,$6,$7*
1,1,$1+$1,$8,$9*
0 Add four rect primitives between the rounded corners*
20,1,$1+$1,$2,$3,$4,$5,0*
20,1,$1+$1,$4,$5,$6,$7,0*
20,1,$1+$1,$6,$7,$8,$9,0*
20,1,$1+$1,$8,$9,$2,$3,0*%
G04 Aperture macros list end*
%ADD10R,1.350000X1.350000*%
%ADD11O,1.350000X1.350000*%
%ADD12R,1.200000X0.600000*%
%ADD13C,1.500000*%
%ADD14C,3.000000*%
%ADD15C,1.562000*%
%ADD16C,4.877000*%
%ADD17R,2.603250X0.650000*%
%ADD18R,0.650000X2.603250*%
%ADD19C,1.600000*%
%ADD20R,1.600000X2.200000*%
%ADD21C,1.397000*%
%ADD22RoundRect,0.250000X0.650000X-0.325000X0.650000X0.325000X-0.650000X0.325000X-0.650000X-0.325000X0*%
%ADD23RoundRect,0.225000X-0.225000X-0.250000X0.225000X-0.250000X0.225000X0.250000X-0.225000X0.250000X0*%
%ADD24C,1.000000*%
%ADD25R,1.300000X0.700000*%
%ADD26R,2.200000X1.400000*%
%ADD27R,1.700000X1.200000*%
%ADD28R,1.397000X1.397000*%
%ADD29C,3.250000*%
%ADD30RoundRect,0.102000X-0.704000X0.704000X-0.704000X-0.704000X0.704000X-0.704000X0.704000X0.704000X0*%
%ADD31C,1.612000*%
%ADD32C,1.734000*%
%ADD33C,2.604000*%
%ADD34C,1.650000*%
%ADD35C,4.800000*%
%ADD36C,1.420000*%
%ADD37O,2.250000X1.250000*%
%ADD38C,0.600000*%
%ADD39R,1.440000X0.600000*%
%ADD40R,1.500000X0.300000*%
%ADD41O,2.000000X0.900000*%
%ADD42O,1.700000X0.900000*%
%ADD43O,0.900000X0.600000*%
G04 APERTURE END LIST*
D10*
%TO.C,P1*%
X105350000Y-109260000D03*
D11*
X105350000Y-111260000D03*
%TD*%
D12*
%TO.C,U5*%
X199220000Y-130850000D03*
X199220000Y-131800000D03*
X199220000Y-132750000D03*
X201420000Y-132750000D03*
X201420000Y-131800000D03*
X201420000Y-130850000D03*
%TD*%
D13*
%TO.C,J3*%
X111200000Y-121950000D03*
X111200000Y-124450000D03*
X111200000Y-126450000D03*
X111200000Y-128950000D03*
X108600000Y-121950000D03*
X108600000Y-124450000D03*
X108600000Y-126450000D03*
X108600000Y-128950000D03*
D14*
X111550000Y-118900000D03*
X105750000Y-118950000D03*
X105750000Y-131950000D03*
X111550000Y-132000000D03*
%TD*%
D15*
%TO.C,J2*%
X106572000Y-107631000D03*
X106572000Y-104888000D03*
X106572000Y-102145000D03*
X106572000Y-99401000D03*
X106572000Y-96658000D03*
X106572000Y-93915000D03*
X106572000Y-91172000D03*
X106572000Y-88429000D03*
X103727000Y-106259000D03*
X103727000Y-103516000D03*
X103727000Y-100773000D03*
X103727000Y-98030000D03*
X103727000Y-95287000D03*
X103727000Y-92543000D03*
X103727000Y-89800000D03*
D16*
X105150000Y-81367000D03*
X105150000Y-114692000D03*
%TD*%
D17*
%TO.C,U1*%
X116481890Y-75223600D03*
X120381890Y-75223600D03*
X116481890Y-76493600D03*
X120381890Y-76493600D03*
X116481890Y-77763600D03*
X120381890Y-77763600D03*
X116481890Y-79033600D03*
X120381890Y-79033600D03*
X116481890Y-80303600D03*
X120381890Y-80303600D03*
X116481890Y-81573600D03*
X120381890Y-81573600D03*
X116481890Y-82843600D03*
X120381890Y-82843600D03*
X116481890Y-84113600D03*
X120381890Y-84113600D03*
X116481890Y-85383600D03*
X120381890Y-85383600D03*
X116481890Y-86653600D03*
X120381890Y-86653600D03*
X116481890Y-87923600D03*
X120381890Y-87923600D03*
X116481890Y-89193600D03*
X120381890Y-89193600D03*
X116481890Y-90463600D03*
X120381890Y-90463600D03*
X116481890Y-91733600D03*
X120381890Y-91733600D03*
X116481890Y-93003600D03*
X120381890Y-93003600D03*
X116481890Y-94273600D03*
X120381890Y-94273600D03*
X116481890Y-95543600D03*
X120381890Y-95543600D03*
X116481890Y-96813600D03*
X120381890Y-96813600D03*
X116481890Y-98083600D03*
X120381890Y-98083600D03*
X116481890Y-99353600D03*
X120381890Y-99353600D03*
X116481890Y-100623600D03*
X120381890Y-100623600D03*
X116481890Y-101893600D03*
X120381890Y-101893600D03*
X116481890Y-103163600D03*
X120381890Y-103163600D03*
X116481890Y-104433600D03*
X120381890Y-104433600D03*
X116471890Y-105713600D03*
X120371890Y-105713600D03*
X116481890Y-106973600D03*
X120381890Y-106973600D03*
X116481890Y-108243600D03*
X120381890Y-108243600D03*
X116481890Y-109513600D03*
X120381890Y-109513600D03*
X116481890Y-110783600D03*
X120381890Y-110783600D03*
X116481890Y-112053600D03*
X120381890Y-112053600D03*
X116481890Y-113323600D03*
X120381890Y-113323600D03*
X116481890Y-114593600D03*
X120381890Y-114593600D03*
X116481890Y-115863600D03*
X120381890Y-115863600D03*
X116481890Y-117133600D03*
X120381890Y-117133600D03*
X116481890Y-118403600D03*
X120381890Y-118403600D03*
X116481890Y-119673600D03*
X120381890Y-119673600D03*
X116481890Y-120943600D03*
X120381890Y-120943600D03*
X116476965Y-122213555D03*
X120376965Y-122213555D03*
D18*
X124688600Y-130403600D03*
X124688600Y-126503600D03*
X125958600Y-130403600D03*
X125958600Y-126503600D03*
X127228600Y-130403600D03*
X127228600Y-126503600D03*
X128498600Y-130403600D03*
X128498600Y-126503600D03*
X129768600Y-130403600D03*
X129768600Y-126503600D03*
X131038600Y-130403600D03*
X131038600Y-126503600D03*
X132308600Y-130403600D03*
X132308600Y-126503600D03*
X133578600Y-130403600D03*
X133578600Y-126503600D03*
X134848600Y-130403600D03*
X134848600Y-126503600D03*
X136118600Y-130403600D03*
X136118600Y-126503600D03*
X137388600Y-130403600D03*
X137388600Y-126503600D03*
X138658600Y-130403600D03*
X138658600Y-126503600D03*
X139928600Y-130403600D03*
X139928600Y-126503600D03*
X141198600Y-130403600D03*
X141198600Y-126503600D03*
X142468600Y-130403600D03*
X142468600Y-126503600D03*
X143738600Y-130403600D03*
X143738600Y-126503600D03*
X145008600Y-130403600D03*
X145008600Y-126503600D03*
X146278600Y-130403600D03*
X146278600Y-126503600D03*
X147548600Y-130403600D03*
X147548600Y-126503600D03*
X148818600Y-130403600D03*
X148818600Y-126503600D03*
X150088600Y-130403600D03*
X150088600Y-126503600D03*
X151358600Y-130403600D03*
X151358600Y-126503600D03*
X152628600Y-130403600D03*
X152628600Y-126503600D03*
X153898600Y-130403600D03*
X153898600Y-126503600D03*
X155178600Y-130413600D03*
X155178600Y-126513600D03*
X156438600Y-130403600D03*
X156438600Y-126503600D03*
X157708600Y-130403600D03*
X157708600Y-126503600D03*
X158978600Y-130403600D03*
X158978600Y-126503600D03*
X160248600Y-130403600D03*
X160248600Y-126503600D03*
X161518600Y-130403600D03*
X161518600Y-126503600D03*
X162788600Y-130403600D03*
X162788600Y-126503600D03*
X164058600Y-130403600D03*
X164058600Y-126503600D03*
X165328600Y-130403600D03*
X165328600Y-126503600D03*
X166598600Y-130403600D03*
X166598600Y-126503600D03*
X167868600Y-130403600D03*
X167868600Y-126503600D03*
X169138600Y-130403600D03*
X169138600Y-126503600D03*
X170408600Y-130403600D03*
X170408600Y-126503600D03*
X171678555Y-130408525D03*
X171678555Y-126508525D03*
D17*
X175988600Y-75213600D03*
X179888600Y-75213600D03*
X175988600Y-76483600D03*
X179888600Y-76483600D03*
X175988600Y-77753600D03*
X179888600Y-77753600D03*
X175988600Y-79023600D03*
X179888600Y-79023600D03*
X175988600Y-80293600D03*
X179888600Y-80293600D03*
X175988600Y-81563600D03*
X179888600Y-81563600D03*
X175988600Y-82833600D03*
X179888600Y-82833600D03*
X175988600Y-84103600D03*
X179888600Y-84103600D03*
X175988600Y-85373600D03*
X179888600Y-85373600D03*
X175988600Y-86643600D03*
X179888600Y-86643600D03*
X175988600Y-87913600D03*
X179888600Y-87913600D03*
X175988600Y-89183600D03*
X179888600Y-89183600D03*
X175988600Y-90453600D03*
X179888600Y-90453600D03*
X175988600Y-91723600D03*
X179888600Y-91723600D03*
X175988600Y-92993600D03*
X179888600Y-92993600D03*
X175988600Y-94263600D03*
X179888600Y-94263600D03*
X175988600Y-95533600D03*
X179888600Y-95533600D03*
X175988600Y-96803600D03*
X179888600Y-96803600D03*
X175988600Y-98073600D03*
X179888600Y-98073600D03*
X175988600Y-99343600D03*
X179888600Y-99343600D03*
X175988600Y-100613600D03*
X179888600Y-100613600D03*
X175988600Y-101883600D03*
X179888600Y-101883600D03*
X175988600Y-103153600D03*
X179888600Y-103153600D03*
X175988600Y-104423600D03*
X179888600Y-104423600D03*
X175978600Y-105703600D03*
X179878600Y-105703600D03*
X175988600Y-106963600D03*
X179888600Y-106963600D03*
X175988600Y-108233600D03*
X179888600Y-108233600D03*
X175988600Y-109503600D03*
X179888600Y-109503600D03*
X175988600Y-110773600D03*
X179888600Y-110773600D03*
X175988600Y-112043600D03*
X179888600Y-112043600D03*
X175988600Y-113313600D03*
X179888600Y-113313600D03*
X175988600Y-114583600D03*
X179888600Y-114583600D03*
X175988600Y-115853600D03*
X179888600Y-115853600D03*
X175988600Y-117123600D03*
X179888600Y-117123600D03*
X175988600Y-118393600D03*
X179888600Y-118393600D03*
X175988600Y-119663600D03*
X179888600Y-119663600D03*
X175988600Y-120933600D03*
X179888600Y-120933600D03*
X175983675Y-122203555D03*
X179883675Y-122203555D03*
D18*
X124678600Y-70903600D03*
X124678600Y-67003600D03*
X125948600Y-70903600D03*
X125948600Y-67003600D03*
X127218600Y-70903600D03*
X127218600Y-67003600D03*
X128488600Y-70903600D03*
X128488600Y-67003600D03*
X129758600Y-70903600D03*
X129758600Y-67003600D03*
X131028600Y-70903600D03*
X131028600Y-67003600D03*
X132298600Y-70903600D03*
X132298600Y-67003600D03*
X133568600Y-70903600D03*
X133568600Y-67003600D03*
X134838600Y-70903600D03*
X134838600Y-67003600D03*
X136108600Y-70903600D03*
X136108600Y-67003600D03*
X137378600Y-70903600D03*
X137378600Y-67003600D03*
X138648600Y-70903600D03*
X138648600Y-67003600D03*
X139918600Y-70903600D03*
X139918600Y-67003600D03*
X141188600Y-70903600D03*
X141188600Y-67003600D03*
X142458600Y-70903600D03*
X142458600Y-67003600D03*
X143728600Y-70903600D03*
X143728600Y-67003600D03*
X144998600Y-70903600D03*
X144998600Y-67003600D03*
X146268600Y-70903600D03*
X146268600Y-67003600D03*
X147538600Y-70903600D03*
X147538600Y-67003600D03*
X148808600Y-70903600D03*
X148808600Y-67003600D03*
X150078600Y-70903600D03*
X150078600Y-67003600D03*
X151348600Y-70903600D03*
X151348600Y-67003600D03*
X152618600Y-70903600D03*
X152618600Y-67003600D03*
X153888600Y-70903600D03*
X153888600Y-67003600D03*
X155168600Y-70913600D03*
X155168600Y-67013600D03*
X156428600Y-70903600D03*
X156428600Y-67003600D03*
X157698600Y-70903600D03*
X157698600Y-67003600D03*
X158968600Y-70903600D03*
X158968600Y-67003600D03*
X160238600Y-70903600D03*
X160238600Y-67003600D03*
X161508600Y-70903600D03*
X161508600Y-67003600D03*
X162778600Y-70903600D03*
X162778600Y-67003600D03*
X164048600Y-70903600D03*
X164048600Y-67003600D03*
X165318600Y-70903600D03*
X165318600Y-67003600D03*
X166588600Y-70903600D03*
X166588600Y-67003600D03*
X167858600Y-70903600D03*
X167858600Y-67003600D03*
X169128600Y-70903600D03*
X169128600Y-67003600D03*
X170398600Y-70903600D03*
X170398600Y-67003600D03*
X171668555Y-70908525D03*
X171668555Y-67008525D03*
%TD*%
D19*
%TO.C,J6*%
X213120000Y-66040000D03*
X207120000Y-66040000D03*
D20*
X210620000Y-62490000D03*
X210620000Y-69590000D03*
X213820000Y-62490000D03*
X213820000Y-69590000D03*
X207120000Y-62490000D03*
X207120000Y-69590000D03*
%TD*%
D21*
%TO.C,SP1*%
X188730000Y-126751200D03*
X188730000Y-120248800D03*
%TD*%
D22*
%TO.C,C41*%
X192220000Y-133275000D03*
X192220000Y-130325000D03*
%TD*%
D23*
%TO.C,C40*%
X194675000Y-129250000D03*
X196225000Y-129250000D03*
%TD*%
D24*
%TO.C,J5*%
X99000000Y-64430000D03*
X99000000Y-72430000D03*
D25*
X109550000Y-71940000D03*
X109550000Y-70840000D03*
X109550000Y-69740000D03*
X109550000Y-68640000D03*
X109550000Y-67540000D03*
X109550000Y-66440000D03*
X109550000Y-65340000D03*
X109550000Y-64240000D03*
X109550000Y-63140000D03*
D26*
X99000000Y-61620000D03*
D27*
X108700000Y-62040000D03*
X108700000Y-76720000D03*
D26*
X99000000Y-77140000D03*
%TD*%
D12*
%TO.C,Q1*%
X196550000Y-132750000D03*
X194350000Y-131800000D03*
X196550000Y-130850000D03*
%TD*%
D28*
%TO.C,J9*%
X186280000Y-69670000D03*
D21*
X188820000Y-69670000D03*
X186280000Y-72210000D03*
X188820000Y-72210000D03*
X186280000Y-74750000D03*
X188820000Y-74750000D03*
X186280000Y-77290000D03*
X188820000Y-77290000D03*
X186280000Y-79830000D03*
X188820000Y-79830000D03*
X186280000Y-82370000D03*
X188820000Y-82370000D03*
X186280000Y-84910000D03*
X188820000Y-84910000D03*
X186280000Y-87450000D03*
X188820000Y-87450000D03*
X186280000Y-89990000D03*
X188820000Y-89990000D03*
X186280000Y-92530000D03*
X188820000Y-92530000D03*
X186280000Y-95070000D03*
X188820000Y-95070000D03*
X186280000Y-97610000D03*
X188820000Y-97610000D03*
X186280000Y-100150000D03*
X188820000Y-100150000D03*
%TD*%
D29*
%TO.C,J7*%
X205050000Y-105630000D03*
X205050000Y-117060000D03*
D30*
X198700000Y-115790000D03*
D31*
X196160000Y-114520000D03*
X198700000Y-113250000D03*
X196160000Y-111980000D03*
X198700000Y-110710000D03*
X196160000Y-109440000D03*
X198700000Y-108170000D03*
X196160000Y-106900000D03*
D32*
X209950000Y-117670000D03*
X208430000Y-115130000D03*
X209950000Y-107560000D03*
X208430000Y-105020000D03*
D33*
X202000000Y-119220000D03*
X202000000Y-103470000D03*
%TD*%
D34*
%TO.C,J4*%
X201690000Y-83172000D03*
X201690000Y-85462000D03*
X201690000Y-87752000D03*
X201690000Y-90042000D03*
X201690000Y-92332000D03*
X204230000Y-82027000D03*
X204230000Y-84317000D03*
X204230000Y-86607000D03*
X204230000Y-88897000D03*
X204230000Y-91187000D03*
X206770000Y-83172000D03*
X206770000Y-85462000D03*
X206770000Y-87752000D03*
X206770000Y-90042000D03*
X206770000Y-92332000D03*
D35*
X204230000Y-74685000D03*
X204230000Y-99674000D03*
%TD*%
D36*
%TO.C,J1*%
X197578000Y-123222500D03*
X199578000Y-123222500D03*
X201578000Y-123222500D03*
X203578000Y-123222500D03*
D37*
X197308000Y-120487500D03*
X204308000Y-120487500D03*
X197308000Y-125957500D03*
X204308000Y-125957500D03*
%TD*%
D38*
%TO.C,J8*%
X209910000Y-134715000D03*
X209910000Y-128935000D03*
D39*
X208630000Y-135025000D03*
X208630000Y-134225000D03*
D40*
X208660000Y-133075000D03*
X208660000Y-132075000D03*
X208660000Y-131575000D03*
X208660000Y-130575000D03*
D39*
X208630000Y-129425000D03*
X208630000Y-128625000D03*
D40*
X208660000Y-130075000D03*
X208660000Y-131075000D03*
X208660000Y-132575000D03*
X208660000Y-133575000D03*
D41*
X209410000Y-136150000D03*
D42*
X213590000Y-136150000D03*
D41*
X209410000Y-127500000D03*
D42*
X213590000Y-127500000D03*
%TD*%
D43*
%TO.C,SW2*%
X97000000Y-127575000D03*
X97000000Y-123325000D03*
%TD*%
%TO.C,SW3*%
X98017500Y-121815000D03*
X98017500Y-117565000D03*
%TD*%
G36*
X214198127Y-58800659D02*
G01*
X214200562Y-58800683D01*
X214308674Y-58802807D01*
X214325638Y-58804310D01*
X214540410Y-58838331D01*
X214559330Y-58842874D01*
X214764964Y-58909692D01*
X214782940Y-58917138D01*
X214975593Y-59015303D01*
X214992183Y-59025469D01*
X215167115Y-59152566D01*
X215181910Y-59165203D01*
X215334796Y-59318089D01*
X215347433Y-59332884D01*
X215474530Y-59507816D01*
X215484696Y-59524406D01*
X215582861Y-59717059D01*
X215590307Y-59735035D01*
X215657125Y-59940669D01*
X215661668Y-59959589D01*
X215695689Y-60174361D01*
X215697192Y-60191325D01*
X215699316Y-60299437D01*
X215699340Y-60301872D01*
X215699343Y-60675999D01*
X215679659Y-60743039D01*
X215626855Y-60788794D01*
X215575343Y-60800000D01*
X95824000Y-60800000D01*
X95756961Y-60780315D01*
X95711206Y-60727511D01*
X95700000Y-60676000D01*
X95700000Y-60301208D01*
X95700024Y-60298777D01*
X95702144Y-60190663D01*
X95703647Y-60173696D01*
X95737663Y-59958931D01*
X95742205Y-59940011D01*
X95809021Y-59734370D01*
X95816467Y-59716393D01*
X95914631Y-59523735D01*
X95924798Y-59507144D01*
X96051894Y-59332213D01*
X96064531Y-59317418D01*
X96217418Y-59164531D01*
X96232213Y-59151894D01*
X96407144Y-59024798D01*
X96423735Y-59014631D01*
X96616393Y-58916467D01*
X96634370Y-58909021D01*
X96840011Y-58842205D01*
X96858931Y-58837663D01*
X97073696Y-58803647D01*
X97090663Y-58802144D01*
X97198777Y-58800024D01*
X97201209Y-58800000D01*
X214198127Y-58800659D01*
G37*
G36*
X215643036Y-136819685D02*
G01*
X215688791Y-136872489D01*
X215699997Y-136923999D01*
X215699999Y-137298727D01*
X215699972Y-137301300D01*
X215697731Y-137409308D01*
X215696211Y-137426263D01*
X215661974Y-137640962D01*
X215657417Y-137659859D01*
X215590423Y-137865416D01*
X215582969Y-137883370D01*
X215484677Y-138075921D01*
X215474509Y-138092489D01*
X215347332Y-138267312D01*
X215334699Y-138282087D01*
X215181759Y-138434888D01*
X215166973Y-138447507D01*
X214992030Y-138574530D01*
X214975453Y-138584684D01*
X214782812Y-138682802D01*
X214764851Y-138690239D01*
X214559245Y-138757043D01*
X214540344Y-138761583D01*
X214325588Y-138795629D01*
X214308675Y-138797133D01*
X214200580Y-138799315D01*
X214198077Y-138799340D01*
X97201873Y-138799340D01*
X97199437Y-138799316D01*
X97091325Y-138797192D01*
X97074361Y-138795689D01*
X96859589Y-138761668D01*
X96840669Y-138757125D01*
X96635035Y-138690307D01*
X96617059Y-138682861D01*
X96424406Y-138584696D01*
X96407816Y-138574530D01*
X96232884Y-138447433D01*
X96218089Y-138434796D01*
X96065203Y-138281910D01*
X96052566Y-138267115D01*
X95925469Y-138092183D01*
X95915303Y-138075593D01*
X95817138Y-137882940D01*
X95809692Y-137864964D01*
X95742874Y-137659330D01*
X95738331Y-137640410D01*
X95704310Y-137425638D01*
X95702807Y-137408673D01*
X95700681Y-137300449D01*
X95700657Y-137298270D01*
X95700000Y-136979640D01*
X95700000Y-136924000D01*
X95719685Y-136856961D01*
X95772489Y-136811206D01*
X95824000Y-136800000D01*
X215575997Y-136800000D01*
X215643036Y-136819685D01*
G37*
M02*
