%TF.GenerationSoftware,KiCad,Pcbnew,9.0.0*%
%TF.CreationDate,2025-05-16T22:45:05-04:00*%
%TF.ProjectId,REV.C,5245562e-432e-46b6-9963-61645f706362,0.1*%
%TF.SameCoordinates,Original*%
%TF.FileFunction,Soldermask,Bot*%
%TF.FilePolarity,Negative*%
%FSLAX46Y46*%
G04 Gerber Fmt 4.6, Leading zero omitted, Abs format (unit mm)*
G04 Created by KiCad (PCBNEW 9.0.0) date 2025-05-16 22:45:05*
%MOMM*%
%LPD*%
G01*
G04 APERTURE LIST*
G04 Aperture macros list*
%AMRoundRect*
0 Rectangle with rounded corners*
0 $1 Rounding radius*
0 $2 $3 $4 $5 $6 $7 $8 $9 X,Y pos of 4 corners*
0 Add a 4 corners polygon primitive as box body*
4,1,4,$2,$3,$4,$5,$6,$7,$8,$9,$2,$3,0*
0 Add four circle primitives for the rounded corners*
1,1,$1+$1,$2,$3*
1,1,$1+$1,$4,$5*
1,1,$1+$1,$6,$7*
1,1,$1+$1,$8,$9*
0 Add four rect primitives between the rounded corners*
20,1,$1+$1,$2,$3,$4,$5,0*
20,1,$1+$1,$4,$5,$6,$7,0*
20,1,$1+$1,$6,$7,$8,$9,0*
20,1,$1+$1,$8,$9,$2,$3,0*%
%AMFreePoly0*
4,1,23,0.500000,-0.750000,0.000000,-0.750000,0.000000,-0.745722,-0.065263,-0.745722,-0.191342,-0.711940,-0.304381,-0.646677,-0.396677,-0.554381,-0.461940,-0.441342,-0.495722,-0.315263,-0.495722,-0.250000,-0.500000,-0.250000,-0.500000,0.250000,-0.495722,0.250000,-0.495722,0.315263,-0.461940,0.441342,-0.396677,0.554381,-0.304381,0.646677,-0.191342,0.711940,-0.065263,0.745722,0.000000,0.745722,
0.000000,0.750000,0.500000,0.750000,0.500000,-0.750000,0.500000,-0.750000,$1*%
%AMFreePoly1*
4,1,23,0.000000,0.745722,0.065263,0.745722,0.191342,0.711940,0.304381,0.646677,0.396677,0.554381,0.461940,0.441342,0.495722,0.315263,0.495722,0.250000,0.500000,0.250000,0.500000,-0.250000,0.495722,-0.250000,0.495722,-0.315263,0.461940,-0.441342,0.396677,-0.554381,0.304381,-0.646677,0.191342,-0.711940,0.065263,-0.745722,0.000000,-0.745722,0.000000,-0.750000,-0.500000,-0.750000,
-0.500000,0.750000,0.000000,0.750000,0.000000,0.745722,0.000000,0.745722,$1*%
G04 Aperture macros list end*
%ADD10R,1.350000X1.350000*%
%ADD11O,1.350000X1.350000*%
%ADD12C,1.500000*%
%ADD13C,3.000000*%
%ADD14C,1.562000*%
%ADD15C,4.877000*%
%ADD16C,1.600000*%
%ADD17C,1.397000*%
%ADD18C,1.000000*%
%ADD19R,1.397000X1.397000*%
%ADD20C,3.250000*%
%ADD21R,1.408000X1.408000*%
%ADD22C,1.408000*%
%ADD23C,1.530000*%
%ADD24C,2.400000*%
%ADD25C,1.650000*%
%ADD26C,4.800000*%
%ADD27C,1.420000*%
%ADD28O,2.250000X1.250000*%
%ADD29C,0.600000*%
%ADD30O,2.000000X0.900000*%
%ADD31O,1.700000X0.900000*%
%ADD32RoundRect,0.225000X0.225000X0.250000X-0.225000X0.250000X-0.225000X-0.250000X0.225000X-0.250000X0*%
%ADD33R,0.700000X0.700000*%
%ADD34RoundRect,0.225000X-0.250000X0.225000X-0.250000X-0.225000X0.250000X-0.225000X0.250000X0.225000X0*%
%ADD35RoundRect,0.250000X0.325000X0.650000X-0.325000X0.650000X-0.325000X-0.650000X0.325000X-0.650000X0*%
%ADD36RoundRect,0.250000X-0.650000X0.325000X-0.650000X-0.325000X0.650000X-0.325000X0.650000X0.325000X0*%
%ADD37RoundRect,0.100000X0.100000X-0.225000X0.100000X0.225000X-0.100000X0.225000X-0.100000X-0.225000X0*%
%ADD38RoundRect,0.250000X-0.325000X-0.650000X0.325000X-0.650000X0.325000X0.650000X-0.325000X0.650000X0*%
%ADD39RoundRect,0.225000X-0.225000X-0.250000X0.225000X-0.250000X0.225000X0.250000X-0.225000X0.250000X0*%
%ADD40RoundRect,0.225000X0.250000X-0.225000X0.250000X0.225000X-0.250000X0.225000X-0.250000X-0.225000X0*%
%ADD41R,1.000000X1.500000*%
%ADD42RoundRect,0.250000X-0.450000X0.262500X-0.450000X-0.262500X0.450000X-0.262500X0.450000X0.262500X0*%
%ADD43RoundRect,0.075000X0.075000X-1.162500X0.075000X1.162500X-0.075000X1.162500X-0.075000X-1.162500X0*%
%ADD44RoundRect,0.075000X1.162500X-0.075000X1.162500X0.075000X-1.162500X0.075000X-1.162500X-0.075000X0*%
%ADD45R,1.200000X1.400000*%
%ADD46RoundRect,0.218750X-0.218750X-0.256250X0.218750X-0.256250X0.218750X0.256250X-0.218750X0.256250X0*%
%ADD47R,1.200000X0.600000*%
%ADD48RoundRect,0.250000X0.250000X0.475000X-0.250000X0.475000X-0.250000X-0.475000X0.250000X-0.475000X0*%
%ADD49O,1.400000X0.300000*%
%ADD50O,0.300000X1.400000*%
%ADD51RoundRect,0.250000X0.650000X-0.325000X0.650000X0.325000X-0.650000X0.325000X-0.650000X-0.325000X0*%
%ADD52RoundRect,0.200000X0.275000X-0.200000X0.275000X0.200000X-0.275000X0.200000X-0.275000X-0.200000X0*%
%ADD53FreePoly0,270.000000*%
%ADD54FreePoly1,270.000000*%
%ADD55RoundRect,0.250000X-0.262500X-0.450000X0.262500X-0.450000X0.262500X0.450000X-0.262500X0.450000X0*%
%ADD56R,0.950000X2.150000*%
%ADD57R,3.250000X2.150000*%
%ADD58RoundRect,0.175000X0.175000X-0.275000X0.175000X0.275000X-0.175000X0.275000X-0.175000X-0.275000X0*%
%ADD59O,0.900000X0.600000*%
%ADD60R,1.800000X0.700000*%
%ADD61R,1.800000X0.600000*%
%ADD62R,0.625000X1.300000*%
%ADD63RoundRect,0.218750X0.218750X0.256250X-0.218750X0.256250X-0.218750X-0.256250X0.218750X-0.256250X0*%
%ADD64RoundRect,0.250000X0.262500X0.450000X-0.262500X0.450000X-0.262500X-0.450000X0.262500X-0.450000X0*%
%ADD65R,3.000000X1.000000*%
%ADD66R,3.900000X4.200000*%
%ADD67C,5.000000*%
%ADD68R,0.600000X1.200000*%
G04 APERTURE END LIST*
%TO.C,JP2*%
G36*
X124000000Y-118970000D02*
G01*
X125500000Y-118970000D01*
X125500000Y-119270000D01*
X124000000Y-119270000D01*
X124000000Y-118970000D01*
G37*
%TD*%
D10*
%TO.C,P1*%
X105350000Y-109260000D03*
D11*
X105350000Y-111260000D03*
%TD*%
D12*
%TO.C,J3*%
X111200000Y-121950000D03*
X111200000Y-124450000D03*
X111200000Y-126450000D03*
X111200000Y-128950000D03*
X108600000Y-121950000D03*
X108600000Y-124450000D03*
X108600000Y-126450000D03*
X108600000Y-128950000D03*
D13*
X111550000Y-118900000D03*
X105750000Y-118950000D03*
X105750000Y-131950000D03*
X111550000Y-132000000D03*
%TD*%
D14*
%TO.C,J2*%
X106572000Y-107631000D03*
X106572000Y-104888000D03*
X106572000Y-102145000D03*
X106572000Y-99401000D03*
X106572000Y-96658000D03*
X106572000Y-93915000D03*
X106572000Y-91172000D03*
X106572000Y-88429000D03*
X103727000Y-106259000D03*
X103727000Y-103516000D03*
X103727000Y-100773000D03*
X103727000Y-98030000D03*
X103727000Y-95287000D03*
X103727000Y-92543000D03*
X103727000Y-89800000D03*
D15*
X105150000Y-81367000D03*
X105150000Y-114692000D03*
%TD*%
D16*
%TO.C,J6*%
X213120000Y-66040000D03*
X207120000Y-66040000D03*
%TD*%
D17*
%TO.C,SP1*%
X188730000Y-126751200D03*
X188730000Y-120248800D03*
%TD*%
D18*
%TO.C,J5*%
X99000000Y-64430000D03*
X99000000Y-72430000D03*
%TD*%
D19*
%TO.C,J9*%
X186280000Y-69670000D03*
D17*
X188820000Y-69670000D03*
X186280000Y-72210000D03*
X188820000Y-72210000D03*
X186280000Y-74750000D03*
X188820000Y-74750000D03*
X186280000Y-77290000D03*
X188820000Y-77290000D03*
X186280000Y-79830000D03*
X188820000Y-79830000D03*
X186280000Y-82370000D03*
X188820000Y-82370000D03*
X186280000Y-84910000D03*
X188820000Y-84910000D03*
X186280000Y-87450000D03*
X188820000Y-87450000D03*
X186280000Y-89990000D03*
X188820000Y-89990000D03*
X186280000Y-92530000D03*
X188820000Y-92530000D03*
X186280000Y-95070000D03*
X188820000Y-95070000D03*
X186280000Y-97610000D03*
X188820000Y-97610000D03*
X186280000Y-100150000D03*
X188820000Y-100150000D03*
%TD*%
D20*
%TO.C,J7*%
X205050000Y-105630000D03*
X205050000Y-117060000D03*
D21*
X198700000Y-115790000D03*
D22*
X196160000Y-114520000D03*
X198700000Y-113250000D03*
X196160000Y-111980000D03*
X198700000Y-110710000D03*
X196160000Y-109440000D03*
X198700000Y-108170000D03*
X196160000Y-106900000D03*
D23*
X209950000Y-117670000D03*
X208430000Y-115130000D03*
X209950000Y-107560000D03*
X208430000Y-105020000D03*
D24*
X202000000Y-119220000D03*
X202000000Y-103470000D03*
%TD*%
D25*
%TO.C,J4*%
X201690000Y-83172000D03*
X201690000Y-85462000D03*
X201690000Y-87752000D03*
X201690000Y-90042000D03*
X201690000Y-92332000D03*
X204230000Y-82027000D03*
X204230000Y-84317000D03*
X204230000Y-86607000D03*
X204230000Y-88897000D03*
X204230000Y-91187000D03*
X206770000Y-83172000D03*
X206770000Y-85462000D03*
X206770000Y-87752000D03*
X206770000Y-90042000D03*
X206770000Y-92332000D03*
D26*
X204230000Y-74685000D03*
X204230000Y-99674000D03*
%TD*%
D27*
%TO.C,J1*%
X197578000Y-123222500D03*
X199578000Y-123222500D03*
X201578000Y-123222500D03*
X203578000Y-123222500D03*
D28*
X197308000Y-120487500D03*
X204308000Y-120487500D03*
X197308000Y-125957500D03*
X204308000Y-125957500D03*
%TD*%
D29*
%TO.C,J8*%
X209910000Y-134715000D03*
X209910000Y-128935000D03*
D30*
X209410000Y-136150000D03*
D31*
X213590000Y-136150000D03*
D30*
X209410000Y-127500000D03*
D31*
X213590000Y-127500000D03*
%TD*%
D32*
%TO.C,R18*%
X108625000Y-63530000D03*
X107075000Y-63530000D03*
%TD*%
D33*
%TO.C,L2*%
X121260000Y-126570000D03*
X119660000Y-126570000D03*
X119660000Y-127870000D03*
X121260000Y-127870000D03*
%TD*%
D34*
%TO.C,C13*%
X161900000Y-104365000D03*
X161900000Y-105915000D03*
%TD*%
D35*
%TO.C,C46*%
X130750000Y-109665000D03*
X127800000Y-109665000D03*
%TD*%
D36*
%TO.C,C5*%
X158930000Y-103685000D03*
X158930000Y-106635000D03*
%TD*%
D34*
%TO.C,R37*%
X98010000Y-80975000D03*
X98010000Y-82525000D03*
%TD*%
D37*
%TO.C,U7*%
X101100000Y-78130000D03*
X100450000Y-78130000D03*
X99800000Y-78130000D03*
X99800000Y-76230000D03*
X100450000Y-76230000D03*
X101100000Y-76230000D03*
%TD*%
D38*
%TO.C,C6*%
X159175000Y-89570000D03*
X162125000Y-89570000D03*
%TD*%
D34*
%TO.C,C34*%
X200820000Y-110715000D03*
X200820000Y-112265000D03*
%TD*%
D32*
%TO.C,C1*%
X141885000Y-112300000D03*
X140335000Y-112300000D03*
%TD*%
D39*
%TO.C,C30*%
X99725000Y-79825000D03*
X101275000Y-79825000D03*
%TD*%
D32*
%TO.C,R31*%
X108622500Y-71130000D03*
X107072500Y-71130000D03*
%TD*%
D40*
%TO.C,C4*%
X156970000Y-105935000D03*
X156970000Y-104385000D03*
%TD*%
D32*
%TO.C,R40*%
X206575000Y-132330000D03*
X205025000Y-132330000D03*
%TD*%
D41*
%TO.C,D2*%
X96465000Y-82980000D03*
X96465000Y-80480000D03*
%TD*%
D32*
%TO.C,C24*%
X149025000Y-119812500D03*
X147475000Y-119812500D03*
%TD*%
D42*
%TO.C,FB1*%
X157220000Y-96425000D03*
X157220000Y-98250000D03*
%TD*%
D43*
%TO.C,U3*%
X149900000Y-109450000D03*
X149400000Y-109450000D03*
X148900000Y-109450000D03*
X148400000Y-109450000D03*
X147900000Y-109450000D03*
X147400000Y-109450000D03*
X146900000Y-109450000D03*
X146400000Y-109450000D03*
X145900000Y-109450000D03*
X145400000Y-109450000D03*
X144900000Y-109450000D03*
X144400000Y-109450000D03*
X143900000Y-109450000D03*
X143400000Y-109450000D03*
X142900000Y-109450000D03*
X142400000Y-109450000D03*
X141900000Y-109450000D03*
X141400000Y-109450000D03*
X140900000Y-109450000D03*
X140400000Y-109450000D03*
X139900000Y-109450000D03*
X139400000Y-109450000D03*
X138900000Y-109450000D03*
X138400000Y-109450000D03*
X137900000Y-109450000D03*
D44*
X135737500Y-107287500D03*
X135737500Y-106787500D03*
X135737500Y-106287500D03*
X135737500Y-105787500D03*
X135737500Y-105287500D03*
X135737500Y-104787500D03*
X135737500Y-104287500D03*
X135737500Y-103787500D03*
X135737500Y-103287500D03*
X135737500Y-102787500D03*
X135737500Y-102287500D03*
X135737500Y-101787500D03*
X135737500Y-101287500D03*
X135737500Y-100787500D03*
X135737500Y-100287500D03*
X135737500Y-99787500D03*
X135737500Y-99287500D03*
X135737500Y-98787500D03*
X135737500Y-98287500D03*
X135737500Y-97787500D03*
X135737500Y-97287500D03*
X135737500Y-96787500D03*
X135737500Y-96287500D03*
X135737500Y-95787500D03*
X135737500Y-95287500D03*
D43*
X137900000Y-93125000D03*
X138400000Y-93125000D03*
X138900000Y-93125000D03*
X139400000Y-93125000D03*
X139900000Y-93125000D03*
X140400000Y-93125000D03*
X140900000Y-93125000D03*
X141400000Y-93125000D03*
X141900000Y-93125000D03*
X142400000Y-93125000D03*
X142900000Y-93125000D03*
X143400000Y-93125000D03*
X143900000Y-93125000D03*
X144400000Y-93125000D03*
X144900000Y-93125000D03*
X145400000Y-93125000D03*
X145900000Y-93125000D03*
X146400000Y-93125000D03*
X146900000Y-93125000D03*
X147400000Y-93125000D03*
X147900000Y-93125000D03*
X148400000Y-93125000D03*
X148900000Y-93125000D03*
X149400000Y-93125000D03*
X149900000Y-93125000D03*
D44*
X152062500Y-95287500D03*
X152062500Y-95787500D03*
X152062500Y-96287500D03*
X152062500Y-96787500D03*
X152062500Y-97287500D03*
X152062500Y-97787500D03*
X152062500Y-98287500D03*
X152062500Y-98787500D03*
X152062500Y-99287500D03*
X152062500Y-99787500D03*
X152062500Y-100287500D03*
X152062500Y-100787500D03*
X152062500Y-101287500D03*
X152062500Y-101787500D03*
X152062500Y-102287500D03*
X152062500Y-102787500D03*
X152062500Y-103287500D03*
X152062500Y-103787500D03*
X152062500Y-104287500D03*
X152062500Y-104787500D03*
X152062500Y-105287500D03*
X152062500Y-105787500D03*
X152062500Y-106287500D03*
X152062500Y-106787500D03*
X152062500Y-107287500D03*
%TD*%
D40*
%TO.C,C44*%
X129285000Y-113140000D03*
X129285000Y-111590000D03*
%TD*%
D32*
%TO.C,C12*%
X161425000Y-93050000D03*
X159875000Y-93050000D03*
%TD*%
D39*
%TO.C,C33*%
X190870000Y-115280000D03*
X192420000Y-115280000D03*
%TD*%
%TO.C,R25*%
X190870000Y-113760000D03*
X192420000Y-113760000D03*
%TD*%
%TO.C,C28*%
X144910000Y-87170000D03*
X146460000Y-87170000D03*
%TD*%
D45*
%TO.C,X2*%
X121600000Y-133220000D03*
X121600000Y-131020000D03*
X123300000Y-131020000D03*
X123300000Y-133220000D03*
%TD*%
D32*
%TO.C,R39*%
X206575000Y-130810000D03*
X205025000Y-130810000D03*
%TD*%
D46*
%TO.C,F3*%
X105000000Y-124850000D03*
X106575000Y-124850000D03*
%TD*%
D34*
%TO.C,R3*%
X138850000Y-78165000D03*
X138850000Y-79715000D03*
%TD*%
D32*
%TO.C,C50*%
X136610000Y-118450000D03*
X135060000Y-118450000D03*
%TD*%
D34*
%TO.C,R1*%
X140370000Y-78165000D03*
X140370000Y-79715000D03*
%TD*%
D39*
%TO.C,R26*%
X204275000Y-108360000D03*
X205825000Y-108360000D03*
%TD*%
%TO.C,C3*%
X144910000Y-90230000D03*
X146460000Y-90230000D03*
%TD*%
D34*
%TO.C,C26*%
X99620000Y-130295000D03*
X99620000Y-131845000D03*
%TD*%
D39*
%TO.C,R14*%
X103500000Y-69610000D03*
X105050000Y-69610000D03*
%TD*%
D38*
%TO.C,C25*%
X206855000Y-122500000D03*
X209805000Y-122500000D03*
%TD*%
D47*
%TO.C,Q2*%
X190450000Y-122110000D03*
X192650000Y-121160000D03*
X190450000Y-120210000D03*
%TD*%
D32*
%TO.C,R30*%
X108625000Y-69610000D03*
X107075000Y-69610000D03*
%TD*%
D39*
%TO.C,C2*%
X139405000Y-90230000D03*
X140955000Y-90230000D03*
%TD*%
D48*
%TO.C,C29*%
X154760000Y-78700000D03*
X152860000Y-78700000D03*
%TD*%
D39*
%TO.C,C15*%
X155455000Y-99820000D03*
X157005000Y-99820000D03*
%TD*%
D38*
%TO.C,C62*%
X139635000Y-114255023D03*
X142585000Y-114255023D03*
%TD*%
D49*
%TO.C,U6*%
X136990000Y-122315000D03*
X136990000Y-122815000D03*
X136990000Y-123315000D03*
X136990000Y-123815000D03*
X136990000Y-124315000D03*
X136990000Y-124815000D03*
X136990000Y-125315000D03*
X136990000Y-125815000D03*
X136990000Y-126315000D03*
X136990000Y-126815000D03*
X136990000Y-127315000D03*
X136990000Y-127815000D03*
D50*
X135540000Y-129265000D03*
X135040000Y-129265000D03*
X134540000Y-129265000D03*
X134040000Y-129265000D03*
X133540000Y-129265000D03*
X133040000Y-129265000D03*
X132540000Y-129265000D03*
X132040000Y-129265000D03*
X131540000Y-129265000D03*
X131040000Y-129265000D03*
X130540000Y-129265000D03*
X130040000Y-129265000D03*
D49*
X128590000Y-127815000D03*
X128590000Y-127315000D03*
X128590000Y-126815000D03*
X128590000Y-126315000D03*
X128590000Y-125815000D03*
X128590000Y-125315000D03*
X128590000Y-124815000D03*
X128590000Y-124315000D03*
X128590000Y-123815000D03*
X128590000Y-123315000D03*
X128590000Y-122815000D03*
X128590000Y-122315000D03*
D50*
X130040000Y-120865000D03*
X130540000Y-120865000D03*
X131040000Y-120865000D03*
X131540000Y-120865000D03*
X132040000Y-120865000D03*
X132540000Y-120865000D03*
X133040000Y-120865000D03*
X133540000Y-120865000D03*
X134040000Y-120865000D03*
X134540000Y-120865000D03*
X135040000Y-120865000D03*
X135540000Y-120865000D03*
%TD*%
D40*
%TO.C,R44*%
X160510000Y-128620000D03*
X160510000Y-127070000D03*
%TD*%
D34*
%TO.C,C43*%
X186970000Y-122490000D03*
X186970000Y-124040000D03*
%TD*%
D39*
%TO.C,R24*%
X190870000Y-112240000D03*
X192420000Y-112240000D03*
%TD*%
D32*
%TO.C,R28*%
X108627500Y-65050000D03*
X107077500Y-65050000D03*
%TD*%
%TO.C,R41*%
X206575000Y-133850000D03*
X205025000Y-133850000D03*
%TD*%
D51*
%TO.C,C38*%
X164220000Y-80885000D03*
X164220000Y-77935000D03*
%TD*%
D40*
%TO.C,C37*%
X127760000Y-113140000D03*
X127760000Y-111590000D03*
%TD*%
D34*
%TO.C,R2*%
X147970000Y-78165000D03*
X147970000Y-79715000D03*
%TD*%
D52*
%TO.C,R42*%
X102660000Y-131895000D03*
X102660000Y-130245000D03*
%TD*%
D34*
%TO.C,R19*%
X98010000Y-68640000D03*
X98010000Y-70190000D03*
%TD*%
D46*
%TO.C,F1*%
X205012500Y-129290000D03*
X206587500Y-129290000D03*
%TD*%
D34*
%TO.C,R5*%
X108300000Y-90375000D03*
X108300000Y-91925000D03*
%TD*%
D39*
%TO.C,R36*%
X161880000Y-102860000D03*
X163430000Y-102860000D03*
%TD*%
D35*
%TO.C,C48*%
X106445000Y-126790000D03*
X103495000Y-126790000D03*
%TD*%
D34*
%TO.C,C8*%
X155470000Y-96760000D03*
X155470000Y-98310000D03*
%TD*%
D39*
%TO.C,C54*%
X121690000Y-135130000D03*
X123240000Y-135130000D03*
%TD*%
D34*
%TO.C,R10*%
X145250000Y-116237500D03*
X145250000Y-117787500D03*
%TD*%
%TO.C,R46*%
X162030000Y-127070000D03*
X162030000Y-128620000D03*
%TD*%
D39*
%TO.C,R22*%
X190870000Y-109200000D03*
X192420000Y-109200000D03*
%TD*%
D34*
%TO.C,C20*%
X143410000Y-78165000D03*
X143410000Y-79715000D03*
%TD*%
%TO.C,C52*%
X125260000Y-131335000D03*
X125260000Y-132885000D03*
%TD*%
D40*
%TO.C,C45*%
X130810000Y-113140000D03*
X130810000Y-111590000D03*
%TD*%
D38*
%TO.C,C35*%
X156405000Y-78870000D03*
X159355000Y-78870000D03*
%TD*%
D32*
%TO.C,C49*%
X133590000Y-118450000D03*
X132040000Y-118450000D03*
%TD*%
D53*
%TO.C,JP2*%
X124750000Y-118470000D03*
D54*
X124750000Y-119770000D03*
%TD*%
D39*
%TO.C,C7*%
X159875000Y-91520000D03*
X161425000Y-91520000D03*
%TD*%
D55*
%TO.C,FB2*%
X140177500Y-116420000D03*
X142002500Y-116420000D03*
%TD*%
D32*
%TO.C,C27*%
X146460000Y-88700000D03*
X144910000Y-88700000D03*
%TD*%
D40*
%TO.C,R21*%
X166480000Y-105915000D03*
X166480000Y-104365000D03*
%TD*%
D34*
%TO.C,C22*%
X141890000Y-78165000D03*
X141890000Y-79715000D03*
%TD*%
D39*
%TO.C,R34*%
X161880000Y-98300000D03*
X163430000Y-98300000D03*
%TD*%
D46*
%TO.C,F4*%
X105000000Y-128730000D03*
X106575000Y-128730000D03*
%TD*%
D39*
%TO.C,R17*%
X103500000Y-63530000D03*
X105050000Y-63530000D03*
%TD*%
D40*
%TO.C,R20*%
X163430000Y-105915000D03*
X163430000Y-104365000D03*
%TD*%
D39*
%TO.C,C32*%
X190870000Y-107680000D03*
X192420000Y-107680000D03*
%TD*%
D42*
%TO.C,FB4*%
X153580000Y-88597500D03*
X153580000Y-90422500D03*
%TD*%
D32*
%TO.C,R33*%
X163430000Y-99820000D03*
X161880000Y-99820000D03*
%TD*%
D40*
%TO.C,C17*%
X147970000Y-76700000D03*
X147970000Y-75150000D03*
%TD*%
%TO.C,C19*%
X149490000Y-76700000D03*
X149490000Y-75150000D03*
%TD*%
%TO.C,C10*%
X158380000Y-112300000D03*
X158380000Y-110750000D03*
%TD*%
%TO.C,C18*%
X138850000Y-76700000D03*
X138850000Y-75150000D03*
%TD*%
D39*
%TO.C,R15*%
X103500000Y-66570000D03*
X105050000Y-66570000D03*
%TD*%
D32*
%TO.C,R32*%
X108622500Y-72650000D03*
X107072500Y-72650000D03*
%TD*%
D39*
%TO.C,R13*%
X103500000Y-71130000D03*
X105050000Y-71130000D03*
%TD*%
D34*
%TO.C,C23*%
X146450000Y-78165000D03*
X146450000Y-79715000D03*
%TD*%
D32*
%TO.C,C36*%
X105050000Y-68090000D03*
X103500000Y-68090000D03*
%TD*%
D39*
%TO.C,R23*%
X190870000Y-110720000D03*
X192420000Y-110720000D03*
%TD*%
D34*
%TO.C,R11*%
X143410000Y-75150000D03*
X143410000Y-76700000D03*
%TD*%
D40*
%TO.C,R43*%
X158990000Y-128620000D03*
X158990000Y-127070000D03*
%TD*%
D33*
%TO.C,L3*%
X121260000Y-123890000D03*
X119660000Y-123890000D03*
X119660000Y-125190000D03*
X121260000Y-125190000D03*
%TD*%
D38*
%TO.C,C53*%
X130245000Y-91920000D03*
X133195000Y-91920000D03*
%TD*%
D56*
%TO.C,U4*%
X159000000Y-75740000D03*
X156700000Y-75740000D03*
D57*
X156700000Y-69690000D03*
D56*
X154400000Y-75740000D03*
%TD*%
D32*
%TO.C,R38*%
X192065000Y-123580000D03*
X190515000Y-123580000D03*
%TD*%
D35*
%TO.C,C47*%
X106440000Y-122910000D03*
X103490000Y-122910000D03*
%TD*%
D39*
%TO.C,R16*%
X103500000Y-65050000D03*
X105050000Y-65050000D03*
%TD*%
D58*
%TO.C,D3*%
X188720000Y-124360000D03*
X188720000Y-122160000D03*
%TD*%
D41*
%TO.C,D1*%
X96465000Y-70630000D03*
X96465000Y-68130000D03*
%TD*%
D35*
%TO.C,C61*%
X141655000Y-88274977D03*
X138705000Y-88274977D03*
%TD*%
D59*
%TO.C,SW2*%
X97000000Y-127575000D03*
X97000000Y-123325000D03*
D60*
X97900000Y-126650000D03*
X97900000Y-124250000D03*
D61*
X97900000Y-125450000D03*
D62*
X95962500Y-127300000D03*
X95962500Y-123600000D03*
%TD*%
D40*
%TO.C,C31*%
X164960000Y-105915000D03*
X164960000Y-104365000D03*
%TD*%
D59*
%TO.C,SW3*%
X98017500Y-121815000D03*
X98017500Y-117565000D03*
D60*
X98917500Y-120890000D03*
X98917500Y-118490000D03*
D61*
X98917500Y-119690000D03*
D62*
X96980000Y-121540000D03*
X96980000Y-117840000D03*
%TD*%
D63*
%TO.C,F2*%
X208292500Y-124440000D03*
X206717500Y-124440000D03*
%TD*%
D34*
%TO.C,R4*%
X149490000Y-78165000D03*
X149490000Y-79715000D03*
%TD*%
D64*
%TO.C,FB3*%
X171882500Y-105150000D03*
X170057500Y-105150000D03*
%TD*%
D32*
%TO.C,R29*%
X108625000Y-66570000D03*
X107075000Y-66570000D03*
%TD*%
D40*
%TO.C,C9*%
X163740000Y-112300000D03*
X163740000Y-110750000D03*
%TD*%
D32*
%TO.C,C11*%
X161430000Y-94570000D03*
X159880000Y-94570000D03*
%TD*%
D39*
%TO.C,C16*%
X155455000Y-101350000D03*
X157005000Y-101350000D03*
%TD*%
D33*
%TO.C,L1*%
X195320000Y-122870000D03*
X193720000Y-122870000D03*
X193720000Y-124170000D03*
X195320000Y-124170000D03*
%TD*%
D34*
%TO.C,R45*%
X163550000Y-127070000D03*
X163550000Y-128620000D03*
%TD*%
D39*
%TO.C,R12*%
X103500000Y-72650000D03*
X105050000Y-72650000D03*
%TD*%
D40*
%TO.C,C14*%
X140370000Y-76700000D03*
X140370000Y-75150000D03*
%TD*%
D52*
%TO.C,R47*%
X101140000Y-131895000D03*
X101140000Y-130245000D03*
%TD*%
D65*
%TO.C,X1*%
X163720000Y-116730000D03*
X158380000Y-116730000D03*
%TD*%
D32*
%TO.C,R35*%
X163430000Y-101340000D03*
X161880000Y-101340000D03*
%TD*%
D34*
%TO.C,C21*%
X144930000Y-78165000D03*
X144930000Y-79715000D03*
%TD*%
%TO.C,R6*%
X146450000Y-75150000D03*
X146450000Y-76700000D03*
%TD*%
D39*
%TO.C,C51*%
X130945000Y-93870094D03*
X132495000Y-93870094D03*
%TD*%
%TO.C,R27*%
X204275000Y-114290000D03*
X205825000Y-114290000D03*
%TD*%
D66*
%TO.C,BT1*%
X170340000Y-118520000D03*
X185440000Y-118520000D03*
D67*
X177890000Y-118520000D03*
%TD*%
D34*
%TO.C,R8*%
X144930000Y-75150000D03*
X144930000Y-76700000D03*
%TD*%
D51*
%TO.C,C39*%
X166600000Y-80885000D03*
X166600000Y-77935000D03*
%TD*%
D34*
%TO.C,R9*%
X151350000Y-116275000D03*
X151350000Y-117825000D03*
%TD*%
D68*
%TO.C,U2*%
X147350000Y-116050000D03*
X148300000Y-116050000D03*
X149250000Y-116050000D03*
X149250000Y-118250000D03*
X147350000Y-118250000D03*
%TD*%
D34*
%TO.C,R7*%
X141890000Y-75150000D03*
X141890000Y-76700000D03*
%TD*%
G36*
X214198127Y-58800659D02*
G01*
X214200562Y-58800683D01*
X214308674Y-58802807D01*
X214325638Y-58804310D01*
X214540410Y-58838331D01*
X214559330Y-58842874D01*
X214764964Y-58909692D01*
X214782940Y-58917138D01*
X214975593Y-59015303D01*
X214992183Y-59025469D01*
X215167115Y-59152566D01*
X215181910Y-59165203D01*
X215334796Y-59318089D01*
X215347433Y-59332884D01*
X215474530Y-59507816D01*
X215484696Y-59524406D01*
X215582861Y-59717059D01*
X215590307Y-59735035D01*
X215657125Y-59940669D01*
X215661668Y-59959589D01*
X215695689Y-60174361D01*
X215697192Y-60191325D01*
X215699316Y-60299437D01*
X215699340Y-60301872D01*
X215699343Y-60675999D01*
X215679659Y-60743039D01*
X215626855Y-60788794D01*
X215575343Y-60800000D01*
X95824000Y-60800000D01*
X95756961Y-60780315D01*
X95711206Y-60727511D01*
X95700000Y-60676000D01*
X95700000Y-60301208D01*
X95700024Y-60298777D01*
X95702144Y-60190663D01*
X95703647Y-60173696D01*
X95737663Y-59958931D01*
X95742205Y-59940011D01*
X95809021Y-59734370D01*
X95816467Y-59716393D01*
X95914631Y-59523735D01*
X95924798Y-59507144D01*
X96051894Y-59332213D01*
X96064531Y-59317418D01*
X96217418Y-59164531D01*
X96232213Y-59151894D01*
X96407144Y-59024798D01*
X96423735Y-59014631D01*
X96616393Y-58916467D01*
X96634370Y-58909021D01*
X96840011Y-58842205D01*
X96858931Y-58837663D01*
X97073696Y-58803647D01*
X97090663Y-58802144D01*
X97198777Y-58800024D01*
X97201209Y-58800000D01*
X214198127Y-58800659D01*
G37*
G36*
X215643036Y-136819685D02*
G01*
X215688791Y-136872489D01*
X215699997Y-136923999D01*
X215699999Y-137298727D01*
X215699972Y-137301300D01*
X215697731Y-137409308D01*
X215696211Y-137426263D01*
X215661974Y-137640962D01*
X215657417Y-137659859D01*
X215590423Y-137865416D01*
X215582969Y-137883370D01*
X215484677Y-138075921D01*
X215474509Y-138092489D01*
X215347332Y-138267312D01*
X215334699Y-138282087D01*
X215181759Y-138434888D01*
X215166973Y-138447507D01*
X214992030Y-138574530D01*
X214975453Y-138584684D01*
X214782812Y-138682802D01*
X214764851Y-138690239D01*
X214559245Y-138757043D01*
X214540344Y-138761583D01*
X214325588Y-138795629D01*
X214308675Y-138797133D01*
X214200580Y-138799315D01*
X214198077Y-138799340D01*
X97201873Y-138799340D01*
X97199437Y-138799316D01*
X97091325Y-138797192D01*
X97074361Y-138795689D01*
X96859589Y-138761668D01*
X96840669Y-138757125D01*
X96635035Y-138690307D01*
X96617059Y-138682861D01*
X96424406Y-138584696D01*
X96407816Y-138574530D01*
X96232884Y-138447433D01*
X96218089Y-138434796D01*
X96065203Y-138281910D01*
X96052566Y-138267115D01*
X95925469Y-138092183D01*
X95915303Y-138075593D01*
X95817138Y-137882940D01*
X95809692Y-137864964D01*
X95742874Y-137659330D01*
X95738331Y-137640410D01*
X95704310Y-137425638D01*
X95702807Y-137408673D01*
X95700681Y-137300449D01*
X95700657Y-137298270D01*
X95700000Y-136979640D01*
X95700000Y-136924000D01*
X95719685Y-136856961D01*
X95772489Y-136811206D01*
X95824000Y-136800000D01*
X215575997Y-136800000D01*
X215643036Y-136819685D01*
G37*
M02*
