%TF.GenerationSoftware,KiCad,Pcbnew,9.0.0*%
%TF.CreationDate,2025-05-16T22:45:05-04:00*%
%TF.ProjectId,REV.C,5245562e-432e-46b6-9963-61645f706362,0.1*%
%TF.SameCoordinates,Original*%
%TF.FileFunction,Paste,Top*%
%TF.FilePolarity,Positive*%
%FSLAX46Y46*%
G04 Gerber Fmt 4.6, Leading zero omitted, Abs format (unit mm)*
G04 Created by KiCad (PCBNEW 9.0.0) date 2025-05-16 22:45:05*
%MOMM*%
%LPD*%
G01*
G04 APERTURE LIST*
G04 Aperture macros list*
%AMRoundRect*
0 Rectangle with rounded corners*
0 $1 Rounding radius*
0 $2 $3 $4 $5 $6 $7 $8 $9 X,Y pos of 4 corners*
0 Add a 4 corners polygon primitive as box body*
4,1,4,$2,$3,$4,$5,$6,$7,$8,$9,$2,$3,0*
0 Add four circle primitives for the rounded corners*
1,1,$1+$1,$2,$3*
1,1,$1+$1,$4,$5*
1,1,$1+$1,$6,$7*
1,1,$1+$1,$8,$9*
0 Add four rect primitives between the rounded corners*
20,1,$1+$1,$2,$3,$4,$5,0*
20,1,$1+$1,$4,$5,$6,$7,0*
20,1,$1+$1,$6,$7,$8,$9,0*
20,1,$1+$1,$8,$9,$2,$3,0*%
G04 Aperture macros list end*
%ADD10R,1.200000X0.600000*%
%ADD11R,2.603250X0.650000*%
%ADD12R,0.650000X2.603250*%
%ADD13R,1.600000X2.200000*%
%ADD14RoundRect,0.250000X0.650000X-0.325000X0.650000X0.325000X-0.650000X0.325000X-0.650000X-0.325000X0*%
%ADD15RoundRect,0.225000X-0.225000X-0.250000X0.225000X-0.250000X0.225000X0.250000X-0.225000X0.250000X0*%
%ADD16R,1.300000X0.700000*%
%ADD17R,2.200000X1.400000*%
%ADD18R,1.700000X1.200000*%
%ADD19R,1.440000X0.600000*%
%ADD20R,1.500000X0.300000*%
G04 APERTURE END LIST*
D10*
%TO.C,U5*%
X199220000Y-130850000D03*
X199220000Y-131800000D03*
X199220000Y-132750000D03*
X201420000Y-132750000D03*
X201420000Y-131800000D03*
X201420000Y-130850000D03*
%TD*%
D11*
%TO.C,U1*%
X116481890Y-75223600D03*
X120381890Y-75223600D03*
X116481890Y-76493600D03*
X120381890Y-76493600D03*
X116481890Y-77763600D03*
X120381890Y-77763600D03*
X116481890Y-79033600D03*
X120381890Y-79033600D03*
X116481890Y-80303600D03*
X120381890Y-80303600D03*
X116481890Y-81573600D03*
X120381890Y-81573600D03*
X116481890Y-82843600D03*
X120381890Y-82843600D03*
X116481890Y-84113600D03*
X120381890Y-84113600D03*
X116481890Y-85383600D03*
X120381890Y-85383600D03*
X116481890Y-86653600D03*
X120381890Y-86653600D03*
X116481890Y-87923600D03*
X120381890Y-87923600D03*
X116481890Y-89193600D03*
X120381890Y-89193600D03*
X116481890Y-90463600D03*
X120381890Y-90463600D03*
X116481890Y-91733600D03*
X120381890Y-91733600D03*
X116481890Y-93003600D03*
X120381890Y-93003600D03*
X116481890Y-94273600D03*
X120381890Y-94273600D03*
X116481890Y-95543600D03*
X120381890Y-95543600D03*
X116481890Y-96813600D03*
X120381890Y-96813600D03*
X116481890Y-98083600D03*
X120381890Y-98083600D03*
X116481890Y-99353600D03*
X120381890Y-99353600D03*
X116481890Y-100623600D03*
X120381890Y-100623600D03*
X116481890Y-101893600D03*
X120381890Y-101893600D03*
X116481890Y-103163600D03*
X120381890Y-103163600D03*
X116481890Y-104433600D03*
X120381890Y-104433600D03*
X116471890Y-105713600D03*
X120371890Y-105713600D03*
X116481890Y-106973600D03*
X120381890Y-106973600D03*
X116481890Y-108243600D03*
X120381890Y-108243600D03*
X116481890Y-109513600D03*
X120381890Y-109513600D03*
X116481890Y-110783600D03*
X120381890Y-110783600D03*
X116481890Y-112053600D03*
X120381890Y-112053600D03*
X116481890Y-113323600D03*
X120381890Y-113323600D03*
X116481890Y-114593600D03*
X120381890Y-114593600D03*
X116481890Y-115863600D03*
X120381890Y-115863600D03*
X116481890Y-117133600D03*
X120381890Y-117133600D03*
X116481890Y-118403600D03*
X120381890Y-118403600D03*
X116481890Y-119673600D03*
X120381890Y-119673600D03*
X116481890Y-120943600D03*
X120381890Y-120943600D03*
X116476965Y-122213555D03*
X120376965Y-122213555D03*
D12*
X124688600Y-130403600D03*
X124688600Y-126503600D03*
X125958600Y-130403600D03*
X125958600Y-126503600D03*
X127228600Y-130403600D03*
X127228600Y-126503600D03*
X128498600Y-130403600D03*
X128498600Y-126503600D03*
X129768600Y-130403600D03*
X129768600Y-126503600D03*
X131038600Y-130403600D03*
X131038600Y-126503600D03*
X132308600Y-130403600D03*
X132308600Y-126503600D03*
X133578600Y-130403600D03*
X133578600Y-126503600D03*
X134848600Y-130403600D03*
X134848600Y-126503600D03*
X136118600Y-130403600D03*
X136118600Y-126503600D03*
X137388600Y-130403600D03*
X137388600Y-126503600D03*
X138658600Y-130403600D03*
X138658600Y-126503600D03*
X139928600Y-130403600D03*
X139928600Y-126503600D03*
X141198600Y-130403600D03*
X141198600Y-126503600D03*
X142468600Y-130403600D03*
X142468600Y-126503600D03*
X143738600Y-130403600D03*
X143738600Y-126503600D03*
X145008600Y-130403600D03*
X145008600Y-126503600D03*
X146278600Y-130403600D03*
X146278600Y-126503600D03*
X147548600Y-130403600D03*
X147548600Y-126503600D03*
X148818600Y-130403600D03*
X148818600Y-126503600D03*
X150088600Y-130403600D03*
X150088600Y-126503600D03*
X151358600Y-130403600D03*
X151358600Y-126503600D03*
X152628600Y-130403600D03*
X152628600Y-126503600D03*
X153898600Y-130403600D03*
X153898600Y-126503600D03*
X155178600Y-130413600D03*
X155178600Y-126513600D03*
X156438600Y-130403600D03*
X156438600Y-126503600D03*
X157708600Y-130403600D03*
X157708600Y-126503600D03*
X158978600Y-130403600D03*
X158978600Y-126503600D03*
X160248600Y-130403600D03*
X160248600Y-126503600D03*
X161518600Y-130403600D03*
X161518600Y-126503600D03*
X162788600Y-130403600D03*
X162788600Y-126503600D03*
X164058600Y-130403600D03*
X164058600Y-126503600D03*
X165328600Y-130403600D03*
X165328600Y-126503600D03*
X166598600Y-130403600D03*
X166598600Y-126503600D03*
X167868600Y-130403600D03*
X167868600Y-126503600D03*
X169138600Y-130403600D03*
X169138600Y-126503600D03*
X170408600Y-130403600D03*
X170408600Y-126503600D03*
X171678555Y-130408525D03*
X171678555Y-126508525D03*
D11*
X175988600Y-75213600D03*
X179888600Y-75213600D03*
X175988600Y-76483600D03*
X179888600Y-76483600D03*
X175988600Y-77753600D03*
X179888600Y-77753600D03*
X175988600Y-79023600D03*
X179888600Y-79023600D03*
X175988600Y-80293600D03*
X179888600Y-80293600D03*
X175988600Y-81563600D03*
X179888600Y-81563600D03*
X175988600Y-82833600D03*
X179888600Y-82833600D03*
X175988600Y-84103600D03*
X179888600Y-84103600D03*
X175988600Y-85373600D03*
X179888600Y-85373600D03*
X175988600Y-86643600D03*
X179888600Y-86643600D03*
X175988600Y-87913600D03*
X179888600Y-87913600D03*
X175988600Y-89183600D03*
X179888600Y-89183600D03*
X175988600Y-90453600D03*
X179888600Y-90453600D03*
X175988600Y-91723600D03*
X179888600Y-91723600D03*
X175988600Y-92993600D03*
X179888600Y-92993600D03*
X175988600Y-94263600D03*
X179888600Y-94263600D03*
X175988600Y-95533600D03*
X179888600Y-95533600D03*
X175988600Y-96803600D03*
X179888600Y-96803600D03*
X175988600Y-98073600D03*
X179888600Y-98073600D03*
X175988600Y-99343600D03*
X179888600Y-99343600D03*
X175988600Y-100613600D03*
X179888600Y-100613600D03*
X175988600Y-101883600D03*
X179888600Y-101883600D03*
X175988600Y-103153600D03*
X179888600Y-103153600D03*
X175988600Y-104423600D03*
X179888600Y-104423600D03*
X175978600Y-105703600D03*
X179878600Y-105703600D03*
X175988600Y-106963600D03*
X179888600Y-106963600D03*
X175988600Y-108233600D03*
X179888600Y-108233600D03*
X175988600Y-109503600D03*
X179888600Y-109503600D03*
X175988600Y-110773600D03*
X179888600Y-110773600D03*
X175988600Y-112043600D03*
X179888600Y-112043600D03*
X175988600Y-113313600D03*
X179888600Y-113313600D03*
X175988600Y-114583600D03*
X179888600Y-114583600D03*
X175988600Y-115853600D03*
X179888600Y-115853600D03*
X175988600Y-117123600D03*
X179888600Y-117123600D03*
X175988600Y-118393600D03*
X179888600Y-118393600D03*
X175988600Y-119663600D03*
X179888600Y-119663600D03*
X175988600Y-120933600D03*
X179888600Y-120933600D03*
X175983675Y-122203555D03*
X179883675Y-122203555D03*
D12*
X124678600Y-70903600D03*
X124678600Y-67003600D03*
X125948600Y-70903600D03*
X125948600Y-67003600D03*
X127218600Y-70903600D03*
X127218600Y-67003600D03*
X128488600Y-70903600D03*
X128488600Y-67003600D03*
X129758600Y-70903600D03*
X129758600Y-67003600D03*
X131028600Y-70903600D03*
X131028600Y-67003600D03*
X132298600Y-70903600D03*
X132298600Y-67003600D03*
X133568600Y-70903600D03*
X133568600Y-67003600D03*
X134838600Y-70903600D03*
X134838600Y-67003600D03*
X136108600Y-70903600D03*
X136108600Y-67003600D03*
X137378600Y-70903600D03*
X137378600Y-67003600D03*
X138648600Y-70903600D03*
X138648600Y-67003600D03*
X139918600Y-70903600D03*
X139918600Y-67003600D03*
X141188600Y-70903600D03*
X141188600Y-67003600D03*
X142458600Y-70903600D03*
X142458600Y-67003600D03*
X143728600Y-70903600D03*
X143728600Y-67003600D03*
X144998600Y-70903600D03*
X144998600Y-67003600D03*
X146268600Y-70903600D03*
X146268600Y-67003600D03*
X147538600Y-70903600D03*
X147538600Y-67003600D03*
X148808600Y-70903600D03*
X148808600Y-67003600D03*
X150078600Y-70903600D03*
X150078600Y-67003600D03*
X151348600Y-70903600D03*
X151348600Y-67003600D03*
X152618600Y-70903600D03*
X152618600Y-67003600D03*
X153888600Y-70903600D03*
X153888600Y-67003600D03*
X155168600Y-70913600D03*
X155168600Y-67013600D03*
X156428600Y-70903600D03*
X156428600Y-67003600D03*
X157698600Y-70903600D03*
X157698600Y-67003600D03*
X158968600Y-70903600D03*
X158968600Y-67003600D03*
X160238600Y-70903600D03*
X160238600Y-67003600D03*
X161508600Y-70903600D03*
X161508600Y-67003600D03*
X162778600Y-70903600D03*
X162778600Y-67003600D03*
X164048600Y-70903600D03*
X164048600Y-67003600D03*
X165318600Y-70903600D03*
X165318600Y-67003600D03*
X166588600Y-70903600D03*
X166588600Y-67003600D03*
X167858600Y-70903600D03*
X167858600Y-67003600D03*
X169128600Y-70903600D03*
X169128600Y-67003600D03*
X170398600Y-70903600D03*
X170398600Y-67003600D03*
X171668555Y-70908525D03*
X171668555Y-67008525D03*
%TD*%
D13*
%TO.C,J6*%
X210620000Y-62490000D03*
X210620000Y-69590000D03*
X213820000Y-62490000D03*
X213820000Y-69590000D03*
X207120000Y-62490000D03*
X207120000Y-69590000D03*
%TD*%
D14*
%TO.C,C41*%
X192220000Y-133275000D03*
X192220000Y-130325000D03*
%TD*%
D15*
%TO.C,C40*%
X194675000Y-129250000D03*
X196225000Y-129250000D03*
%TD*%
D16*
%TO.C,J5*%
X109550000Y-71940000D03*
X109550000Y-70840000D03*
X109550000Y-69740000D03*
X109550000Y-68640000D03*
X109550000Y-67540000D03*
X109550000Y-66440000D03*
X109550000Y-65340000D03*
X109550000Y-64240000D03*
X109550000Y-63140000D03*
D17*
X99000000Y-61620000D03*
D18*
X108700000Y-62040000D03*
X108700000Y-76720000D03*
D17*
X99000000Y-77140000D03*
%TD*%
D10*
%TO.C,Q1*%
X196550000Y-132750000D03*
X194350000Y-131800000D03*
X196550000Y-130850000D03*
%TD*%
D19*
%TO.C,J8*%
X208630000Y-135025000D03*
X208630000Y-134225000D03*
D20*
X208660000Y-133075000D03*
X208660000Y-132075000D03*
X208660000Y-131575000D03*
X208660000Y-130575000D03*
D19*
X208630000Y-129425000D03*
X208630000Y-128625000D03*
D20*
X208660000Y-130075000D03*
X208660000Y-131075000D03*
X208660000Y-132575000D03*
X208660000Y-133575000D03*
%TD*%
M02*
