M48
; DRILL file {KiCad 9.0.0} date 2025-05-16T22:45:06-0400
; FORMAT={-:-/ absolute / metric / decimal}
; #@! TF.CreationDate,2025-05-16T22:45:06-04:00
; #@! TF.GenerationSoftware,Kicad,Pcbnew,9.0.0
; #@! TF.FileFunction,Plated,1,4,PTH
FMAT,2
METRIC
; #@! TA.AperFunction,Plated,PTH,ViaDrill
T1C0.200
; #@! TA.AperFunction,Plated,PTH,ViaDrill
T2C0.300
; #@! TA.AperFunction,Plated,PTH,ComponentDrill
T3C0.600
; #@! TA.AperFunction,Plated,PTH,ComponentDrill
T4C0.750
; #@! TA.AperFunction,Plated,PTH,ComponentDrill
T5C0.800
; #@! TA.AperFunction,Plated,PTH,ComponentDrill
T6C0.813
; #@! TA.AperFunction,Plated,PTH,ComponentDrill
T7C0.900
; #@! TA.AperFunction,Plated,PTH,ComponentDrill
T8C0.920
; #@! TA.AperFunction,Plated,PTH,ComponentDrill
T9C1.000
; #@! TA.AperFunction,Plated,PTH,ComponentDrill
T10C1.016
; #@! TA.AperFunction,Plated,PTH,ComponentDrill
T11C1.020
; #@! TA.AperFunction,Plated,PTH,ComponentDrill
T12C1.041
; #@! TA.AperFunction,Plated,PTH,ComponentDrill
T13C1.100
; #@! TA.AperFunction,Plated,PTH,ComponentDrill
T14C1.600
; #@! TA.AperFunction,Plated,PTH,ComponentDrill
T15C2.300
; #@! TA.AperFunction,Plated,PTH,ComponentDrill
T16C3.200
; #@! TA.AperFunction,Plated,PTH,ComponentDrill
T17C3.251
%
G90
G05
T1
X96.47Y-71.71
X96.47Y-75.39
X96.475Y-79.4
X98.01Y-71.14
X98.01Y-74.77
X98.01Y-80.3
X100.0Y-137.8
X100.1Y-59.9
X100.45Y-75.39
X100.825Y-77.15
X101.07Y-120.86
X101.08Y-118.47
X101.14Y-125.45
X101.14Y-129.59
X101.975Y-78.13
X103.37Y-131.89
X103.45Y-73.35
X103.86Y-121.335
X104.315Y-128.73
X104.325Y-124.87
X105.09Y-92.98
X107.4Y-121.95
X107.4Y-126.79
X108.375Y-74.6
X108.67Y-68.66
X109.024Y-73.95
X110.0Y-137.8
X110.1Y-59.9
X112.06Y-85.4
X112.06Y-98.72
X112.53Y-84.11
X112.535Y-97.45
X112.74Y-126.57
X113.01Y-109.445
X113.3Y-134.8
X113.485Y-98.07
X113.485Y-117.04
X113.775Y-120.86
X113.775Y-134.325
X113.85Y-76.494
X113.85Y-83.47
X113.96Y-95.544
X113.96Y-115.35
X114.186Y-133.85
X114.95Y-76.494
X114.95Y-84.12
X114.95Y-85.384
X114.95Y-93.01
X114.95Y-113.32
X116.482Y-95.544
X116.482Y-98.084
X119.9Y-137.8
X120.0Y-59.9
X121.6Y-133.22
X121.61Y-129.74
X121.9Y-105.72
X121.91Y-76.5
X121.91Y-77.77
X121.91Y-79.04
X121.91Y-80.31
X121.91Y-81.58
X121.91Y-82.84
X121.91Y-84.12
X121.91Y-85.38
X121.91Y-86.66
X121.91Y-87.93
X121.91Y-94.28
X121.91Y-95.55
X121.91Y-96.82
X121.91Y-98.08
X121.91Y-99.35
X121.91Y-100.62
X121.91Y-101.89
X121.91Y-103.17
X121.91Y-104.434
X121.91Y-106.97
X121.91Y-108.26
X121.91Y-109.52
X121.91Y-110.78
X121.91Y-112.05
X121.91Y-113.33
X124.63Y-108.87
X124.7Y-118.46
X124.75Y-119.77
X125.94Y-74.45
X127.605Y-89.83
X127.605Y-91.04
X128.93Y-117.05
X130.1Y-137.8
X130.2Y-59.9
X130.94Y-97.78
X130.95Y-94.64
X131.38Y-118.46
X132.06Y-111.6
X132.06Y-116.2
X132.5Y-94.6
X132.5Y-97.262
X133.59Y-118.45
X134.64Y-114.26
X134.66Y-109.34
X136.61Y-118.45
X137.03Y-73.41
X137.43Y-86.93
X137.9Y-91.65
X137.99Y-79.77
X138.4Y-116.94
X138.407Y-111.386
X138.81Y-85.94
X138.85Y-73.41
X138.878Y-115.363
X138.9Y-111.044
X139.29Y-133.85
X139.294Y-128.48
X139.34Y-117.625
X139.35Y-122.9
X140.0Y-137.8
X140.1Y-59.9
X140.35Y-73.41
X140.4Y-85.44
X140.4Y-91.2
X141.88Y-73.41
X141.89Y-74.47
X141.91Y-86.93
X141.91Y-91.67
X141.92Y-84.94
X142.4Y-91.324
X142.43Y-83.91
X142.585Y-114.255
X142.89Y-112.86
X142.9Y-91.66
X142.9Y-111.361
X142.91Y-85.94
X143.4Y-73.41
X143.4Y-74.47
X143.4Y-111.002
X143.405Y-91.337
X143.41Y-84.41
X143.41Y-85.46
X143.73Y-65.49
X143.9Y-84.94
X143.9Y-91.682
X144.159Y-74.45
X144.159Y-81.18
X144.159Y-83.91
X144.406Y-91.36
X144.44Y-84.44
X144.92Y-73.41
X144.92Y-74.47
X145.9Y-91.66
X146.408Y-91.341
X146.41Y-73.41
X146.44Y-74.47
X146.902Y-91.682
X147.43Y-91.29
X147.94Y-73.41
X148.39Y-86.07
X148.4Y-91.65
X148.898Y-91.315
X148.9Y-89.45
X149.09Y-87.17
X149.49Y-73.41
X149.71Y-119.81
X150.0Y-137.8
X150.08Y-72.42
X150.1Y-59.9
X150.33Y-79.76
X153.005Y-87.505
X153.4Y-75.165
X153.4Y-75.74
X153.4Y-76.315
X153.5Y-101.787
X153.528Y-98.787
X153.53Y-107.287
X153.53Y-109.77
X153.58Y-87.505
X154.0Y-106.787
X154.005Y-109.295
X154.09Y-102.3
X154.155Y-87.505
X154.28Y-112.86
X154.322Y-83.695
X154.511Y-108.815
X154.518Y-102.804
X154.63Y-101.287
X154.828Y-84.17
X154.838Y-103.312
X155.311Y-103.779
X155.335Y-84.645
X155.696Y-104.254
X155.81Y-85.12
X156.23Y-106.287
X156.285Y-85.595
X156.439Y-131.92
X156.7Y-73.95
X156.96Y-105.065
X157.71Y-134.33
X158.38Y-109.8
X158.38Y-116.73
X158.93Y-102.85
X158.93Y-105.795
X158.97Y-124.495
X158.979Y-131.92
X159.04Y-91.52
X159.04Y-95.045
X160.1Y-137.8
X160.2Y-59.9
X160.249Y-125.0
X160.249Y-131.92
X160.47Y-102.85
X160.47Y-104.36
X161.425Y-93.83
X161.519Y-123.741
X161.519Y-132.33
X163.46Y-103.62
X163.48Y-97.6
X163.72Y-109.87
X163.72Y-116.73
X164.21Y-86.07
X164.22Y-80.885
X166.08Y-82.26
X166.1Y-96.15
X166.59Y-89.5
X166.6Y-80.885
X167.36Y-105.96
X167.36Y-123.7
X167.86Y-108.88
X169.145Y-104.565
X169.145Y-105.14
X169.145Y-105.715
X170.0Y-137.8
X170.1Y-59.9
X170.34Y-115.19
X170.34Y-118.52
X172.735Y-104.58
X172.735Y-105.155
X172.735Y-105.73
X173.24Y-115.19
X173.25Y-132.3
X173.58Y-83.47
X173.58Y-86.64
X173.875Y-123.75
X173.875Y-127.91
X174.38Y-95.54
X174.46Y-84.1
X174.46Y-89.18
X174.46Y-108.23
X174.46Y-119.66
X174.46Y-120.934
X174.46Y-122.204
X177.51Y-85.38
X177.51Y-86.64
X177.51Y-87.92
X178.46Y-73.95
X180.0Y-137.8
X180.1Y-59.9
X181.41Y-82.834
X181.41Y-84.1
X181.41Y-85.37
X181.41Y-86.64
X181.41Y-89.18
X181.41Y-92.99
X181.41Y-94.27
X181.41Y-95.54
X181.41Y-108.234
X181.41Y-119.664
X182.51Y-96.635
X182.51Y-99.82
X183.035Y-91.54
X183.035Y-101.33
X183.385Y-65.34
X183.385Y-77.05
X183.56Y-98.93
X183.56Y-108.83
X183.91Y-64.775
X183.92Y-77.89
X184.035Y-92.99
X184.035Y-123.09
X184.43Y-88.94
X184.435Y-73.975
X184.51Y-94.3
X184.52Y-123.701
X185.43Y-115.19
X185.44Y-118.52
X187.23Y-71.21
X187.245Y-96.087
X189.19Y-129.61
X189.19Y-134.88
X190.0Y-137.8
X190.1Y-59.9
X190.46Y-121.48
X190.465Y-124.28
X192.115Y-124.28
X192.12Y-127.91
X193.12Y-86.61
X193.12Y-109.2
X193.15Y-122.87
X193.15Y-124.17
X193.5Y-110.72
X193.57Y-87.51
X193.98Y-114.51
X194.01Y-112.24
X194.02Y-83.49
X194.46Y-113.76
X194.47Y-87.06
X194.48Y-115.89
X194.92Y-104.07
X194.93Y-83.94
X195.349Y-104.51
X195.37Y-88.33
X195.82Y-88.93
X196.02Y-122.88
X197.36Y-110.74
X197.37Y-130.85
X197.38Y-132.75
X199.21Y-129.59
X199.89Y-84.3
X199.9Y-104.06
X199.91Y-108.36
X199.98Y-65.34
X199.98Y-67.27
X200.0Y-137.8
X200.1Y-59.9
X200.385Y-104.58
X200.385Y-114.28
X200.57Y-130.85
X200.75Y-64.775
X200.76Y-69.6
X201.42Y-129.29
X201.42Y-135.31
X202.235Y-132.735
X202.95Y-79.62
X202.95Y-93.88
X204.96Y-134.56
X205.02Y-128.58
X207.12Y-69.59
X207.69Y-129.415
X207.69Y-134.215
X208.22Y-80.65
X208.42Y-110.71
X209.64Y-130.08
X209.64Y-133.08
X210.0Y-137.8
X210.1Y-59.9
X210.62Y-67.3
X213.82Y-62.49
X213.82Y-69.59
T2
X99.0Y-61.62
X106.07Y-63.53
X106.07Y-65.05
X106.07Y-66.57
X106.07Y-68.09
X106.07Y-69.61
X106.07Y-71.13
X106.07Y-72.65
X123.625Y-67.004
X129.124Y-65.376
X130.393Y-65.375
X131.345Y-123.305
X131.664Y-65.375
X132.169Y-123.281
X132.934Y-65.375
X134.204Y-65.376
X134.849Y-128.07
X134.85Y-132.97
X135.474Y-65.376
X138.85Y-77.435
X139.4Y-95.475
X140.37Y-77.435
X141.89Y-77.435
X141.9Y-107.175
X143.4Y-116.15
X143.41Y-77.435
X144.9Y-95.5
X144.93Y-77.435
X144.999Y-65.4
X145.0Y-69.3
X146.025Y-117.887
X146.269Y-65.4
X146.269Y-69.3
X146.4Y-111.002
X146.4Y-113.725
X146.45Y-77.435
X147.539Y-65.38
X147.539Y-69.3
X147.97Y-77.435
X148.809Y-69.29
X149.49Y-77.435
X149.68Y-106.66
X150.35Y-97.275
X150.55Y-117.912
X150.625Y-113.725
X150.625Y-116.188
X157.709Y-124.61
X158.22Y-96.43
X165.319Y-65.41
X166.589Y-72.48
X169.129Y-65.41
X175.989Y-74.59
X179.889Y-74.59
X191.42Y-134.69
X192.22Y-134.69
X193.0Y-134.69
X208.29Y-123.4
X208.29Y-125.44
X209.19Y-124.44
T5
X105.35Y-109.26
X105.35Y-111.26
T6
X188.73Y-120.249
X188.73Y-126.751
T7
X196.16Y-106.9
X196.16Y-109.44
X196.16Y-111.98
X196.16Y-114.52
X198.7Y-108.17
X198.7Y-110.71
X198.7Y-113.25
X198.7Y-115.79
T8
X197.578Y-123.222
X199.578Y-123.222
X201.578Y-123.222
X203.578Y-123.222
T9
X108.6Y-121.95
X108.6Y-124.45
X108.6Y-126.45
X108.6Y-128.95
X111.2Y-121.95
X111.2Y-124.45
X111.2Y-126.45
X111.2Y-128.95
T10
X186.28Y-69.67
X186.28Y-72.21
X186.28Y-74.75
X186.28Y-77.29
X186.28Y-79.83
X186.28Y-82.37
X186.28Y-84.91
X186.28Y-87.45
X186.28Y-89.99
X186.28Y-92.53
X186.28Y-95.07
X186.28Y-97.61
X186.28Y-100.15
X188.82Y-69.67
X188.82Y-72.21
X188.82Y-74.75
X188.82Y-77.29
X188.82Y-79.83
X188.82Y-82.37
X188.82Y-84.91
X188.82Y-87.45
X188.82Y-89.99
X188.82Y-92.53
X188.82Y-95.07
X188.82Y-97.61
X188.82Y-100.15
T11
X208.43Y-105.02
X208.43Y-115.13
X209.95Y-107.56
X209.95Y-117.67
T12
X103.727Y-89.8
X103.727Y-92.543
X103.727Y-95.287
X103.727Y-98.03
X103.727Y-100.773
X103.727Y-103.516
X103.727Y-106.259
X106.572Y-88.429
X106.572Y-91.172
X106.572Y-93.915
X106.572Y-96.658
X106.572Y-99.401
X106.572Y-102.145
X106.572Y-104.888
X106.572Y-107.631
T13
X201.69Y-83.172
X201.69Y-85.462
X201.69Y-87.752
X201.69Y-90.042
X201.69Y-92.332
X204.23Y-82.027
X204.23Y-84.317
X204.23Y-86.607
X204.23Y-88.897
X204.23Y-91.187
X206.77Y-83.172
X206.77Y-85.462
X206.77Y-87.752
X206.77Y-90.042
X206.77Y-92.332
T14
X202.0Y-103.47
X202.0Y-119.22
T15
X105.75Y-118.95
X105.75Y-131.95
X111.55Y-118.9
X111.55Y-132.0
T16
X204.23Y-74.685
X204.23Y-99.674
T17
X105.15Y-81.367
X105.15Y-114.692
T3
X208.86Y-127.5G85X209.96Y-127.5
G05
X208.86Y-136.15G85X209.96Y-136.15
G05
X213.19Y-127.5G85X213.99Y-127.5
G05
X213.19Y-136.15G85X213.99Y-136.15
G05
T4
X196.833Y-120.487G85X197.783Y-120.487
G05
X196.833Y-125.957G85X197.783Y-125.957
G05
X203.833Y-120.487G85X204.783Y-120.487
G05
X203.833Y-125.957G85X204.783Y-125.957
G05
M30
