%TF.GenerationSoftware,KiCad,Pcbnew,9.0.0*%
%TF.CreationDate,2025-05-16T15:19:14-04:00*%
%TF.ProjectId,Rear Plate,52656172-2050-46c6-9174-652e6b696361,rev?*%
%TF.SameCoordinates,Original*%
%TF.FileFunction,Soldermask,Bot*%
%TF.FilePolarity,Negative*%
%FSLAX46Y46*%
G04 Gerber Fmt 4.6, Leading zero omitted, Abs format (unit mm)*
G04 Created by KiCad (PCBNEW 9.0.0) date 2025-05-16 15:19:14*
%MOMM*%
%LPD*%
G01*
G04 APERTURE LIST*
%ADD10C,5.000000*%
%ADD11C,4.500000*%
G04 APERTURE END LIST*
D10*
%TO.C,REF\u002A\u002A*%
X97728780Y-78726580D03*
X173728880Y-78726580D03*
X97728780Y-97726550D03*
X173728880Y-97726550D03*
%TD*%
D11*
%TO.C,REF\u002A\u002A*%
X134544500Y-86282010D03*
X159544450Y-86282010D03*
%TD*%
G36*
X174381116Y-74023008D02*
G01*
X174409963Y-74026428D01*
X174959143Y-74158147D01*
X174977693Y-74164173D01*
X175541325Y-74397742D01*
X175558628Y-74406559D01*
X176078939Y-74725296D01*
X176094698Y-74736744D01*
X176558640Y-75133003D01*
X176572396Y-75146759D01*
X176968661Y-75610709D01*
X176980096Y-75626446D01*
X177298816Y-76146486D01*
X177307670Y-76163869D01*
X177541012Y-76727765D01*
X177547003Y-76746212D01*
X177689510Y-77339400D01*
X177692557Y-77358617D01*
X177721356Y-77723773D01*
X177721740Y-77733631D01*
X177703091Y-98956243D01*
X177702707Y-98965888D01*
X177692557Y-99094518D01*
X177689510Y-99113730D01*
X177547004Y-99706910D01*
X177541005Y-99725375D01*
X177307664Y-100289019D01*
X177298832Y-100306361D01*
X176980102Y-100826670D01*
X176968653Y-100842430D01*
X176572396Y-101306370D01*
X176558640Y-101320126D01*
X176094698Y-101716385D01*
X176078938Y-101727833D01*
X175558644Y-102046559D01*
X175541300Y-102055393D01*
X174977654Y-102288726D01*
X174959192Y-102294724D01*
X174366015Y-102437238D01*
X174346792Y-102440286D01*
X173853000Y-102479207D01*
X173843404Y-102479590D01*
X173760462Y-102479689D01*
X173744192Y-102476600D01*
X102478999Y-102476600D01*
X97733797Y-102488777D01*
X97723775Y-102488397D01*
X97110899Y-102440285D01*
X97091636Y-102437234D01*
X96498477Y-102294724D01*
X96480015Y-102288726D01*
X95916370Y-102055394D01*
X95899026Y-102046561D01*
X95378719Y-101727832D01*
X95362959Y-101716383D01*
X94899019Y-101320126D01*
X94885263Y-101306370D01*
X94489006Y-100842430D01*
X94477557Y-100826670D01*
X94158828Y-100306363D01*
X94149995Y-100289019D01*
X93916663Y-99725374D01*
X93910665Y-99706912D01*
X93768151Y-99113734D01*
X93765103Y-99094511D01*
X93720715Y-98531368D01*
X93728790Y-98477514D01*
X93725455Y-92868546D01*
X93725455Y-92868147D01*
X93731717Y-90480020D01*
X98294446Y-90480020D01*
X98294446Y-91179979D01*
X98296977Y-91296145D01*
X98296978Y-91296147D01*
X98337310Y-91524886D01*
X98416754Y-91743153D01*
X98416757Y-91743160D01*
X98532891Y-91944311D01*
X98682198Y-92122247D01*
X98860134Y-92271554D01*
X99061285Y-92387688D01*
X99061292Y-92387691D01*
X99279559Y-92467135D01*
X99508298Y-92507467D01*
X99508300Y-92507468D01*
X99624466Y-92510000D01*
X106074442Y-92510000D01*
X106190601Y-92507616D01*
X106419371Y-92467279D01*
X106637663Y-92387827D01*
X106637670Y-92387824D01*
X106838843Y-92271677D01*
X107016799Y-92122354D01*
X107016802Y-92122352D01*
X107166120Y-91944403D01*
X107166125Y-91944396D01*
X107282272Y-91743223D01*
X107282275Y-91743216D01*
X107361729Y-91524920D01*
X107402066Y-91296155D01*
X107404446Y-91180000D01*
X107404446Y-90477313D01*
X107402062Y-90361156D01*
X107361724Y-90132389D01*
X107282269Y-89914088D01*
X107282268Y-89914087D01*
X107166122Y-89712916D01*
X107166117Y-89712909D01*
X107016799Y-89534960D01*
X107016796Y-89534958D01*
X106838841Y-89385636D01*
X106637668Y-89269489D01*
X106637661Y-89269486D01*
X106419370Y-89190034D01*
X106190603Y-89149697D01*
X106190597Y-89149696D01*
X106074437Y-89147309D01*
X99624465Y-89150000D01*
X99508300Y-89152531D01*
X99508298Y-89152532D01*
X99279559Y-89192864D01*
X99061292Y-89272308D01*
X99061285Y-89272311D01*
X98860134Y-89388445D01*
X98682198Y-89537752D01*
X98532891Y-89715688D01*
X98416757Y-89916839D01*
X98416754Y-89916846D01*
X98337310Y-90135113D01*
X98296978Y-90363852D01*
X98296977Y-90363854D01*
X98294446Y-90480020D01*
X93731717Y-90480020D01*
X93761010Y-79309495D01*
X108520983Y-79309495D01*
X108520983Y-91290505D01*
X108523159Y-91363796D01*
X108561107Y-91505425D01*
X108634417Y-91632399D01*
X108634419Y-91632402D01*
X108738089Y-91736072D01*
X108738092Y-91736074D01*
X108865066Y-91809384D01*
X109006695Y-91847332D01*
X109079987Y-91849509D01*
X113680013Y-91849509D01*
X113753300Y-91847333D01*
X113753306Y-91847332D01*
X113894933Y-91809383D01*
X113894938Y-91809380D01*
X114021903Y-91736078D01*
X114021911Y-91736072D01*
X114125579Y-91632402D01*
X114125582Y-91632398D01*
X114198892Y-91505425D01*
X114236840Y-91363795D01*
X114239017Y-91290504D01*
X114239017Y-81059983D01*
X115520000Y-81059983D01*
X115520000Y-91538369D01*
X115522582Y-91630633D01*
X115522583Y-91630639D01*
X115563656Y-91810587D01*
X115643736Y-91976875D01*
X115758817Y-92121182D01*
X115903124Y-92236263D01*
X116069412Y-92316343D01*
X116249360Y-92357416D01*
X116249366Y-92357417D01*
X116341630Y-92360000D01*
X129698370Y-92360000D01*
X129790633Y-92357417D01*
X129790639Y-92357416D01*
X129970587Y-92316343D01*
X130136877Y-92236262D01*
X130136880Y-92236260D01*
X130281181Y-92121181D01*
X130396260Y-91976880D01*
X130396262Y-91976877D01*
X130476343Y-91810587D01*
X130517416Y-91630639D01*
X130517417Y-91630633D01*
X130520000Y-91538369D01*
X130520714Y-83451974D01*
X136781294Y-83451974D01*
X136781579Y-83453970D01*
X136822164Y-83864828D01*
X136821355Y-83872291D01*
X136823984Y-83887058D01*
X136824673Y-83892043D01*
X136825498Y-83895557D01*
X137831760Y-89548208D01*
X137832268Y-89551289D01*
X137851201Y-89675738D01*
X137852547Y-89679662D01*
X137974254Y-90081135D01*
X138208794Y-90519797D01*
X138523312Y-90903077D01*
X138906706Y-91217690D01*
X139345291Y-91452178D01*
X139811576Y-91593591D01*
X139811754Y-91593662D01*
X139812355Y-91593837D01*
X139813778Y-91594259D01*
X139820832Y-91596398D01*
X140308516Y-91644235D01*
X140314092Y-91644970D01*
X153734362Y-91632802D01*
X153773691Y-91639167D01*
X153780770Y-91641527D01*
X153785608Y-91643252D01*
X153787926Y-91644133D01*
X153794898Y-91642975D01*
X154268129Y-91596397D01*
X154274123Y-91594580D01*
X154275767Y-91594093D01*
X154276824Y-91593788D01*
X154277112Y-91593673D01*
X154744248Y-91452003D01*
X155182276Y-91217671D01*
X155565647Y-90903077D01*
X155880165Y-90519798D01*
X156114717Y-90081092D01*
X156124146Y-90050000D01*
X166017530Y-90050000D01*
X166037254Y-90369811D01*
X166096131Y-90684775D01*
X166096132Y-90684777D01*
X166193266Y-90990112D01*
X166327192Y-91281212D01*
X166495863Y-91553626D01*
X166495877Y-91553646D01*
X166696747Y-91803269D01*
X166926786Y-92026330D01*
X167182488Y-92219427D01*
X167459984Y-92379638D01*
X167755049Y-92504529D01*
X167755072Y-92504537D01*
X168063239Y-92592218D01*
X168379880Y-92641369D01*
X168700144Y-92651236D01*
X169019195Y-92621671D01*
X169019201Y-92621670D01*
X169332200Y-92553123D01*
X169634412Y-92446626D01*
X169921227Y-92303809D01*
X169921248Y-92303797D01*
X170188339Y-92126815D01*
X170188345Y-92126810D01*
X170431657Y-91918355D01*
X170431670Y-91918342D01*
X170647528Y-91681557D01*
X170647536Y-91681547D01*
X170832653Y-91420041D01*
X170832669Y-91420015D01*
X170984247Y-91137741D01*
X170984255Y-91137723D01*
X171100000Y-90838954D01*
X171178158Y-90528199D01*
X171217534Y-90210208D01*
X171220000Y-90050000D01*
X171217534Y-89889791D01*
X171178158Y-89571800D01*
X171100000Y-89261045D01*
X170984255Y-88962276D01*
X170984247Y-88962258D01*
X170832669Y-88679984D01*
X170832653Y-88679958D01*
X170647536Y-88418452D01*
X170647528Y-88418442D01*
X170431670Y-88181657D01*
X170431657Y-88181644D01*
X170188345Y-87973189D01*
X170188339Y-87973184D01*
X169921248Y-87796202D01*
X169921227Y-87796190D01*
X169634412Y-87653373D01*
X169332199Y-87546876D01*
X169332200Y-87546876D01*
X169019201Y-87478329D01*
X169019195Y-87478328D01*
X168700141Y-87448763D01*
X168379880Y-87458630D01*
X168063239Y-87507781D01*
X167755072Y-87595462D01*
X167755049Y-87595470D01*
X167459984Y-87720361D01*
X167182488Y-87880572D01*
X166926786Y-88073669D01*
X166696747Y-88296730D01*
X166495877Y-88546353D01*
X166495863Y-88546373D01*
X166327192Y-88818787D01*
X166193266Y-89109887D01*
X166096132Y-89415222D01*
X166096131Y-89415224D01*
X166037254Y-89730188D01*
X166017530Y-90050000D01*
X156124146Y-90050000D01*
X156258904Y-89605651D01*
X156259044Y-89604226D01*
X156259047Y-89604201D01*
X156259048Y-89604187D01*
X156263838Y-89555190D01*
X156265113Y-89545839D01*
X157251150Y-83922527D01*
X157262230Y-83893258D01*
X157265394Y-83882047D01*
X157265660Y-83876651D01*
X157306868Y-83459161D01*
X157306874Y-83459126D01*
X157306901Y-83458820D01*
X157307579Y-83451945D01*
X157306954Y-83445603D01*
X157306899Y-83444976D01*
X157306884Y-83444889D01*
X157259049Y-82959825D01*
X157259041Y-82959672D01*
X157258999Y-82959329D01*
X157258870Y-82958028D01*
X157114839Y-82483360D01*
X157114177Y-82481654D01*
X156880199Y-82044024D01*
X156565587Y-81660631D01*
X156184412Y-81348100D01*
X156183279Y-81347073D01*
X156181824Y-81345938D01*
X156181299Y-81345574D01*
X155744250Y-81111757D01*
X155268769Y-80967558D01*
X155265519Y-80967364D01*
X154775617Y-80919050D01*
X154774638Y-80919050D01*
X139354565Y-80930962D01*
X139315265Y-80924602D01*
X139311208Y-80923250D01*
X139305525Y-80921200D01*
X139301503Y-80919638D01*
X139294729Y-80920731D01*
X138823396Y-80967368D01*
X138820162Y-80967564D01*
X138344707Y-81111757D01*
X137907786Y-81345507D01*
X137906716Y-81346248D01*
X137906141Y-81346695D01*
X137904940Y-81347777D01*
X137523340Y-81660658D01*
X137208775Y-82043994D01*
X136974422Y-82482329D01*
X136830091Y-82957987D01*
X136829978Y-82959139D01*
X136829914Y-82959659D01*
X136829901Y-82959929D01*
X136781562Y-83450083D01*
X136781294Y-83451974D01*
X130520714Y-83451974D01*
X130520925Y-81060672D01*
X130518538Y-80968339D01*
X130477459Y-80788356D01*
X130397359Y-80622026D01*
X130397356Y-80622021D01*
X130282249Y-80477682D01*
X130137908Y-80362573D01*
X129971580Y-80282473D01*
X129791587Y-80241390D01*
X129699266Y-80239006D01*
X116341630Y-80238353D01*
X116249366Y-80240935D01*
X116249360Y-80240936D01*
X116069412Y-80282009D01*
X115903124Y-80362089D01*
X115758817Y-80477170D01*
X115643736Y-80621477D01*
X115563656Y-80787765D01*
X115522583Y-80967713D01*
X115522582Y-80967719D01*
X115520000Y-81059983D01*
X114239017Y-81059983D01*
X114239017Y-79309521D01*
X114236825Y-79236201D01*
X114198881Y-79094576D01*
X114125577Y-78967604D01*
X114125575Y-78967601D01*
X114021903Y-78863927D01*
X114021901Y-78863926D01*
X113894929Y-78790617D01*
X113753306Y-78752668D01*
X113753300Y-78752667D01*
X113680013Y-78750492D01*
X109079987Y-78750492D01*
X109006695Y-78752668D01*
X108865066Y-78790616D01*
X108738092Y-78863926D01*
X108738089Y-78863928D01*
X108634419Y-78967598D01*
X108634417Y-78967601D01*
X108561107Y-79094575D01*
X108523159Y-79236204D01*
X108520983Y-79309495D01*
X93761010Y-79309495D01*
X93766116Y-77362220D01*
X93769547Y-77333577D01*
X93910665Y-76746216D01*
X93916663Y-76727755D01*
X94149995Y-76164110D01*
X94158828Y-76146766D01*
X94477557Y-75626459D01*
X94489006Y-75610699D01*
X94885263Y-75146759D01*
X94899019Y-75133003D01*
X95362959Y-74736746D01*
X95378719Y-74725297D01*
X95899044Y-74406558D01*
X95916346Y-74397743D01*
X96479976Y-74164174D01*
X96498526Y-74158147D01*
X97091676Y-74015882D01*
X97110853Y-74012845D01*
X97557474Y-73977640D01*
X97567292Y-73977257D01*
X174381116Y-74023008D01*
G37*
M02*
