%TF.GenerationSoftware,KiCad,Pcbnew,9.0.0*%
%TF.CreationDate,2025-05-16T15:19:14-04:00*%
%TF.ProjectId,Rear Plate,52656172-2050-46c6-9174-652e6b696361,rev?*%
%TF.SameCoordinates,Original*%
%TF.FileFunction,Copper,L2,Bot*%
%TF.FilePolarity,Positive*%
%FSLAX46Y46*%
G04 Gerber Fmt 4.6, Leading zero omitted, Abs format (unit mm)*
G04 Created by KiCad (PCBNEW 9.0.0) date 2025-05-16 15:19:14*
%MOMM*%
%LPD*%
G01*
G04 APERTURE LIST*
%TA.AperFunction,ComponentPad*%
%ADD10C,5.000000*%
%TD*%
%TA.AperFunction,ComponentPad*%
%ADD11C,4.500000*%
%TD*%
G04 APERTURE END LIST*
D10*
%TO.P,REF\u002A\u002A,1*%
%TO.N,GND*%
X97728780Y-78726580D03*
%TO.P,REF\u002A\u002A,2*%
X173728880Y-78726580D03*
%TO.P,REF\u002A\u002A,3*%
X97728780Y-97726550D03*
%TO.P,REF\u002A\u002A,4*%
X173728880Y-97726550D03*
%TD*%
D11*
%TO.P,REF\u002A\u002A,1*%
%TO.N,GND*%
X134544500Y-86282010D03*
X159544450Y-86282010D03*
%TD*%
%TA.AperFunction,Conductor*%
%TO.N,GND*%
G36*
X173714850Y-74465028D02*
G01*
X174268291Y-74508703D01*
X174287446Y-74511737D01*
X174804017Y-74635635D01*
X174822560Y-74641659D01*
X175313407Y-74845065D01*
X175330701Y-74853877D01*
X175783874Y-75131488D01*
X175799620Y-75142926D01*
X176203639Y-75488004D01*
X176217394Y-75501760D01*
X176562508Y-75905820D01*
X176573942Y-75921556D01*
X176851448Y-76374350D01*
X176860299Y-76391727D01*
X177063529Y-76882855D01*
X177069521Y-76901303D01*
X177193657Y-77418025D01*
X177196703Y-77437240D01*
X177231086Y-77873186D01*
X177230504Y-77898384D01*
X177229450Y-77906778D01*
X177228340Y-77910932D01*
X177228342Y-77915598D01*
X177227371Y-77923337D01*
X177226650Y-77924991D01*
X177226041Y-77931849D01*
X177228276Y-77984664D01*
X177228387Y-77989830D01*
X177240804Y-98452116D01*
X177240420Y-98461946D01*
X177196705Y-99015892D01*
X177193658Y-99035103D01*
X177069532Y-99551777D01*
X177063533Y-99570241D01*
X176860294Y-100061174D01*
X176851462Y-100078517D01*
X176573914Y-100531599D01*
X176562465Y-100547360D01*
X176217391Y-100951372D01*
X176203635Y-100965127D01*
X175799629Y-101310195D01*
X175783869Y-101321643D01*
X175330801Y-101599187D01*
X175313457Y-101608021D01*
X174822522Y-101811255D01*
X174804060Y-101817253D01*
X174287404Y-101941381D01*
X174268181Y-101944429D01*
X173832298Y-101978787D01*
X173805248Y-101977956D01*
X173797759Y-101976900D01*
X173794772Y-101976100D01*
X173792079Y-101976100D01*
X173783466Y-101974886D01*
X173782985Y-101974668D01*
X173778432Y-101974218D01*
X173723600Y-101976005D01*
X173722736Y-101976034D01*
X173718699Y-101976100D01*
X169044722Y-101976100D01*
X102544078Y-101976100D01*
X102543448Y-101975933D01*
X102478372Y-101976100D01*
X102406578Y-101976100D01*
X102403710Y-101976291D01*
X97752773Y-101988226D01*
X97742751Y-101987846D01*
X97189429Y-101944409D01*
X97170166Y-101941358D01*
X96653601Y-101817250D01*
X96635139Y-101811252D01*
X96144208Y-101608021D01*
X96126864Y-101599188D01*
X96126862Y-101599187D01*
X95673789Y-101321644D01*
X95658028Y-101310195D01*
X95254019Y-100965124D01*
X95240264Y-100951369D01*
X94895190Y-100547357D01*
X94883744Y-100531599D01*
X94880244Y-100525885D01*
X94606196Y-100078517D01*
X94597370Y-100061185D01*
X94394132Y-99570239D01*
X94388135Y-99551780D01*
X94388134Y-99551777D01*
X94264006Y-99035121D01*
X94260959Y-99015901D01*
X94226592Y-98579895D01*
X94227472Y-98552504D01*
X94228516Y-98545245D01*
X94229329Y-98542205D01*
X94229327Y-98539606D01*
X94230595Y-98530794D01*
X94230744Y-98530466D01*
X94231149Y-98526380D01*
X94231151Y-98526372D01*
X94229346Y-98470293D01*
X94229283Y-98466482D01*
X94224534Y-90480037D01*
X97788946Y-90480037D01*
X97788946Y-91179962D01*
X97789066Y-91191009D01*
X97791597Y-91307157D01*
X97799156Y-91383916D01*
X97839489Y-91612655D01*
X97839493Y-91612673D01*
X97862293Y-91697768D01*
X97862296Y-91697778D01*
X97862297Y-91697779D01*
X97941741Y-91916048D01*
X97941744Y-91916055D01*
X97941745Y-91916057D01*
X97941748Y-91916065D01*
X97978974Y-91995895D01*
X97978982Y-91995911D01*
X98095114Y-92197059D01*
X98145661Y-92269248D01*
X98145663Y-92269251D01*
X98226432Y-92365506D01*
X98294963Y-92447178D01*
X98357268Y-92509483D01*
X98429103Y-92569760D01*
X98535194Y-92658782D01*
X98535198Y-92658784D01*
X98535202Y-92658788D01*
X98607383Y-92709329D01*
X98607386Y-92709331D01*
X98607385Y-92709331D01*
X98780315Y-92809171D01*
X98808541Y-92825467D01*
X98835160Y-92837879D01*
X98888380Y-92862697D01*
X98888384Y-92862698D01*
X98888398Y-92862705D01*
X99106667Y-92942149D01*
X99106673Y-92942150D01*
X99106677Y-92942152D01*
X99136682Y-92950191D01*
X99191781Y-92964955D01*
X99420529Y-93005289D01*
X99497293Y-93012849D01*
X99613432Y-93015380D01*
X99624446Y-93015500D01*
X99624484Y-93015500D01*
X106074399Y-93015500D01*
X106074446Y-93015500D01*
X106084815Y-93015394D01*
X106200967Y-93013011D01*
X106278375Y-93005438D01*
X106278385Y-93005436D01*
X106278387Y-93005436D01*
X106308537Y-93000119D01*
X106507149Y-92965100D01*
X106592262Y-92942294D01*
X106756523Y-92882508D01*
X106810551Y-92862844D01*
X106810561Y-92862840D01*
X106837575Y-92850243D01*
X106890415Y-92825603D01*
X107091595Y-92709452D01*
X107163775Y-92658911D01*
X107341730Y-92509589D01*
X107404036Y-92447284D01*
X107553358Y-92269330D01*
X107603899Y-92197150D01*
X107720051Y-91995969D01*
X107757289Y-91916112D01*
X107836742Y-91697819D01*
X107844947Y-91667195D01*
X107881309Y-91607536D01*
X107944154Y-91577005D01*
X108013530Y-91585297D01*
X108067410Y-91629780D01*
X108079283Y-91651834D01*
X108123329Y-91758170D01*
X108123332Y-91758175D01*
X108196642Y-91885151D01*
X108196645Y-91885155D01*
X108196649Y-91885161D01*
X108276975Y-91989842D01*
X108276983Y-91989851D01*
X108380641Y-92093509D01*
X108380649Y-92093516D01*
X108380650Y-92093517D01*
X108388493Y-92099535D01*
X108485330Y-92173842D01*
X108485333Y-92173844D01*
X108485341Y-92173850D01*
X108612317Y-92247160D01*
X108689193Y-92279003D01*
X108720712Y-92292059D01*
X108734237Y-92297661D01*
X108875860Y-92335608D01*
X108991686Y-92352609D01*
X109040558Y-92354060D01*
X109064993Y-92354786D01*
X109079976Y-92355009D01*
X109080000Y-92355009D01*
X113680024Y-92355009D01*
X113695006Y-92354786D01*
X113768296Y-92352610D01*
X113768302Y-92352609D01*
X113768314Y-92352609D01*
X113816965Y-92345467D01*
X113884133Y-92335609D01*
X113884137Y-92335607D01*
X113884143Y-92335607D01*
X114025766Y-92297659D01*
X114147680Y-92247161D01*
X114274656Y-92173852D01*
X114379352Y-92093516D01*
X114483027Y-91989840D01*
X114563357Y-91885151D01*
X114636667Y-91758176D01*
X114687169Y-91636254D01*
X114725116Y-91494630D01*
X114742117Y-91378805D01*
X114744294Y-91305496D01*
X114744517Y-91290515D01*
X114744517Y-81060000D01*
X115014500Y-81060000D01*
X115014500Y-91538353D01*
X115014501Y-91538398D01*
X115014698Y-91552537D01*
X115017280Y-91644768D01*
X115017282Y-91644789D01*
X115029756Y-91743124D01*
X115070827Y-91923062D01*
X115070829Y-91923071D01*
X115108212Y-92029905D01*
X115108218Y-92029919D01*
X115188296Y-92196203D01*
X115248523Y-92292053D01*
X115248524Y-92292055D01*
X115363594Y-92436349D01*
X115443650Y-92516405D01*
X115587944Y-92631475D01*
X115587947Y-92631476D01*
X115587949Y-92631478D01*
X115683794Y-92691702D01*
X115850088Y-92771785D01*
X115956930Y-92809171D01*
X116136875Y-92850243D01*
X116136873Y-92850243D01*
X116157013Y-92852797D01*
X116235218Y-92862719D01*
X116297446Y-92864460D01*
X116327462Y-92865301D01*
X116327474Y-92865301D01*
X116327504Y-92865302D01*
X116341647Y-92865500D01*
X116341655Y-92865500D01*
X129698345Y-92865500D01*
X129698353Y-92865500D01*
X129712496Y-92865302D01*
X129712526Y-92865301D01*
X129712537Y-92865301D01*
X129737766Y-92864594D01*
X129804782Y-92862719D01*
X129903125Y-92850243D01*
X130083070Y-92809171D01*
X130189912Y-92771785D01*
X130356206Y-92691702D01*
X130452054Y-92631476D01*
X130596358Y-92516396D01*
X130676396Y-92436358D01*
X130791476Y-92292054D01*
X130851702Y-92196206D01*
X130931785Y-92029912D01*
X130969171Y-91923070D01*
X131010243Y-91743125D01*
X131022719Y-91644782D01*
X131025302Y-91552496D01*
X131025500Y-91538398D01*
X131026219Y-83401308D01*
X136278420Y-83401308D01*
X136278420Y-83401326D01*
X136280383Y-83448198D01*
X136280370Y-83458882D01*
X136278428Y-83502652D01*
X136278428Y-83502663D01*
X136321607Y-83939782D01*
X136325936Y-83970027D01*
X136326383Y-83975058D01*
X136326521Y-83975044D01*
X136326983Y-83979441D01*
X137332874Y-89630013D01*
X137332910Y-89630207D01*
X137333237Y-89632043D01*
X137351330Y-89750968D01*
X137367609Y-89822540D01*
X137367789Y-89822925D01*
X137367820Y-89823122D01*
X137370539Y-89832093D01*
X137370540Y-89832095D01*
X137409988Y-89962221D01*
X137490250Y-90226982D01*
X137490253Y-90226989D01*
X137524882Y-90309572D01*
X137527080Y-90315194D01*
X137528986Y-90320443D01*
X137614316Y-90480037D01*
X137762168Y-90756566D01*
X137763429Y-90758900D01*
X137764284Y-90760481D01*
X137764286Y-90760485D01*
X137788650Y-90793031D01*
X137795458Y-90803122D01*
X137818188Y-90840667D01*
X137818190Y-90840669D01*
X138131879Y-91222939D01*
X138178359Y-91272397D01*
X138180279Y-91273729D01*
X138201105Y-91291929D01*
X138203513Y-91294562D01*
X138203518Y-91294567D01*
X138500602Y-91538353D01*
X138585783Y-91608252D01*
X138613180Y-91627497D01*
X138647613Y-91651685D01*
X138653529Y-91654944D01*
X138653375Y-91655223D01*
X138665901Y-91662299D01*
X138666137Y-91661926D01*
X138669875Y-91664282D01*
X138669880Y-91664285D01*
X138669882Y-91664286D01*
X139106002Y-91897456D01*
X139187964Y-91930983D01*
X139193471Y-91933395D01*
X139199413Y-91936173D01*
X139672613Y-92079683D01*
X139676904Y-92080964D01*
X139699996Y-92084284D01*
X139717753Y-92086837D01*
X139729652Y-92089145D01*
X139772003Y-92099536D01*
X140264003Y-92147796D01*
X140307445Y-92149921D01*
X140310656Y-92150228D01*
X140310661Y-92150158D01*
X140315064Y-92150468D01*
X140315078Y-92150470D01*
X153671127Y-92138359D01*
X153680121Y-92138679D01*
X153690690Y-92139439D01*
X153693318Y-92140341D01*
X153719402Y-92141507D01*
X153721067Y-92141627D01*
X153721891Y-92141934D01*
X153736137Y-92143647D01*
X153760870Y-92148522D01*
X153790426Y-92145823D01*
X153807227Y-92145434D01*
X153837055Y-92146769D01*
X154317115Y-92099519D01*
X154341406Y-92096143D01*
X154357124Y-92093960D01*
X154357125Y-92093959D01*
X154357129Y-92093959D01*
X154376265Y-92087598D01*
X154396635Y-92082695D01*
X154416347Y-92079683D01*
X154889547Y-91936173D01*
X154970691Y-91902138D01*
X154976276Y-91899954D01*
X154983319Y-91897397D01*
X155419179Y-91664227D01*
X155420085Y-91663741D01*
X155454491Y-91638333D01*
X155463918Y-91632018D01*
X155503177Y-91608252D01*
X155885447Y-91294562D01*
X155933544Y-91249540D01*
X155935559Y-91246658D01*
X155953496Y-91226216D01*
X155957082Y-91222937D01*
X156270772Y-90840667D01*
X156317178Y-90773783D01*
X156317180Y-90773776D01*
X156320470Y-90767682D01*
X156320751Y-90767833D01*
X156325319Y-90758900D01*
X156326790Y-90756566D01*
X156326796Y-90756558D01*
X156559966Y-90320438D01*
X156593388Y-90238730D01*
X156595804Y-90233215D01*
X156598694Y-90227035D01*
X156705190Y-89875875D01*
X165519500Y-89875875D01*
X165519500Y-90224124D01*
X165558489Y-90570158D01*
X165558491Y-90570170D01*
X165635982Y-90909684D01*
X165635985Y-90909692D01*
X165750999Y-91238382D01*
X165902092Y-91552130D01*
X166087371Y-91846999D01*
X166087372Y-91847001D01*
X166304487Y-92119256D01*
X166550743Y-92365512D01*
X166822998Y-92582627D01*
X166823001Y-92582628D01*
X166823003Y-92582630D01*
X167024838Y-92709452D01*
X167117869Y-92767907D01*
X167125922Y-92771785D01*
X167431621Y-92919002D01*
X167678216Y-93005289D01*
X167760307Y-93034014D01*
X167760315Y-93034017D01*
X167760318Y-93034017D01*
X167760319Y-93034018D01*
X168099829Y-93111509D01*
X168445876Y-93150499D01*
X168445877Y-93150500D01*
X168445880Y-93150500D01*
X168794123Y-93150500D01*
X168794123Y-93150499D01*
X169140171Y-93111509D01*
X169479681Y-93034018D01*
X169808379Y-92919002D01*
X170122133Y-92767906D01*
X170416997Y-92582630D01*
X170500041Y-92516405D01*
X170689256Y-92365512D01*
X170689258Y-92365509D01*
X170689263Y-92365506D01*
X170935506Y-92119263D01*
X170951239Y-92099535D01*
X171152627Y-91847001D01*
X171152628Y-91846999D01*
X171152630Y-91846997D01*
X171337906Y-91552133D01*
X171489002Y-91238379D01*
X171604018Y-90909681D01*
X171681509Y-90570171D01*
X171720500Y-90224120D01*
X171720500Y-89875880D01*
X171681509Y-89529829D01*
X171604018Y-89190319D01*
X171590091Y-89150519D01*
X171575384Y-89108488D01*
X171489002Y-88861621D01*
X171337906Y-88547867D01*
X171152630Y-88253003D01*
X171152628Y-88253000D01*
X171152627Y-88252998D01*
X170935512Y-87980743D01*
X170689256Y-87734487D01*
X170417001Y-87517372D01*
X170416999Y-87517371D01*
X170122130Y-87332092D01*
X169808382Y-87180999D01*
X169479692Y-87065985D01*
X169479684Y-87065982D01*
X169225048Y-87007863D01*
X169140171Y-86988491D01*
X169140167Y-86988490D01*
X169140158Y-86988489D01*
X168794124Y-86949500D01*
X168794120Y-86949500D01*
X168445880Y-86949500D01*
X168445875Y-86949500D01*
X168099841Y-86988489D01*
X168099829Y-86988491D01*
X167760315Y-87065982D01*
X167760307Y-87065985D01*
X167431617Y-87180999D01*
X167117869Y-87332092D01*
X166823000Y-87517371D01*
X166822998Y-87517372D01*
X166550743Y-87734487D01*
X166304487Y-87980743D01*
X166087372Y-88252998D01*
X166087371Y-88253000D01*
X165902092Y-88547869D01*
X165750999Y-88861617D01*
X165635985Y-89190307D01*
X165635982Y-89190315D01*
X165558491Y-89529829D01*
X165558489Y-89529841D01*
X165519500Y-89875875D01*
X156705190Y-89875875D01*
X156742204Y-89753825D01*
X156743484Y-89749536D01*
X156750246Y-89702503D01*
X156762060Y-89654285D01*
X156765066Y-89623525D01*
X156766341Y-89614179D01*
X156781132Y-89529829D01*
X157741179Y-84054734D01*
X157741909Y-84050933D01*
X157744605Y-84037983D01*
X157750084Y-84025646D01*
X157756573Y-83980510D01*
X157757361Y-83976727D01*
X157765182Y-83962094D01*
X157768114Y-83932383D01*
X157768115Y-83932384D01*
X157810535Y-83502614D01*
X157812652Y-83471160D01*
X157809963Y-83446085D01*
X157809380Y-83427351D01*
X157810540Y-83401319D01*
X157762020Y-82909319D01*
X157756470Y-82869403D01*
X157750166Y-82850436D01*
X157745262Y-82830073D01*
X157742171Y-82809863D01*
X157598659Y-82336906D01*
X157567969Y-82259427D01*
X157567963Y-82259412D01*
X157560360Y-82244056D01*
X157560360Y-82244055D01*
X157559536Y-82242392D01*
X157559535Y-82242389D01*
X157559528Y-82242375D01*
X157549601Y-82222323D01*
X157545012Y-82215352D01*
X157326787Y-81807185D01*
X157326457Y-81806575D01*
X157324677Y-81803280D01*
X157300223Y-81770614D01*
X157293413Y-81760519D01*
X157270763Y-81723104D01*
X157270761Y-81723102D01*
X157270759Y-81723100D01*
X156957072Y-81340833D01*
X156946002Y-81329007D01*
X156912056Y-81292742D01*
X156912054Y-81292740D01*
X156912050Y-81292736D01*
X156912043Y-81292731D01*
X156909060Y-81290644D01*
X156888671Y-81272763D01*
X156885286Y-81269065D01*
X156503027Y-80955643D01*
X156503015Y-80955635D01*
X156442234Y-80916229D01*
X156436264Y-80912105D01*
X156419186Y-80899547D01*
X155983326Y-80666367D01*
X155983319Y-80666364D01*
X155983317Y-80666363D01*
X155899295Y-80631979D01*
X155893774Y-80629562D01*
X155891802Y-80628640D01*
X155889545Y-80627586D01*
X155889542Y-80627585D01*
X155889540Y-80627584D01*
X155889541Y-80627584D01*
X155416334Y-80484075D01*
X155361219Y-80474952D01*
X155351864Y-80473030D01*
X155339779Y-80470059D01*
X155317208Y-80464509D01*
X154825245Y-80415992D01*
X154825200Y-80415989D01*
X154775603Y-80413550D01*
X154775600Y-80413550D01*
X154774199Y-80413550D01*
X152890074Y-80415005D01*
X139417849Y-80425412D01*
X139408071Y-80425033D01*
X139397885Y-80424235D01*
X139395386Y-80423380D01*
X139376052Y-80422525D01*
X139373942Y-80422360D01*
X139372869Y-80421951D01*
X139358135Y-80420091D01*
X139343628Y-80417044D01*
X139337982Y-80415858D01*
X139337979Y-80415857D01*
X139322118Y-80416991D01*
X139321389Y-80417044D01*
X139312547Y-80417360D01*
X139261949Y-80417360D01*
X139256473Y-80417239D01*
X139251655Y-80417026D01*
X139251642Y-80417026D01*
X138771585Y-80464525D01*
X138731837Y-80470059D01*
X138731823Y-80470062D01*
X138714135Y-80475940D01*
X138693776Y-80480842D01*
X138672611Y-80484077D01*
X138199415Y-80627586D01*
X138118239Y-80661631D01*
X138112630Y-80663824D01*
X138105638Y-80666364D01*
X138105629Y-80666368D01*
X137669725Y-80899573D01*
X137668880Y-80900025D01*
X137668872Y-80900031D01*
X137653421Y-80911440D01*
X137647430Y-80915597D01*
X137585943Y-80955636D01*
X137203682Y-81269058D01*
X137203674Y-81269065D01*
X137203672Y-81269067D01*
X137178482Y-81292731D01*
X137154049Y-81315683D01*
X137154046Y-81315686D01*
X137152731Y-81317583D01*
X137134547Y-81338391D01*
X137131879Y-81340831D01*
X137131877Y-81340833D01*
X136818189Y-81723100D01*
X136818188Y-81723101D01*
X136772365Y-81788984D01*
X136769080Y-81795048D01*
X136768842Y-81794919D01*
X136764192Y-81803983D01*
X136762168Y-81807194D01*
X136528994Y-82243322D01*
X136494801Y-82326907D01*
X136492373Y-82332452D01*
X136490291Y-82336906D01*
X136490288Y-82336913D01*
X136346752Y-82809949D01*
X136345476Y-82814221D01*
X136345473Y-82814234D01*
X136339517Y-82855656D01*
X136337194Y-82867609D01*
X136326939Y-82909320D01*
X136278420Y-83401308D01*
X131026219Y-83401308D01*
X131026426Y-81060699D01*
X131026257Y-81047587D01*
X131023870Y-80955278D01*
X131011366Y-80855863D01*
X130970286Y-80675875D01*
X130932900Y-80569030D01*
X130932899Y-80569026D01*
X130932897Y-80569023D01*
X130852801Y-80402700D01*
X130852454Y-80402147D01*
X130792573Y-80306848D01*
X130677466Y-80162508D01*
X130597425Y-80082467D01*
X130453086Y-79967360D01*
X130357240Y-79907136D01*
X130357237Y-79907134D01*
X130190912Y-79827036D01*
X130190903Y-79827032D01*
X130084065Y-79789647D01*
X130084055Y-79789644D01*
X129904079Y-79748566D01*
X129904063Y-79748563D01*
X129804641Y-79736059D01*
X129712331Y-79733675D01*
X129699274Y-79733506D01*
X116341676Y-79732853D01*
X116341675Y-79732853D01*
X116341672Y-79732853D01*
X116340289Y-79732872D01*
X116327467Y-79733051D01*
X116235231Y-79735633D01*
X116235221Y-79735633D01*
X116235218Y-79735634D01*
X116235210Y-79735634D01*
X116235210Y-79735635D01*
X116136875Y-79748109D01*
X115956937Y-79789180D01*
X115956928Y-79789182D01*
X115850094Y-79826565D01*
X115850080Y-79826571D01*
X115683796Y-79906649D01*
X115587946Y-79966876D01*
X115587944Y-79966877D01*
X115443650Y-80081947D01*
X115363594Y-80162003D01*
X115248524Y-80306297D01*
X115248523Y-80306299D01*
X115188296Y-80402149D01*
X115108218Y-80568433D01*
X115108212Y-80568447D01*
X115070829Y-80675281D01*
X115070827Y-80675290D01*
X115029756Y-80855228D01*
X115017282Y-80953563D01*
X115017280Y-80953584D01*
X115014698Y-81045815D01*
X115014528Y-81057979D01*
X115014500Y-81060000D01*
X114744517Y-81060000D01*
X114744517Y-79309504D01*
X114744487Y-79307521D01*
X114744291Y-79294401D01*
X114742099Y-79221092D01*
X114725104Y-79105381D01*
X114687161Y-78963759D01*
X114636663Y-78841837D01*
X114563357Y-78714861D01*
X114563354Y-78714858D01*
X114563353Y-78714855D01*
X114483028Y-78610169D01*
X114483018Y-78610158D01*
X114379354Y-78506492D01*
X114379345Y-78506484D01*
X114274661Y-78426156D01*
X114274655Y-78426152D01*
X114225396Y-78397711D01*
X114147685Y-78352844D01*
X114025765Y-78302342D01*
X114025763Y-78302341D01*
X114025762Y-78302341D01*
X113884134Y-78264391D01*
X113884135Y-78264391D01*
X113768325Y-78247393D01*
X113768296Y-78247390D01*
X113695006Y-78245214D01*
X113680024Y-78244992D01*
X113680000Y-78244992D01*
X109080000Y-78244992D01*
X109079976Y-78244992D01*
X109064993Y-78245214D01*
X108991690Y-78247391D01*
X108875869Y-78264391D01*
X108875865Y-78264391D01*
X108734237Y-78302340D01*
X108734227Y-78302343D01*
X108612320Y-78352839D01*
X108612316Y-78352841D01*
X108485341Y-78426151D01*
X108485330Y-78426158D01*
X108380649Y-78506484D01*
X108276975Y-78610158D01*
X108196649Y-78714839D01*
X108196642Y-78714850D01*
X108123332Y-78841825D01*
X108123330Y-78841829D01*
X108072834Y-78963736D01*
X108072831Y-78963746D01*
X108034882Y-79105374D01*
X108034882Y-79105378D01*
X108017882Y-79221199D01*
X108015705Y-79294502D01*
X108015483Y-79309484D01*
X108015483Y-89747353D01*
X107995798Y-89814392D01*
X107942994Y-89860147D01*
X107873836Y-89870091D01*
X107810280Y-89841066D01*
X107774962Y-89789765D01*
X107757286Y-89741202D01*
X107757277Y-89741181D01*
X107720051Y-89661351D01*
X107720043Y-89661335D01*
X107692817Y-89614179D01*
X107603896Y-89460163D01*
X107603888Y-89460152D01*
X107603884Y-89460145D01*
X107553354Y-89387981D01*
X107404046Y-89210044D01*
X107404041Y-89210038D01*
X107404033Y-89210029D01*
X107341727Y-89147723D01*
X107163779Y-88998407D01*
X107163778Y-88998405D01*
X107091590Y-88947860D01*
X107091578Y-88947852D01*
X106890425Y-88831717D01*
X106890416Y-88831713D01*
X106890413Y-88831711D01*
X106810555Y-88794472D01*
X106592262Y-88715020D01*
X106592261Y-88715019D01*
X106592251Y-88715016D01*
X106507156Y-88692216D01*
X106507153Y-88692215D01*
X106507148Y-88692214D01*
X106497325Y-88690482D01*
X106278387Y-88651877D01*
X106200976Y-88644303D01*
X106084847Y-88641917D01*
X106081219Y-88641880D01*
X106074235Y-88641810D01*
X106074207Y-88641810D01*
X106074206Y-88641810D01*
X99624205Y-88644499D01*
X99613504Y-88644618D01*
X99497287Y-88647151D01*
X99420529Y-88654710D01*
X99191790Y-88695043D01*
X99191772Y-88695047D01*
X99106677Y-88717847D01*
X98997532Y-88757573D01*
X98888398Y-88797295D01*
X98888394Y-88797296D01*
X98888388Y-88797299D01*
X98888380Y-88797302D01*
X98808550Y-88834528D01*
X98808534Y-88834536D01*
X98607386Y-88950668D01*
X98535197Y-89001215D01*
X98535194Y-89001217D01*
X98357265Y-89150519D01*
X98294965Y-89212819D01*
X98145663Y-89390748D01*
X98145661Y-89390751D01*
X98095114Y-89462940D01*
X97978982Y-89664088D01*
X97978974Y-89664104D01*
X97941748Y-89743934D01*
X97941745Y-89743942D01*
X97941742Y-89743948D01*
X97941741Y-89743952D01*
X97916103Y-89814392D01*
X97862293Y-89962231D01*
X97839493Y-90047326D01*
X97839489Y-90047344D01*
X97799156Y-90276083D01*
X97791597Y-90352842D01*
X97791597Y-90352847D01*
X97789066Y-90468986D01*
X97788976Y-90477310D01*
X97788946Y-90480037D01*
X94224534Y-90480037D01*
X94217113Y-78000858D01*
X94217492Y-77991126D01*
X94260980Y-77437158D01*
X94264028Y-77417915D01*
X94388137Y-76901341D01*
X94394130Y-76882893D01*
X94597372Y-76391937D01*
X94606194Y-76374614D01*
X94883750Y-75921520D01*
X94895185Y-75905777D01*
X95240271Y-75501751D01*
X95254011Y-75488011D01*
X95658037Y-75142925D01*
X95673780Y-75131490D01*
X96126962Y-74853880D01*
X96144264Y-74845066D01*
X96635105Y-74641661D01*
X96653647Y-74635636D01*
X97170193Y-74511744D01*
X97189364Y-74508708D01*
X97625368Y-74474342D01*
X97652517Y-74475188D01*
X97659946Y-74476241D01*
X97662888Y-74477030D01*
X97665504Y-74477030D01*
X97674169Y-74478259D01*
X97674596Y-74478453D01*
X97679013Y-74478890D01*
X97679013Y-74478889D01*
X97679018Y-74478891D01*
X97733878Y-74477125D01*
X97734856Y-74477094D01*
X97738844Y-74477030D01*
X102412948Y-74477030D01*
X168913605Y-74477030D01*
X168914250Y-74477201D01*
X168979494Y-74477030D01*
X169044722Y-74477030D01*
X169051107Y-74477030D01*
X169054021Y-74476834D01*
X173704780Y-74464645D01*
X173714850Y-74465028D01*
G37*
%TD.AperFunction*%
%TD*%
M02*
