%TF.GenerationSoftware,KiCad,Pcbnew,9.0.0*%
%TF.CreationDate,2025-05-16T22:32:30-04:00*%
%TF.ProjectId,Front Plate,46726f6e-7420-4506-9c61-74652e6b6963,rev?*%
%TF.SameCoordinates,Original*%
%TF.FileFunction,Legend,Bot*%
%TF.FilePolarity,Positive*%
%FSLAX46Y46*%
G04 Gerber Fmt 4.6, Leading zero omitted, Abs format (unit mm)*
G04 Created by KiCad (PCBNEW 9.0.0) date 2025-05-16 22:32:30*
%MOMM*%
%LPD*%
G01*
G04 APERTURE LIST*
%ADD10C,0.150000*%
%ADD11C,0.120000*%
G04 APERTURE END LIST*
D10*
X145004819Y-94531905D02*
X144004819Y-94531905D01*
X144004819Y-94531905D02*
X144004819Y-94912857D01*
X144004819Y-94912857D02*
X144052438Y-95008095D01*
X144052438Y-95008095D02*
X144100057Y-95055714D01*
X144100057Y-95055714D02*
X144195295Y-95103333D01*
X144195295Y-95103333D02*
X144338152Y-95103333D01*
X144338152Y-95103333D02*
X144433390Y-95055714D01*
X144433390Y-95055714D02*
X144481009Y-95008095D01*
X144481009Y-95008095D02*
X144528628Y-94912857D01*
X144528628Y-94912857D02*
X144528628Y-94531905D01*
X145004819Y-96055714D02*
X145004819Y-95484286D01*
X145004819Y-95770000D02*
X144004819Y-95770000D01*
X144004819Y-95770000D02*
X144147676Y-95674762D01*
X144147676Y-95674762D02*
X144242914Y-95579524D01*
X144242914Y-95579524D02*
X144290533Y-95484286D01*
D11*
%TO.C,P1*%
X145550000Y-94210000D02*
X145925000Y-94210000D01*
X145550000Y-94210000D02*
X145550000Y-96330000D01*
X145925000Y-94210000D02*
X145925000Y-92980000D01*
X147295000Y-94210000D02*
X149670000Y-94210000D01*
X149670000Y-94210000D02*
X149670000Y-96330000D01*
X145550000Y-96330000D02*
X147925000Y-96330000D01*
X149295000Y-96330000D02*
X149670000Y-96330000D01*
%TD*%
M02*
