%TF.GenerationSoftware,KiCad,Pcbnew,9.0.0*%
%TF.CreationDate,2025-05-16T22:32:30-04:00*%
%TF.ProjectId,Front Plate,46726f6e-7420-4506-9c61-74652e6b6963,rev?*%
%TF.SameCoordinates,Original*%
%TF.FileFunction,Soldermask,Bot*%
%TF.FilePolarity,Negative*%
%FSLAX46Y46*%
G04 Gerber Fmt 4.6, Leading zero omitted, Abs format (unit mm)*
G04 Created by KiCad (PCBNEW 9.0.0) date 2025-05-16 22:32:30*
%MOMM*%
%LPD*%
G01*
G04 APERTURE LIST*
%ADD10R,0.850000X2.350000*%
%ADD11C,4.000000*%
%ADD12C,5.000000*%
%ADD13C,3.708400*%
%ADD14R,1.193800X0.889000*%
G04 APERTURE END LIST*
D10*
%TO.C,P1*%
X146610000Y-94095000D03*
X148610000Y-96445000D03*
%TD*%
D11*
%TO.C,REF\u002A\u002A*%
X118790000Y-86230000D03*
X152120000Y-86240000D03*
%TD*%
D12*
%TO.C,REF\u002A\u002A*%
X98119160Y-78697420D03*
X174119260Y-78697420D03*
X98119160Y-97697390D03*
X174119260Y-97697390D03*
%TD*%
D13*
%TO.C,SW1*%
X106930000Y-84280000D03*
D14*
X111930000Y-82029999D03*
X101930000Y-82029999D03*
X111930000Y-86530001D03*
X101930000Y-86530001D03*
%TD*%
G36*
X107071289Y-94655669D02*
G01*
X107098360Y-94661847D01*
X107230510Y-94708088D01*
X107255528Y-94720136D01*
X107374073Y-94794623D01*
X107395782Y-94811936D01*
X107494778Y-94910932D01*
X107512091Y-94932641D01*
X107586578Y-95051186D01*
X107598626Y-95076204D01*
X107644867Y-95208354D01*
X107651045Y-95235425D01*
X107666720Y-95374547D01*
X107666720Y-95402313D01*
X107651045Y-95541434D01*
X107644867Y-95568505D01*
X107598626Y-95700655D01*
X107586578Y-95725673D01*
X107512091Y-95844218D01*
X107494778Y-95865927D01*
X107395782Y-95964923D01*
X107374073Y-95982236D01*
X107255528Y-96056723D01*
X107230510Y-96068771D01*
X107098360Y-96115012D01*
X107071289Y-96121190D01*
X106932168Y-96136865D01*
X106904402Y-96136865D01*
X106765280Y-96121190D01*
X106738209Y-96115012D01*
X106606059Y-96068771D01*
X106581041Y-96056723D01*
X106462496Y-95982236D01*
X106440787Y-95964923D01*
X106341791Y-95865927D01*
X106324478Y-95844218D01*
X106249991Y-95725673D01*
X106237943Y-95700655D01*
X106191702Y-95568505D01*
X106185524Y-95541434D01*
X106169849Y-95402313D01*
X106169849Y-95374547D01*
X106185524Y-95235425D01*
X106191702Y-95208354D01*
X106237943Y-95076204D01*
X106249991Y-95051186D01*
X106324478Y-94932641D01*
X106341791Y-94910932D01*
X106440787Y-94811936D01*
X106462496Y-94794623D01*
X106581041Y-94720136D01*
X106606059Y-94708088D01*
X106738209Y-94661847D01*
X106765280Y-94655669D01*
X106904402Y-94639994D01*
X106932168Y-94639994D01*
X107071289Y-94655669D01*
G37*
G36*
X119253147Y-94655669D02*
G01*
X119280218Y-94661847D01*
X119412368Y-94708088D01*
X119437386Y-94720136D01*
X119555931Y-94794623D01*
X119577640Y-94811936D01*
X119676636Y-94910932D01*
X119693949Y-94932641D01*
X119768436Y-95051186D01*
X119780484Y-95076204D01*
X119826725Y-95208354D01*
X119832903Y-95235425D01*
X119848578Y-95374547D01*
X119848578Y-95402313D01*
X119832903Y-95541434D01*
X119826725Y-95568505D01*
X119780484Y-95700655D01*
X119768436Y-95725673D01*
X119693949Y-95844218D01*
X119676636Y-95865927D01*
X119577640Y-95964923D01*
X119555931Y-95982236D01*
X119437386Y-96056723D01*
X119412368Y-96068771D01*
X119280218Y-96115012D01*
X119253147Y-96121190D01*
X119114026Y-96136865D01*
X119086260Y-96136865D01*
X118947138Y-96121190D01*
X118920067Y-96115012D01*
X118787917Y-96068771D01*
X118762899Y-96056723D01*
X118644354Y-95982236D01*
X118622645Y-95964923D01*
X118523649Y-95865927D01*
X118506336Y-95844218D01*
X118431849Y-95725673D01*
X118419801Y-95700655D01*
X118373560Y-95568505D01*
X118367382Y-95541434D01*
X118351707Y-95402313D01*
X118351707Y-95374547D01*
X118367382Y-95235425D01*
X118373560Y-95208354D01*
X118419801Y-95076204D01*
X118431849Y-95051186D01*
X118506336Y-94932641D01*
X118523649Y-94910932D01*
X118622645Y-94811936D01*
X118644354Y-94794623D01*
X118762899Y-94720136D01*
X118787917Y-94708088D01*
X118920067Y-94661847D01*
X118947138Y-94655669D01*
X119086260Y-94639994D01*
X119114026Y-94639994D01*
X119253147Y-94655669D01*
G37*
M02*
