%TF.GenerationSoftware,KiCad,Pcbnew,9.0.0*%
%TF.CreationDate,2025-05-16T22:32:30-04:00*%
%TF.ProjectId,Front Plate,46726f6e-7420-4506-9c61-74652e6b6963,rev?*%
%TF.SameCoordinates,Original*%
%TF.FileFunction,Soldermask,Top*%
%TF.FilePolarity,Negative*%
%FSLAX46Y46*%
G04 Gerber Fmt 4.6, Leading zero omitted, Abs format (unit mm)*
G04 Created by KiCad (PCBNEW 9.0.0) date 2025-05-16 22:32:30*
%MOMM*%
%LPD*%
G01*
G04 APERTURE LIST*
%ADD10C,0.000000*%
%ADD11C,4.000000*%
%ADD12C,5.000000*%
%ADD13C,3.708400*%
G04 APERTURE END LIST*
D10*
%TO.C,G\u002A\u002A\u002A*%
G36*
X138588962Y-93412727D02*
G01*
X138704475Y-93427186D01*
X138802774Y-93450722D01*
X138853511Y-93471050D01*
X138916476Y-93514922D01*
X138988321Y-93583806D01*
X139061670Y-93669415D01*
X139129150Y-93763465D01*
X139162458Y-93818199D01*
X139201641Y-93903456D01*
X139220456Y-93988687D01*
X139217842Y-94078290D01*
X139192734Y-94176662D01*
X139144070Y-94288200D01*
X139070786Y-94417302D01*
X138986169Y-94547340D01*
X138902610Y-94661092D01*
X138825706Y-94743536D01*
X138750050Y-94798400D01*
X138670236Y-94829412D01*
X138580858Y-94840298D01*
X138561159Y-94840386D01*
X138445357Y-94826959D01*
X138357735Y-94789560D01*
X138297985Y-94727913D01*
X138265802Y-94641743D01*
X138259506Y-94568838D01*
X138261249Y-94512500D01*
X138269135Y-94466413D01*
X138287156Y-94421994D01*
X138319299Y-94370660D01*
X138369555Y-94303827D01*
X138401363Y-94263620D01*
X138466107Y-94179501D01*
X138507691Y-94117407D01*
X138528447Y-94072477D01*
X138530706Y-94039845D01*
X138519334Y-94017546D01*
X138472968Y-93990599D01*
X138398118Y-93986830D01*
X138295141Y-94006156D01*
X138164394Y-94048491D01*
X138006234Y-94113753D01*
X137898237Y-94163923D01*
X137627718Y-94314408D01*
X137371195Y-94498514D01*
X137130080Y-94715014D01*
X136905786Y-94962677D01*
X136757792Y-95156385D01*
X136713771Y-95220129D01*
X136672091Y-95285388D01*
X136628813Y-95359027D01*
X136580000Y-95447909D01*
X136521714Y-95558900D01*
X136476885Y-95646149D01*
X136439634Y-95719065D01*
X136414671Y-95646149D01*
X136375060Y-95568424D01*
X136319925Y-95523268D01*
X136248165Y-95510381D01*
X136158678Y-95529468D01*
X136090955Y-95558644D01*
X136026724Y-95597903D01*
X135953559Y-95653419D01*
X135886832Y-95713481D01*
X135884211Y-95716120D01*
X135821260Y-95777223D01*
X135778659Y-95811285D01*
X135753168Y-95819843D01*
X135741548Y-95804428D01*
X135739886Y-95784448D01*
X135747593Y-95745298D01*
X135768737Y-95680143D01*
X135800355Y-95596203D01*
X135839481Y-95500697D01*
X135883151Y-95400846D01*
X135928400Y-95303871D01*
X135972265Y-95216990D01*
X135974944Y-95211965D01*
X136131439Y-94948777D01*
X136312049Y-94700600D01*
X136519670Y-94464266D01*
X136757202Y-94236610D01*
X137027541Y-94014468D01*
X137164124Y-93912965D01*
X137303774Y-93821680D01*
X137465667Y-93731629D01*
X137641554Y-93646261D01*
X137823184Y-93569027D01*
X138002309Y-93503379D01*
X138170678Y-93452765D01*
X138320041Y-93420638D01*
X138352139Y-93416062D01*
X138467697Y-93408600D01*
X138588962Y-93412727D01*
G37*
G36*
X141380682Y-94457955D02*
G01*
X141493429Y-94489980D01*
X141512386Y-94498591D01*
X141622141Y-94572298D01*
X141709136Y-94673383D01*
X141771776Y-94798814D01*
X141808469Y-94945556D01*
X141818076Y-95080355D01*
X141811969Y-95207644D01*
X141791218Y-95319391D01*
X141752053Y-95429425D01*
X141690706Y-95551576D01*
X141688590Y-95555381D01*
X141592176Y-95703852D01*
X141463561Y-95860670D01*
X141302025Y-96026566D01*
X141106845Y-96202265D01*
X140877303Y-96388496D01*
X140820213Y-96432408D01*
X140721924Y-96509782D01*
X140647968Y-96573305D01*
X140600676Y-96620855D01*
X140582683Y-96648812D01*
X140585811Y-96701637D01*
X140614925Y-96771547D01*
X140615205Y-96772060D01*
X140652028Y-96825934D01*
X140701515Y-96868426D01*
X140769864Y-96907151D01*
X140821950Y-96931887D01*
X140866396Y-96947895D01*
X140913724Y-96956997D01*
X140974458Y-96961014D01*
X141059121Y-96961767D01*
X141084816Y-96961661D01*
X141234230Y-96954864D01*
X141374044Y-96934459D01*
X141513904Y-96897947D01*
X141663454Y-96842831D01*
X141825881Y-96769719D01*
X141999315Y-96680648D01*
X142156093Y-96586457D01*
X142310237Y-96478187D01*
X142433702Y-96381422D01*
X142492431Y-96332030D01*
X142565280Y-96268248D01*
X142647170Y-96194797D01*
X142733019Y-96116402D01*
X142817748Y-96037785D01*
X142832603Y-96023765D01*
X143582393Y-96023765D01*
X143585268Y-96058963D01*
X143602625Y-96091053D01*
X143634584Y-96098156D01*
X143684372Y-96079588D01*
X143755217Y-96034666D01*
X143777974Y-96018226D01*
X143881253Y-95936391D01*
X143987667Y-95841985D01*
X144088976Y-95743093D01*
X144176940Y-95647803D01*
X144243319Y-95564201D01*
X144249039Y-95555934D01*
X144320520Y-95430500D01*
X144367452Y-95303780D01*
X144388417Y-95182352D01*
X144381994Y-95072796D01*
X144365249Y-95017499D01*
X144332335Y-94964883D01*
X144287076Y-94941481D01*
X144225129Y-94946552D01*
X144142149Y-94979355D01*
X144141962Y-94979446D01*
X144032571Y-95052407D01*
X143928210Y-95161533D01*
X143829339Y-95306222D01*
X143736420Y-95485870D01*
X143710219Y-95545444D01*
X143670300Y-95648875D01*
X143635591Y-95756511D01*
X143608058Y-95860263D01*
X143589669Y-95952044D01*
X143582393Y-96023765D01*
X142832603Y-96023765D01*
X142896277Y-95963669D01*
X142963525Y-95898778D01*
X143014411Y-95847834D01*
X143043857Y-95815559D01*
X143047206Y-95811061D01*
X143062893Y-95779397D01*
X143086407Y-95722073D01*
X143113956Y-95648614D01*
X143130464Y-95601867D01*
X143176749Y-95475657D01*
X143224412Y-95365028D01*
X143279408Y-95258139D01*
X143347691Y-95143151D01*
X143409322Y-95047332D01*
X143548400Y-94859731D01*
X143695788Y-94706833D01*
X143850862Y-94589052D01*
X144012998Y-94506800D01*
X144181572Y-94460488D01*
X144313447Y-94449583D01*
X144399434Y-94451386D01*
X144462928Y-94459207D01*
X144518345Y-94475806D01*
X144569279Y-94498591D01*
X144676569Y-94570731D01*
X144761760Y-94668479D01*
X144824095Y-94787155D01*
X144862814Y-94922076D01*
X144877161Y-95068562D01*
X144866377Y-95221930D01*
X144829704Y-95377500D01*
X144766384Y-95530588D01*
X144743282Y-95573234D01*
X144694957Y-95646142D01*
X144625128Y-95736226D01*
X144540178Y-95836265D01*
X144446492Y-95939037D01*
X144350452Y-96037320D01*
X144258441Y-96123892D01*
X144249721Y-96131615D01*
X144179662Y-96191341D01*
X144090361Y-96264649D01*
X143992332Y-96343048D01*
X143896092Y-96418044D01*
X143877604Y-96432176D01*
X143779050Y-96509685D01*
X143704946Y-96573270D01*
X143657588Y-96620840D01*
X143639575Y-96648812D01*
X143641855Y-96711161D01*
X143674338Y-96778129D01*
X143732019Y-96842781D01*
X143809894Y-96898181D01*
X143825550Y-96906573D01*
X143875499Y-96930944D01*
X143918093Y-96946989D01*
X143963254Y-96956407D01*
X144020903Y-96960900D01*
X144100964Y-96962168D01*
X144149723Y-96962132D01*
X144281234Y-96957696D01*
X144400588Y-96943573D01*
X144516946Y-96917360D01*
X144639473Y-96876657D01*
X144777329Y-96819061D01*
X144882230Y-96770114D01*
X145052900Y-96682516D01*
X145207263Y-96590176D01*
X145359066Y-96484318D01*
X145491089Y-96381422D01*
X145576816Y-96309326D01*
X145680071Y-96218306D01*
X145792571Y-96116022D01*
X145906032Y-96010134D01*
X146012170Y-95908301D01*
X146102702Y-95818182D01*
X146124058Y-95796162D01*
X146213694Y-95712857D01*
X146298938Y-95651869D01*
X146376418Y-95613184D01*
X146442762Y-95596789D01*
X146494598Y-95602669D01*
X146528555Y-95630810D01*
X146541260Y-95681199D01*
X146529341Y-95753820D01*
X146513379Y-95797783D01*
X146475496Y-95868143D01*
X146413548Y-95958700D01*
X146331322Y-96065213D01*
X146232608Y-96183444D01*
X146121193Y-96309151D01*
X146000864Y-96438095D01*
X145875410Y-96566035D01*
X145748618Y-96688732D01*
X145624277Y-96801945D01*
X145588708Y-96832835D01*
X145416885Y-96968490D01*
X145224674Y-97099879D01*
X145021678Y-97221440D01*
X144817498Y-97327609D01*
X144621735Y-97412823D01*
X144531473Y-97445350D01*
X144345671Y-97493992D01*
X144157309Y-97519174D01*
X143971136Y-97521869D01*
X143791902Y-97503053D01*
X143624355Y-97463701D01*
X143473245Y-97404788D01*
X143343322Y-97327288D01*
X143239334Y-97232177D01*
X143193661Y-97170733D01*
X143133959Y-97055777D01*
X143081009Y-96913704D01*
X143038196Y-96754297D01*
X143022430Y-96675568D01*
X143004624Y-96585672D01*
X142985872Y-96526440D01*
X142961735Y-96497122D01*
X142927776Y-96496967D01*
X142879555Y-96525224D01*
X142812634Y-96581143D01*
X142758187Y-96630874D01*
X142565163Y-96802587D01*
X142382966Y-96948837D01*
X142202912Y-97075660D01*
X142016319Y-97189095D01*
X141814504Y-97295179D01*
X141775883Y-97313963D01*
X141625885Y-97383531D01*
X141498493Y-97435732D01*
X141384897Y-97472845D01*
X141276290Y-97497152D01*
X141163861Y-97510933D01*
X141038803Y-97516470D01*
X140992183Y-97516879D01*
X140836465Y-97513088D01*
X140706139Y-97499552D01*
X140590320Y-97474087D01*
X140478126Y-97434508D01*
X140395675Y-97397114D01*
X140269056Y-97315047D01*
X140162717Y-97202598D01*
X140077122Y-97060695D01*
X140012735Y-96890264D01*
X139970019Y-96692233D01*
X139951444Y-96509107D01*
X139944143Y-96406391D01*
X139933450Y-96333806D01*
X139915933Y-96290776D01*
X139888157Y-96276721D01*
X139846689Y-96291065D01*
X139788095Y-96333227D01*
X139708942Y-96402632D01*
X139649003Y-96458185D01*
X139392159Y-96682484D01*
X139107765Y-96902393D01*
X138805267Y-97111530D01*
X138494115Y-97303514D01*
X138183758Y-97471962D01*
X138055713Y-97534254D01*
X137843709Y-97625172D01*
X137626278Y-97702694D01*
X137409271Y-97765542D01*
X137198538Y-97812438D01*
X136999929Y-97842105D01*
X136819295Y-97853266D01*
X136662485Y-97844642D01*
X136645503Y-97842211D01*
X136439242Y-97799893D01*
X136254244Y-97740555D01*
X136094728Y-97665943D01*
X135964914Y-97577802D01*
X135929271Y-97546003D01*
X135828057Y-97425497D01*
X135743065Y-97276290D01*
X135676786Y-97104095D01*
X135631714Y-96914628D01*
X135620520Y-96838106D01*
X135607641Y-96732008D01*
X135802934Y-96527510D01*
X135884540Y-96440201D01*
X135969072Y-96346604D01*
X136047424Y-96256994D01*
X136110488Y-96181643D01*
X136119468Y-96170443D01*
X136199298Y-96070180D01*
X136259194Y-95995561D01*
X136302126Y-95943102D01*
X136331065Y-95909318D01*
X136348980Y-95890725D01*
X136358841Y-95883841D01*
X136363125Y-95884608D01*
X136362041Y-95904634D01*
X136353092Y-95952970D01*
X136337816Y-96022084D01*
X136320352Y-96094142D01*
X136299784Y-96180727D01*
X136285520Y-96255919D01*
X136276419Y-96330524D01*
X136271342Y-96415344D01*
X136269149Y-96521185D01*
X136268784Y-96582935D01*
X136268730Y-96692925D01*
X136270032Y-96773631D01*
X136273705Y-96832821D01*
X136280765Y-96878262D01*
X136292227Y-96917722D01*
X136309105Y-96958968D01*
X136321471Y-96986107D01*
X136389559Y-97099500D01*
X136477114Y-97192679D01*
X136576554Y-97257793D01*
X136589525Y-97263604D01*
X136653950Y-97281438D01*
X136745021Y-97294122D01*
X136852634Y-97301241D01*
X136966686Y-97302383D01*
X137077073Y-97297136D01*
X137162460Y-97287019D01*
X137330051Y-97249806D01*
X137520555Y-97190312D01*
X137728999Y-97110658D01*
X137950408Y-97012962D01*
X138179810Y-96899342D01*
X138412230Y-96771917D01*
X138518920Y-96709170D01*
X138714396Y-96586454D01*
X138914121Y-96451473D01*
X139111670Y-96309128D01*
X139300617Y-96164317D01*
X139436765Y-96052862D01*
X140522155Y-96052862D01*
X140525850Y-96071879D01*
X140548068Y-96096889D01*
X140587262Y-96096429D01*
X140645406Y-96069730D01*
X140724469Y-96016025D01*
X140779853Y-95972872D01*
X140956273Y-95818678D01*
X141099763Y-95667259D01*
X141209528Y-95519720D01*
X141284774Y-95377165D01*
X141324704Y-95240701D01*
X141328857Y-95209836D01*
X141330017Y-95114302D01*
X141314339Y-95032925D01*
X141284033Y-94973688D01*
X141257072Y-94950587D01*
X141195544Y-94937887D01*
X141122155Y-94956346D01*
X141040362Y-95003381D01*
X140953619Y-95076410D01*
X140865383Y-95172851D01*
X140779107Y-95290123D01*
X140757149Y-95324145D01*
X140716745Y-95398184D01*
X140675151Y-95491131D01*
X140634537Y-95595968D01*
X140597074Y-95705676D01*
X140564934Y-95813238D01*
X140540286Y-95911635D01*
X140525303Y-95993849D01*
X140522155Y-96052862D01*
X139436765Y-96052862D01*
X139474538Y-96021940D01*
X139627006Y-95886897D01*
X139733495Y-95783028D01*
X139806919Y-95708665D01*
X139862146Y-95657213D01*
X139905516Y-95623817D01*
X139943366Y-95603621D01*
X139982035Y-95591770D01*
X139983605Y-95591419D01*
X140018380Y-95582878D01*
X140044760Y-95571251D01*
X140067671Y-95550590D01*
X140092043Y-95514950D01*
X140122802Y-95458383D01*
X140164876Y-95374942D01*
X140167748Y-95369191D01*
X140293853Y-95138541D01*
X140424761Y-94943053D01*
X140562129Y-94780968D01*
X140707615Y-94650530D01*
X140862877Y-94549980D01*
X140997961Y-94488856D01*
X141120422Y-94457156D01*
X141252171Y-94446934D01*
X141380682Y-94457955D01*
G37*
%TD*%
D11*
%TO.C,REF\u002A\u002A*%
X118790000Y-86230000D03*
X152120000Y-86240000D03*
%TD*%
D12*
%TO.C,REF\u002A\u002A*%
X98119160Y-78697420D03*
X174119260Y-78697420D03*
X98119160Y-97697390D03*
X174119260Y-97697390D03*
%TD*%
D13*
%TO.C,SW1*%
X106930000Y-84280000D03*
%TD*%
G36*
X107071289Y-94655669D02*
G01*
X107098360Y-94661847D01*
X107230510Y-94708088D01*
X107255528Y-94720136D01*
X107374073Y-94794623D01*
X107395782Y-94811936D01*
X107494778Y-94910932D01*
X107512091Y-94932641D01*
X107586578Y-95051186D01*
X107598626Y-95076204D01*
X107644867Y-95208354D01*
X107651045Y-95235425D01*
X107666720Y-95374547D01*
X107666720Y-95402313D01*
X107651045Y-95541434D01*
X107644867Y-95568505D01*
X107598626Y-95700655D01*
X107586578Y-95725673D01*
X107512091Y-95844218D01*
X107494778Y-95865927D01*
X107395782Y-95964923D01*
X107374073Y-95982236D01*
X107255528Y-96056723D01*
X107230510Y-96068771D01*
X107098360Y-96115012D01*
X107071289Y-96121190D01*
X106932168Y-96136865D01*
X106904402Y-96136865D01*
X106765280Y-96121190D01*
X106738209Y-96115012D01*
X106606059Y-96068771D01*
X106581041Y-96056723D01*
X106462496Y-95982236D01*
X106440787Y-95964923D01*
X106341791Y-95865927D01*
X106324478Y-95844218D01*
X106249991Y-95725673D01*
X106237943Y-95700655D01*
X106191702Y-95568505D01*
X106185524Y-95541434D01*
X106169849Y-95402313D01*
X106169849Y-95374547D01*
X106185524Y-95235425D01*
X106191702Y-95208354D01*
X106237943Y-95076204D01*
X106249991Y-95051186D01*
X106324478Y-94932641D01*
X106341791Y-94910932D01*
X106440787Y-94811936D01*
X106462496Y-94794623D01*
X106581041Y-94720136D01*
X106606059Y-94708088D01*
X106738209Y-94661847D01*
X106765280Y-94655669D01*
X106904402Y-94639994D01*
X106932168Y-94639994D01*
X107071289Y-94655669D01*
G37*
G36*
X119253147Y-94655669D02*
G01*
X119280218Y-94661847D01*
X119412368Y-94708088D01*
X119437386Y-94720136D01*
X119555931Y-94794623D01*
X119577640Y-94811936D01*
X119676636Y-94910932D01*
X119693949Y-94932641D01*
X119768436Y-95051186D01*
X119780484Y-95076204D01*
X119826725Y-95208354D01*
X119832903Y-95235425D01*
X119848578Y-95374547D01*
X119848578Y-95402313D01*
X119832903Y-95541434D01*
X119826725Y-95568505D01*
X119780484Y-95700655D01*
X119768436Y-95725673D01*
X119693949Y-95844218D01*
X119676636Y-95865927D01*
X119577640Y-95964923D01*
X119555931Y-95982236D01*
X119437386Y-96056723D01*
X119412368Y-96068771D01*
X119280218Y-96115012D01*
X119253147Y-96121190D01*
X119114026Y-96136865D01*
X119086260Y-96136865D01*
X118947138Y-96121190D01*
X118920067Y-96115012D01*
X118787917Y-96068771D01*
X118762899Y-96056723D01*
X118644354Y-95982236D01*
X118622645Y-95964923D01*
X118523649Y-95865927D01*
X118506336Y-95844218D01*
X118431849Y-95725673D01*
X118419801Y-95700655D01*
X118373560Y-95568505D01*
X118367382Y-95541434D01*
X118351707Y-95402313D01*
X118351707Y-95374547D01*
X118367382Y-95235425D01*
X118373560Y-95208354D01*
X118419801Y-95076204D01*
X118431849Y-95051186D01*
X118506336Y-94932641D01*
X118523649Y-94910932D01*
X118622645Y-94811936D01*
X118644354Y-94794623D01*
X118762899Y-94720136D01*
X118787917Y-94708088D01*
X118920067Y-94661847D01*
X118947138Y-94655669D01*
X119086260Y-94639994D01*
X119114026Y-94639994D01*
X119253147Y-94655669D01*
G37*
M02*
