%TF.GenerationSoftware,KiCad,Pcbnew,9.0.0*%
%TF.CreationDate,2025-05-16T22:32:30-04:00*%
%TF.ProjectId,Front Plate,46726f6e-7420-4506-9c61-74652e6b6963,rev?*%
%TF.SameCoordinates,Original*%
%TF.FileFunction,Legend,Top*%
%TF.FilePolarity,Positive*%
%FSLAX46Y46*%
G04 Gerber Fmt 4.6, Leading zero omitted, Abs format (unit mm)*
G04 Created by KiCad (PCBNEW 9.0.0) date 2025-05-16 22:32:30*
%MOMM*%
%LPD*%
G01*
G04 APERTURE LIST*
%ADD10C,0.328000*%
%ADD11C,0.320000*%
%ADD12C,0.000000*%
%ADD13C,0.200000*%
%ADD14C,0.300000*%
G04 APERTURE END LIST*
D10*
X168714010Y-92209010D02*
X156904670Y-92209670D01*
X155404670Y-90709670D02*
X155395330Y-77930330D01*
X114326199Y-89986519D02*
X99509910Y-89990090D01*
X120100143Y-95388430D02*
G75*
G02*
X118100143Y-95388430I-1000000J0D01*
G01*
X118100143Y-95388430D02*
G75*
G02*
X120100143Y-95388430I1000000J0D01*
G01*
X164309340Y-95880380D02*
G75*
G02*
X161309340Y-95880380I-1500000J0D01*
G01*
X161309340Y-95880380D02*
G75*
G02*
X164309340Y-95880380I1500000J0D01*
G01*
X168704010Y-76430330D02*
G75*
G02*
X170204070Y-77930330I-10J-1500070D01*
G01*
X99510140Y-92869910D02*
G75*
G02*
X99010090Y-92369885I60J500110D01*
G01*
D11*
X166841398Y-95420061D02*
X166774100Y-95000059D01*
D10*
X114826454Y-92366314D02*
G75*
G02*
X114326429Y-92866354I-500054J14D01*
G01*
X156904670Y-92209670D02*
G75*
G02*
X155404730Y-90709670I30J1499970D01*
G01*
D12*
G36*
X111383529Y-83119375D02*
G01*
X111391837Y-83119993D01*
X111400073Y-83121016D01*
X111408226Y-83122439D01*
X111416280Y-83124255D01*
X111424221Y-83126459D01*
X111432037Y-83129045D01*
X111439714Y-83132007D01*
X111447236Y-83135341D01*
X111454592Y-83139039D01*
X111461766Y-83143096D01*
X111468745Y-83147507D01*
X111475515Y-83152266D01*
X111482062Y-83157366D01*
X111488373Y-83162803D01*
X111494434Y-83168571D01*
X111500201Y-83174632D01*
X111505638Y-83180943D01*
X111510739Y-83187490D01*
X111515497Y-83194261D01*
X111519908Y-83201240D01*
X111523966Y-83208414D01*
X111527664Y-83215769D01*
X111530997Y-83223292D01*
X111533960Y-83230968D01*
X111536546Y-83238784D01*
X111538750Y-83246726D01*
X111540566Y-83254780D01*
X111541988Y-83262932D01*
X111543011Y-83271169D01*
X111543630Y-83279476D01*
X111543837Y-83287840D01*
X111543837Y-84200652D01*
X111543611Y-84209010D01*
X111542976Y-84217311D01*
X111541937Y-84225540D01*
X111540501Y-84233684D01*
X111538672Y-84241730D01*
X111536458Y-84249664D01*
X111533862Y-84257471D01*
X111530892Y-84265139D01*
X111527552Y-84272653D01*
X111523849Y-84280001D01*
X111519788Y-84287167D01*
X111515376Y-84294139D01*
X111510617Y-84300902D01*
X111505517Y-84307444D01*
X111500082Y-84313750D01*
X111494319Y-84319806D01*
X111488262Y-84325570D01*
X111481957Y-84331004D01*
X111475415Y-84336104D01*
X111468652Y-84340863D01*
X111461680Y-84345276D01*
X111454513Y-84349337D01*
X111447166Y-84353040D01*
X111439652Y-84356379D01*
X111431984Y-84359349D01*
X111424176Y-84361945D01*
X111416243Y-84364160D01*
X111408197Y-84365988D01*
X111400053Y-84367425D01*
X111391823Y-84368463D01*
X111383523Y-84369098D01*
X111375165Y-84369324D01*
X111366807Y-84369098D01*
X111358507Y-84368463D01*
X111350277Y-84367425D01*
X111342133Y-84365988D01*
X111334087Y-84364160D01*
X111326154Y-84361945D01*
X111318346Y-84359349D01*
X111310678Y-84356379D01*
X111303164Y-84353040D01*
X111295817Y-84349337D01*
X111288650Y-84345276D01*
X111281678Y-84340863D01*
X111274915Y-84336104D01*
X111268373Y-84331004D01*
X111262068Y-84325570D01*
X111256011Y-84319806D01*
X111250248Y-84313750D01*
X111244813Y-84307444D01*
X111239713Y-84300902D01*
X111234954Y-84294139D01*
X111230541Y-84287167D01*
X111226481Y-84280001D01*
X111222778Y-84272653D01*
X111219438Y-84265139D01*
X111216468Y-84257471D01*
X111213872Y-84249664D01*
X111211658Y-84241730D01*
X111209829Y-84233684D01*
X111208393Y-84225540D01*
X111207354Y-84217311D01*
X111206719Y-84209010D01*
X111206493Y-84200652D01*
X111206493Y-83287840D01*
X111206700Y-83279476D01*
X111207319Y-83271169D01*
X111208342Y-83262932D01*
X111209764Y-83254780D01*
X111211580Y-83246726D01*
X111213784Y-83238784D01*
X111216370Y-83230968D01*
X111219333Y-83223292D01*
X111222666Y-83215769D01*
X111226364Y-83208414D01*
X111230422Y-83201240D01*
X111234833Y-83194261D01*
X111239591Y-83187490D01*
X111244692Y-83180943D01*
X111250129Y-83174632D01*
X111255896Y-83168571D01*
X111261957Y-83162803D01*
X111268268Y-83157366D01*
X111274815Y-83152266D01*
X111281585Y-83147507D01*
X111288564Y-83143096D01*
X111295738Y-83139039D01*
X111303094Y-83135341D01*
X111310616Y-83132007D01*
X111318293Y-83129045D01*
X111326109Y-83126459D01*
X111334050Y-83124255D01*
X111342104Y-83122439D01*
X111350257Y-83121016D01*
X111358493Y-83119993D01*
X111366801Y-83119375D01*
X111375165Y-83119168D01*
X111383529Y-83119375D01*
G37*
D10*
X107918285Y-95388430D02*
G75*
G02*
X105918285Y-95388430I-1000000J0D01*
G01*
X105918285Y-95388430D02*
G75*
G02*
X107918285Y-95388430I1000000J0D01*
G01*
X170214010Y-90709010D02*
G75*
G02*
X168714010Y-92209010I-1500010J10D01*
G01*
X114326429Y-92866339D02*
X99510140Y-92869910D01*
X156895330Y-76430330D02*
X168704010Y-76430330D01*
X109230000Y-84280000D02*
G75*
G02*
X104630000Y-84280000I-2300000J0D01*
G01*
X104630000Y-84280000D02*
G75*
G02*
X109230000Y-84280000I2300000J0D01*
G01*
D11*
X166841398Y-95420061D02*
X166464100Y-95350063D01*
D12*
G36*
X110817876Y-83499571D02*
G01*
X110826219Y-83500228D01*
X110834520Y-83501297D01*
X110842721Y-83502769D01*
X110850811Y-83504636D01*
X110858775Y-83506893D01*
X110866601Y-83509530D01*
X110874275Y-83512542D01*
X110881785Y-83515922D01*
X110889117Y-83519661D01*
X110896257Y-83523753D01*
X110903194Y-83528191D01*
X110909913Y-83532968D01*
X110916402Y-83538077D01*
X110922647Y-83543509D01*
X110928635Y-83549260D01*
X110934354Y-83555320D01*
X110939789Y-83561684D01*
X110944903Y-83568309D01*
X110949661Y-83575149D01*
X110954061Y-83582189D01*
X110958097Y-83589416D01*
X110961766Y-83596815D01*
X110965063Y-83604372D01*
X110967983Y-83612072D01*
X110970524Y-83619900D01*
X110972679Y-83627843D01*
X110974446Y-83635887D01*
X110975819Y-83644016D01*
X110976795Y-83652216D01*
X110977370Y-83660474D01*
X110977538Y-83668774D01*
X110977296Y-83677102D01*
X110976639Y-83685445D01*
X110975570Y-83693746D01*
X110974098Y-83701947D01*
X110972230Y-83710037D01*
X110969974Y-83718001D01*
X110967336Y-83725827D01*
X110964324Y-83733502D01*
X110960945Y-83741012D01*
X110957206Y-83748344D01*
X110953113Y-83755485D01*
X110948675Y-83762421D01*
X110943898Y-83769141D01*
X110938790Y-83775629D01*
X110933357Y-83781874D01*
X110927607Y-83787862D01*
X110921546Y-83793580D01*
X110915183Y-83799015D01*
X110899380Y-83812256D01*
X110883977Y-83825917D01*
X110868983Y-83839989D01*
X110854403Y-83854461D01*
X110840246Y-83869326D01*
X110826519Y-83884572D01*
X110813230Y-83900191D01*
X110800386Y-83916172D01*
X110787994Y-83932507D01*
X110776063Y-83949186D01*
X110764598Y-83966198D01*
X110753609Y-83983536D01*
X110743102Y-84001188D01*
X110733085Y-84019146D01*
X110723566Y-84037400D01*
X110714551Y-84055940D01*
X110706061Y-84074727D01*
X110698113Y-84093719D01*
X110690712Y-84112904D01*
X110683859Y-84132271D01*
X110677556Y-84151807D01*
X110671806Y-84171500D01*
X110666613Y-84191338D01*
X110661978Y-84211311D01*
X110657904Y-84231405D01*
X110654393Y-84251610D01*
X110651448Y-84271912D01*
X110649073Y-84292301D01*
X110647268Y-84312765D01*
X110646037Y-84333291D01*
X110645383Y-84353868D01*
X110645308Y-84374484D01*
X110646793Y-84409504D01*
X110649908Y-84444279D01*
X110654630Y-84478757D01*
X110660938Y-84512886D01*
X110668810Y-84546614D01*
X110678225Y-84579889D01*
X110689161Y-84612657D01*
X110701596Y-84644867D01*
X110715510Y-84676468D01*
X110730880Y-84707405D01*
X110747685Y-84737628D01*
X110765903Y-84767084D01*
X110785513Y-84795721D01*
X110806493Y-84823486D01*
X110828821Y-84850327D01*
X110852477Y-84876193D01*
X110877321Y-84900918D01*
X110903197Y-84924359D01*
X110930052Y-84946491D01*
X110957836Y-84967291D01*
X110986497Y-84986735D01*
X111015984Y-85004800D01*
X111046245Y-85021461D01*
X111077230Y-85036695D01*
X111108888Y-85050478D01*
X111141165Y-85062786D01*
X111174013Y-85073596D01*
X111207379Y-85082884D01*
X111241211Y-85090625D01*
X111275460Y-85096797D01*
X111310073Y-85101375D01*
X111344999Y-85104337D01*
X111374009Y-85105196D01*
X111402950Y-85104914D01*
X111431792Y-85103500D01*
X111460502Y-85100962D01*
X111489048Y-85097309D01*
X111517398Y-85092549D01*
X111545520Y-85086692D01*
X111573383Y-85079746D01*
X111600953Y-85071719D01*
X111628200Y-85062620D01*
X111655090Y-85052458D01*
X111681594Y-85041241D01*
X111707677Y-85028978D01*
X111733309Y-85015678D01*
X111758457Y-85001349D01*
X111783089Y-84986000D01*
X111807097Y-84969693D01*
X111830381Y-84952502D01*
X111852921Y-84934451D01*
X111874695Y-84915568D01*
X111895683Y-84895876D01*
X111915863Y-84875404D01*
X111935215Y-84854175D01*
X111953719Y-84832216D01*
X111971352Y-84809553D01*
X111988096Y-84786211D01*
X112003927Y-84762216D01*
X112018826Y-84737594D01*
X112032773Y-84712371D01*
X112045745Y-84686572D01*
X112057722Y-84660223D01*
X112068684Y-84633349D01*
X112078579Y-84606066D01*
X112087368Y-84578490D01*
X112095051Y-84550654D01*
X112101625Y-84522592D01*
X112107089Y-84494337D01*
X112111441Y-84465922D01*
X112114679Y-84437379D01*
X112116801Y-84408742D01*
X112117805Y-84380045D01*
X112117691Y-84351319D01*
X112116455Y-84322599D01*
X112114096Y-84293917D01*
X112110612Y-84265306D01*
X112106001Y-84236800D01*
X112100263Y-84208431D01*
X112093394Y-84180233D01*
X112085420Y-84152327D01*
X112076379Y-84124832D01*
X112066289Y-84097776D01*
X112055169Y-84071186D01*
X112043035Y-84045089D01*
X112029907Y-84019515D01*
X112015801Y-83994491D01*
X112000736Y-83970045D01*
X111984730Y-83946205D01*
X111967801Y-83922997D01*
X111949966Y-83900452D01*
X111931244Y-83878595D01*
X111911652Y-83857455D01*
X111891209Y-83837061D01*
X111869932Y-83817439D01*
X111847839Y-83798618D01*
X111843229Y-83794692D01*
X111838774Y-83790611D01*
X111834476Y-83786382D01*
X111830338Y-83782008D01*
X111826365Y-83777495D01*
X111822559Y-83772848D01*
X111818923Y-83768070D01*
X111815462Y-83763167D01*
X111812177Y-83758144D01*
X111809073Y-83753005D01*
X111806152Y-83747756D01*
X111803418Y-83742400D01*
X111800874Y-83736943D01*
X111798524Y-83731390D01*
X111796370Y-83725745D01*
X111794416Y-83720013D01*
X111792669Y-83714215D01*
X111791134Y-83708371D01*
X111789813Y-83702488D01*
X111788705Y-83696570D01*
X111787811Y-83690624D01*
X111787130Y-83684656D01*
X111786663Y-83678670D01*
X111786409Y-83672674D01*
X111786370Y-83666672D01*
X111786545Y-83660671D01*
X111786934Y-83654676D01*
X111787537Y-83648694D01*
X111788355Y-83642729D01*
X111789388Y-83636788D01*
X111790636Y-83630877D01*
X111792098Y-83625001D01*
X111793771Y-83619181D01*
X111795648Y-83613439D01*
X111797726Y-83607778D01*
X111800001Y-83602204D01*
X111802472Y-83596722D01*
X111805134Y-83591337D01*
X111807984Y-83586053D01*
X111811021Y-83580875D01*
X111814240Y-83575810D01*
X111817638Y-83570861D01*
X111821213Y-83566033D01*
X111824962Y-83561331D01*
X111828881Y-83556761D01*
X111832968Y-83552327D01*
X111837219Y-83548034D01*
X111841632Y-83543888D01*
X111846192Y-83539903D01*
X111850881Y-83536092D01*
X111855694Y-83532460D01*
X111860627Y-83529008D01*
X111865674Y-83525738D01*
X111870829Y-83522654D01*
X111876088Y-83519757D01*
X111881445Y-83517051D01*
X111886895Y-83514537D01*
X111892433Y-83512219D01*
X111898054Y-83510098D01*
X111903752Y-83508178D01*
X111909522Y-83506460D01*
X111915359Y-83504948D01*
X111921258Y-83503643D01*
X111927214Y-83502549D01*
X111931643Y-83501843D01*
X111936084Y-83501257D01*
X111940534Y-83500790D01*
X111944991Y-83500444D01*
X111949452Y-83500217D01*
X111953915Y-83500110D01*
X111958378Y-83500122D01*
X111962839Y-83500254D01*
X111967294Y-83500505D01*
X111971742Y-83500875D01*
X111976179Y-83501364D01*
X111980605Y-83501973D01*
X111985016Y-83502700D01*
X111989409Y-83503546D01*
X111993783Y-83504510D01*
X111998136Y-83505593D01*
X112002457Y-83506794D01*
X112006738Y-83508108D01*
X112010979Y-83509536D01*
X112015175Y-83511075D01*
X112019326Y-83512725D01*
X112023429Y-83514484D01*
X112027483Y-83516353D01*
X112031484Y-83518328D01*
X112035430Y-83520411D01*
X112039321Y-83522598D01*
X112043153Y-83524889D01*
X112046924Y-83527284D01*
X112050632Y-83529781D01*
X112054275Y-83532378D01*
X112057851Y-83535075D01*
X112061358Y-83537871D01*
X112060564Y-83539855D01*
X112082744Y-83558496D01*
X112104384Y-83577705D01*
X112125475Y-83597468D01*
X112146006Y-83617775D01*
X112165969Y-83638613D01*
X112185354Y-83659969D01*
X112204149Y-83681831D01*
X112222347Y-83704187D01*
X112239937Y-83727024D01*
X112256909Y-83750330D01*
X112273254Y-83774092D01*
X112288962Y-83798300D01*
X112304023Y-83822939D01*
X112318427Y-83847998D01*
X112332165Y-83873464D01*
X112345227Y-83899325D01*
X112357584Y-83925530D01*
X112369214Y-83952025D01*
X112380112Y-83978795D01*
X112390276Y-84005824D01*
X112399701Y-84033098D01*
X112408384Y-84060601D01*
X112416321Y-84088318D01*
X112423508Y-84116233D01*
X112429942Y-84144332D01*
X112435619Y-84172598D01*
X112440534Y-84201017D01*
X112444686Y-84229574D01*
X112448068Y-84258253D01*
X112450679Y-84287038D01*
X112452514Y-84315915D01*
X112453570Y-84344869D01*
X112453842Y-84373840D01*
X112453332Y-84402770D01*
X112452043Y-84431645D01*
X112449978Y-84460448D01*
X112447140Y-84489165D01*
X112443532Y-84517780D01*
X112439157Y-84546277D01*
X112434018Y-84574641D01*
X112428117Y-84602857D01*
X112421459Y-84630908D01*
X112414045Y-84658780D01*
X112405879Y-84686458D01*
X112396965Y-84713925D01*
X112387304Y-84741166D01*
X112376901Y-84768166D01*
X112365757Y-84794909D01*
X112353895Y-84821342D01*
X112341340Y-84847411D01*
X112328100Y-84873104D01*
X112314184Y-84898407D01*
X112299603Y-84923309D01*
X112284364Y-84947795D01*
X112268478Y-84971854D01*
X112251953Y-84995473D01*
X112234799Y-85018639D01*
X112217025Y-85041339D01*
X112198639Y-85063561D01*
X112179652Y-85085291D01*
X112160073Y-85106517D01*
X112139910Y-85127226D01*
X112119173Y-85147406D01*
X112097870Y-85167043D01*
X112060526Y-85199397D01*
X112021867Y-85229864D01*
X111981966Y-85258415D01*
X111940898Y-85285022D01*
X111898733Y-85309658D01*
X111855547Y-85332294D01*
X111811410Y-85352902D01*
X111766397Y-85371454D01*
X111720581Y-85387922D01*
X111674034Y-85402277D01*
X111626829Y-85414492D01*
X111579040Y-85424538D01*
X111530739Y-85432388D01*
X111481999Y-85438012D01*
X111432894Y-85441384D01*
X111383495Y-85442474D01*
X111368582Y-85442393D01*
X111353672Y-85442108D01*
X111338770Y-85441620D01*
X111323876Y-85440927D01*
X111308994Y-85440032D01*
X111294124Y-85438932D01*
X111279270Y-85437630D01*
X111264433Y-85436124D01*
X111225130Y-85431093D01*
X111186132Y-85424633D01*
X111147478Y-85416758D01*
X111109202Y-85407486D01*
X111071342Y-85396830D01*
X111033934Y-85384807D01*
X110997015Y-85371432D01*
X110960622Y-85356721D01*
X110924791Y-85340690D01*
X110889558Y-85323353D01*
X110854961Y-85304727D01*
X110821036Y-85284828D01*
X110787819Y-85263670D01*
X110755348Y-85241270D01*
X110723658Y-85217643D01*
X110692786Y-85192804D01*
X110662852Y-85166844D01*
X110633964Y-85139863D01*
X110606145Y-85111895D01*
X110579416Y-85082972D01*
X110553799Y-85053128D01*
X110529315Y-85022396D01*
X110505988Y-84990809D01*
X110483838Y-84958402D01*
X110462888Y-84925206D01*
X110443159Y-84891255D01*
X110424673Y-84856583D01*
X110407452Y-84821223D01*
X110391518Y-84785208D01*
X110376892Y-84748571D01*
X110363597Y-84711345D01*
X110351655Y-84673565D01*
X110341114Y-84635369D01*
X110332010Y-84596903D01*
X110324343Y-84558207D01*
X110318111Y-84519321D01*
X110313316Y-84480284D01*
X110309957Y-84441135D01*
X110308033Y-84401916D01*
X110307545Y-84362665D01*
X110308492Y-84323422D01*
X110310873Y-84284228D01*
X110314690Y-84245121D01*
X110319941Y-84206142D01*
X110326626Y-84167331D01*
X110334744Y-84128727D01*
X110344297Y-84090370D01*
X110355283Y-84052300D01*
X110367666Y-84014662D01*
X110381395Y-83977594D01*
X110396448Y-83941130D01*
X110412801Y-83905304D01*
X110430434Y-83870147D01*
X110449324Y-83835693D01*
X110469448Y-83801975D01*
X110490785Y-83769026D01*
X110513312Y-83736880D01*
X110537007Y-83705568D01*
X110561847Y-83675124D01*
X110587811Y-83645581D01*
X110614877Y-83616971D01*
X110643021Y-83589329D01*
X110672222Y-83562687D01*
X110702458Y-83537077D01*
X110709083Y-83531965D01*
X110715923Y-83527207D01*
X110722963Y-83522808D01*
X110730190Y-83518772D01*
X110737589Y-83515103D01*
X110745145Y-83511807D01*
X110752845Y-83508886D01*
X110760673Y-83506346D01*
X110768616Y-83504190D01*
X110776659Y-83502423D01*
X110784788Y-83501050D01*
X110792989Y-83500073D01*
X110801247Y-83499499D01*
X110809547Y-83499330D01*
X110817876Y-83499571D01*
G37*
D11*
X166995745Y-95909013D02*
G75*
G02*
X166841404Y-95420056I-851645J13D01*
G01*
D10*
X155395330Y-77930330D02*
G75*
G02*
X156895330Y-76430330I1500070J-70D01*
G01*
D12*
G36*
X119165143Y-98593798D02*
G01*
X119999771Y-98593798D01*
X119032851Y-100527638D01*
X119032851Y-99255256D01*
X118198223Y-99255256D01*
X118264369Y-99122965D01*
X119165143Y-97321417D01*
X119165143Y-98593798D01*
G37*
D10*
X114826454Y-92366314D02*
X114826224Y-90486544D01*
X99009885Y-90490115D02*
G75*
G02*
X99509910Y-89990085I500015J15D01*
G01*
X99010115Y-92369885D02*
X99009885Y-90490115D01*
X114326199Y-89986519D02*
G75*
G02*
X114826181Y-90486544I-99J-500081D01*
G01*
X170204010Y-77930330D02*
X170214010Y-90709010D01*
D12*
G36*
X107921510Y-97469177D02*
G01*
X107931283Y-97469904D01*
X107940974Y-97471107D01*
X107950564Y-97472781D01*
X107960040Y-97474917D01*
X107969383Y-97477510D01*
X107978578Y-97480553D01*
X107987609Y-97484038D01*
X107996459Y-97487959D01*
X108005113Y-97492310D01*
X108013553Y-97497083D01*
X108021763Y-97502272D01*
X108029729Y-97507871D01*
X108037432Y-97513872D01*
X108044856Y-97520268D01*
X108051987Y-97527054D01*
X108058772Y-97534184D01*
X108065169Y-97541609D01*
X108071170Y-97549312D01*
X108076768Y-97557277D01*
X108081957Y-97565488D01*
X108086731Y-97573928D01*
X108091081Y-97582581D01*
X108095003Y-97591431D01*
X108098488Y-97600462D01*
X108101530Y-97609658D01*
X108104123Y-97619001D01*
X108106260Y-97628476D01*
X108107933Y-97638067D01*
X108109137Y-97647757D01*
X108109864Y-97657530D01*
X108110108Y-97667370D01*
X108110108Y-100247058D01*
X108109945Y-100253618D01*
X108109460Y-100260133D01*
X108108658Y-100266593D01*
X108107542Y-100272987D01*
X108106118Y-100279304D01*
X108104390Y-100285533D01*
X108102361Y-100291663D01*
X108100038Y-100297683D01*
X108097424Y-100303584D01*
X108094523Y-100309352D01*
X108091341Y-100314979D01*
X108087881Y-100320453D01*
X108084149Y-100325763D01*
X108080149Y-100330898D01*
X108075884Y-100335848D01*
X108071361Y-100340602D01*
X108066607Y-100345125D01*
X108061657Y-100349390D01*
X108056522Y-100353390D01*
X108051212Y-100357123D01*
X108045738Y-100360582D01*
X108040111Y-100363764D01*
X108034342Y-100366665D01*
X108028442Y-100369279D01*
X108022422Y-100371603D01*
X108016291Y-100373631D01*
X108010062Y-100375359D01*
X108003746Y-100376784D01*
X107997352Y-100377899D01*
X107990892Y-100378702D01*
X107984376Y-100379187D01*
X107977816Y-100379349D01*
X105861150Y-100379349D01*
X105854590Y-100379187D01*
X105848074Y-100378702D01*
X105841614Y-100377899D01*
X105835220Y-100376784D01*
X105828903Y-100375359D01*
X105822675Y-100373631D01*
X105816544Y-100371603D01*
X105810524Y-100369279D01*
X105804624Y-100366665D01*
X105798855Y-100363764D01*
X105793228Y-100360582D01*
X105787754Y-100357123D01*
X105782444Y-100353390D01*
X105777309Y-100349390D01*
X105772359Y-100345125D01*
X105767605Y-100340602D01*
X105763082Y-100335848D01*
X105758817Y-100330898D01*
X105754817Y-100325763D01*
X105751085Y-100320453D01*
X105747625Y-100314979D01*
X105744443Y-100309352D01*
X105741542Y-100303584D01*
X105738928Y-100297683D01*
X105736605Y-100291663D01*
X105734576Y-100285533D01*
X105732848Y-100279304D01*
X105731423Y-100272987D01*
X105730308Y-100266593D01*
X105729505Y-100260133D01*
X105729021Y-100253618D01*
X105728858Y-100247058D01*
X105728858Y-99817110D01*
X106588754Y-99817110D01*
X106588794Y-99818749D01*
X106588916Y-99820378D01*
X106589116Y-99821993D01*
X106589395Y-99823592D01*
X106589751Y-99825171D01*
X106590183Y-99826728D01*
X106590690Y-99828261D01*
X106591271Y-99829766D01*
X106591925Y-99831241D01*
X106592650Y-99832683D01*
X106593445Y-99834090D01*
X106594310Y-99835458D01*
X106595243Y-99836786D01*
X106596244Y-99838070D01*
X106597310Y-99839307D01*
X106598441Y-99840496D01*
X106599629Y-99841627D01*
X106600866Y-99842693D01*
X106602150Y-99843693D01*
X106603478Y-99844626D01*
X106604846Y-99845491D01*
X106606253Y-99846286D01*
X106607695Y-99847011D01*
X106609170Y-99847665D01*
X106610675Y-99848246D01*
X106612208Y-99848753D01*
X106613765Y-99849185D01*
X106615344Y-99849541D01*
X106616943Y-99849820D01*
X106618558Y-99850021D01*
X106620187Y-99850142D01*
X106621827Y-99850182D01*
X107547868Y-99850182D01*
X107549508Y-99850142D01*
X107551137Y-99850021D01*
X107552752Y-99849820D01*
X107554351Y-99849541D01*
X107555930Y-99849185D01*
X107557487Y-99848753D01*
X107559020Y-99848246D01*
X107560525Y-99847665D01*
X107562000Y-99847011D01*
X107563442Y-99846286D01*
X107564849Y-99845491D01*
X107566217Y-99844626D01*
X107567545Y-99843693D01*
X107568829Y-99842693D01*
X107570066Y-99841627D01*
X107571254Y-99840496D01*
X107572385Y-99839307D01*
X107573451Y-99838070D01*
X107574452Y-99836786D01*
X107575385Y-99835458D01*
X107576249Y-99834090D01*
X107577045Y-99832683D01*
X107577770Y-99831241D01*
X107578424Y-99829766D01*
X107579005Y-99828261D01*
X107579512Y-99826728D01*
X107579944Y-99825171D01*
X107580300Y-99823592D01*
X107580579Y-99821993D01*
X107580779Y-99820378D01*
X107580900Y-99818749D01*
X107580941Y-99817110D01*
X107580941Y-99750964D01*
X107580900Y-99749324D01*
X107580779Y-99747695D01*
X107580579Y-99746080D01*
X107580300Y-99744482D01*
X107579944Y-99742902D01*
X107579512Y-99741345D01*
X107579005Y-99739813D01*
X107578424Y-99738307D01*
X107577770Y-99736832D01*
X107577045Y-99735390D01*
X107576249Y-99733983D01*
X107575385Y-99732615D01*
X107574452Y-99731287D01*
X107573451Y-99730004D01*
X107572385Y-99728766D01*
X107571254Y-99727578D01*
X107570066Y-99726447D01*
X107568829Y-99725381D01*
X107567545Y-99724380D01*
X107566217Y-99723447D01*
X107564849Y-99722583D01*
X107563442Y-99721787D01*
X107562000Y-99721062D01*
X107560525Y-99720408D01*
X107559020Y-99719827D01*
X107557487Y-99719320D01*
X107555930Y-99718888D01*
X107554351Y-99718532D01*
X107552752Y-99718253D01*
X107551137Y-99718053D01*
X107549508Y-99717932D01*
X107547868Y-99717891D01*
X106621827Y-99717891D01*
X106620187Y-99717932D01*
X106618558Y-99718053D01*
X106616943Y-99718253D01*
X106615344Y-99718532D01*
X106613765Y-99718888D01*
X106612208Y-99719320D01*
X106610675Y-99719827D01*
X106609170Y-99720408D01*
X106607695Y-99721062D01*
X106606253Y-99721787D01*
X106604846Y-99722583D01*
X106603478Y-99723447D01*
X106602150Y-99724380D01*
X106600866Y-99725381D01*
X106599629Y-99726447D01*
X106598441Y-99727578D01*
X106597310Y-99728766D01*
X106596244Y-99730004D01*
X106595243Y-99731287D01*
X106594310Y-99732615D01*
X106593445Y-99733983D01*
X106592650Y-99735390D01*
X106591925Y-99736832D01*
X106591271Y-99738307D01*
X106590690Y-99739813D01*
X106590183Y-99741345D01*
X106589751Y-99742902D01*
X106589395Y-99744482D01*
X106589116Y-99746080D01*
X106588916Y-99747695D01*
X106588794Y-99749324D01*
X106588754Y-99750964D01*
X106588754Y-99817110D01*
X105728858Y-99817110D01*
X105728858Y-99750964D01*
X105728858Y-99599291D01*
X105728981Y-99594375D01*
X105729345Y-99589492D01*
X105729947Y-99584650D01*
X105730784Y-99579858D01*
X105731851Y-99575124D01*
X105733147Y-99570455D01*
X105734667Y-99565861D01*
X105736409Y-99561348D01*
X105738368Y-99556926D01*
X105740541Y-99552602D01*
X105742926Y-99548384D01*
X105745518Y-99544281D01*
X105748314Y-99540301D01*
X105751312Y-99536451D01*
X105754507Y-99532741D01*
X105757896Y-99529177D01*
X105993441Y-99293632D01*
X105993441Y-99056433D01*
X105795004Y-99056433D01*
X105791724Y-99056351D01*
X105788466Y-99056109D01*
X105785236Y-99055708D01*
X105782039Y-99055150D01*
X105778881Y-99054438D01*
X105775766Y-99053573D01*
X105772701Y-99052559D01*
X105769691Y-99051398D01*
X105766741Y-99050090D01*
X105763856Y-99048640D01*
X105761043Y-99047049D01*
X105758306Y-99045319D01*
X105755651Y-99043453D01*
X105753083Y-99041453D01*
X105750608Y-99039321D01*
X105748232Y-99037059D01*
X105745970Y-99034682D01*
X105743838Y-99032207D01*
X105741837Y-99029640D01*
X105739971Y-99026985D01*
X105738241Y-99024248D01*
X105736650Y-99021434D01*
X105735200Y-99018550D01*
X105733893Y-99015600D01*
X105732731Y-99012589D01*
X105731717Y-99009524D01*
X105730853Y-99006410D01*
X105730141Y-99003251D01*
X105729583Y-99000054D01*
X105729182Y-98996824D01*
X105728939Y-98993567D01*
X105728858Y-98990287D01*
X105728858Y-98673316D01*
X105728978Y-98668395D01*
X105729339Y-98663507D01*
X105729939Y-98658661D01*
X105730774Y-98653865D01*
X105731840Y-98649126D01*
X105733135Y-98644453D01*
X105734655Y-98639854D01*
X105736396Y-98635337D01*
X105738355Y-98630910D01*
X105740529Y-98626582D01*
X105742915Y-98622361D01*
X105745508Y-98618254D01*
X105748307Y-98614269D01*
X105751306Y-98610416D01*
X105754504Y-98606702D01*
X105757896Y-98603135D01*
X106059587Y-98301444D01*
X106059587Y-98097318D01*
X106390316Y-98097318D01*
X106390357Y-98098958D01*
X106390478Y-98100587D01*
X106390679Y-98102202D01*
X106390958Y-98103800D01*
X106391314Y-98105380D01*
X106391746Y-98106937D01*
X106392253Y-98108469D01*
X106392834Y-98109975D01*
X106393487Y-98111450D01*
X106394212Y-98112892D01*
X106395008Y-98114298D01*
X106395873Y-98115667D01*
X106396806Y-98116994D01*
X106397806Y-98118278D01*
X106398872Y-98119516D01*
X106400003Y-98120704D01*
X106401192Y-98121835D01*
X106402429Y-98122901D01*
X106403713Y-98123901D01*
X106405040Y-98124834D01*
X106406409Y-98125699D01*
X106407816Y-98126495D01*
X106409258Y-98127220D01*
X106410733Y-98127873D01*
X106412238Y-98128454D01*
X106413770Y-98128961D01*
X106415328Y-98129393D01*
X106416907Y-98129750D01*
X106418505Y-98130028D01*
X106420120Y-98130229D01*
X106421749Y-98130350D01*
X106423389Y-98130391D01*
X106489535Y-98130391D01*
X106491175Y-98130350D01*
X106492804Y-98130229D01*
X106494419Y-98130028D01*
X106496017Y-98129750D01*
X106497597Y-98129393D01*
X106499154Y-98128961D01*
X106500686Y-98128454D01*
X106502191Y-98127873D01*
X106503667Y-98127220D01*
X106505109Y-98126495D01*
X106506515Y-98125699D01*
X106507884Y-98124834D01*
X106509211Y-98123901D01*
X106510495Y-98122901D01*
X106511733Y-98121835D01*
X106512921Y-98120704D01*
X106514052Y-98119516D01*
X106515118Y-98118278D01*
X106516118Y-98116994D01*
X106517051Y-98115667D01*
X106517916Y-98114298D01*
X106518712Y-98112892D01*
X106519437Y-98111450D01*
X106520090Y-98109975D01*
X106520671Y-98108469D01*
X106521178Y-98106937D01*
X106521611Y-98105380D01*
X106521967Y-98103800D01*
X106522246Y-98102202D01*
X106522446Y-98100587D01*
X106522567Y-98098958D01*
X106522608Y-98097318D01*
X106654900Y-98097318D01*
X106654940Y-98098958D01*
X106655061Y-98100587D01*
X106655262Y-98102202D01*
X106655541Y-98103800D01*
X106655897Y-98105380D01*
X106656329Y-98106937D01*
X106656836Y-98108469D01*
X106657417Y-98109975D01*
X106658071Y-98111450D01*
X106658796Y-98112892D01*
X106659591Y-98114298D01*
X106660456Y-98115667D01*
X106661389Y-98116994D01*
X106662389Y-98118278D01*
X106663456Y-98119516D01*
X106664586Y-98120704D01*
X106665775Y-98121835D01*
X106667012Y-98122901D01*
X106668296Y-98123901D01*
X106669624Y-98124834D01*
X106670992Y-98125699D01*
X106672399Y-98126495D01*
X106673841Y-98127220D01*
X106675316Y-98127873D01*
X106676821Y-98128454D01*
X106678354Y-98128961D01*
X106679911Y-98129393D01*
X106681490Y-98129750D01*
X106683089Y-98130028D01*
X106684704Y-98130229D01*
X106686332Y-98130350D01*
X106687972Y-98130391D01*
X106754118Y-98130391D01*
X106755758Y-98130350D01*
X106757387Y-98130229D01*
X106759002Y-98130028D01*
X106760601Y-98129750D01*
X106762180Y-98129393D01*
X106763737Y-98128961D01*
X106765270Y-98128454D01*
X106766775Y-98127873D01*
X106768250Y-98127220D01*
X106769692Y-98126495D01*
X106771099Y-98125699D01*
X106772467Y-98124834D01*
X106773795Y-98123901D01*
X106775079Y-98122901D01*
X106776316Y-98121835D01*
X106777504Y-98120704D01*
X106778635Y-98119516D01*
X106779701Y-98118278D01*
X106780702Y-98116994D01*
X106781635Y-98115667D01*
X106782500Y-98114298D01*
X106783295Y-98112892D01*
X106784020Y-98111450D01*
X106784674Y-98109975D01*
X106785255Y-98108469D01*
X106785762Y-98106937D01*
X106786194Y-98105380D01*
X106786550Y-98103800D01*
X106786829Y-98102202D01*
X106787029Y-98100587D01*
X106787151Y-98098958D01*
X106787191Y-98097318D01*
X106919483Y-98097318D01*
X106919524Y-98098958D01*
X106919645Y-98100587D01*
X106919845Y-98102202D01*
X106920124Y-98103800D01*
X106920480Y-98105380D01*
X106920912Y-98106937D01*
X106921420Y-98108469D01*
X106922000Y-98109975D01*
X106922654Y-98111450D01*
X106923379Y-98112892D01*
X106924175Y-98114298D01*
X106925040Y-98115667D01*
X106925973Y-98116994D01*
X106926973Y-98118278D01*
X106928039Y-98119516D01*
X106929170Y-98120704D01*
X106930358Y-98121835D01*
X106931596Y-98122901D01*
X106932879Y-98123901D01*
X106934207Y-98124834D01*
X106935575Y-98125699D01*
X106936982Y-98126495D01*
X106938424Y-98127220D01*
X106939899Y-98127873D01*
X106941405Y-98128454D01*
X106942937Y-98128961D01*
X106944494Y-98129393D01*
X106946074Y-98129750D01*
X106947672Y-98130028D01*
X106949287Y-98130229D01*
X106950916Y-98130350D01*
X106952556Y-98130391D01*
X107018702Y-98130391D01*
X107020342Y-98130350D01*
X107021971Y-98130229D01*
X107023586Y-98130028D01*
X107025184Y-98129750D01*
X107026763Y-98129393D01*
X107028320Y-98128961D01*
X107029853Y-98128454D01*
X107031358Y-98127873D01*
X107032833Y-98127220D01*
X107034275Y-98126495D01*
X107035682Y-98125699D01*
X107037051Y-98124834D01*
X107038378Y-98123901D01*
X107039662Y-98122901D01*
X107040899Y-98121835D01*
X107042088Y-98120704D01*
X107043219Y-98119516D01*
X107044285Y-98118278D01*
X107045285Y-98116994D01*
X107046218Y-98115667D01*
X107047083Y-98114298D01*
X107047878Y-98112892D01*
X107048604Y-98111450D01*
X107049257Y-98109975D01*
X107049838Y-98108469D01*
X107050345Y-98106937D01*
X107050777Y-98105380D01*
X107051133Y-98103800D01*
X107051412Y-98102202D01*
X107051613Y-98100587D01*
X107051734Y-98098958D01*
X107051775Y-98097318D01*
X107184066Y-98097318D01*
X107184107Y-98098958D01*
X107184228Y-98100587D01*
X107184429Y-98102202D01*
X107184708Y-98103800D01*
X107185064Y-98105380D01*
X107185496Y-98106937D01*
X107186003Y-98108469D01*
X107186584Y-98109975D01*
X107187237Y-98111450D01*
X107187962Y-98112892D01*
X107188758Y-98114298D01*
X107189623Y-98115667D01*
X107190556Y-98116994D01*
X107191556Y-98118278D01*
X107192622Y-98119516D01*
X107193753Y-98120704D01*
X107194941Y-98121835D01*
X107196179Y-98122901D01*
X107197463Y-98123901D01*
X107198790Y-98124834D01*
X107200159Y-98125699D01*
X107201565Y-98126495D01*
X107203008Y-98127220D01*
X107204483Y-98127873D01*
X107205988Y-98128454D01*
X107207520Y-98128961D01*
X107209078Y-98129393D01*
X107210657Y-98129750D01*
X107212255Y-98130028D01*
X107213870Y-98130229D01*
X107215499Y-98130350D01*
X107217139Y-98130391D01*
X107283285Y-98130391D01*
X107284925Y-98130350D01*
X107286554Y-98130229D01*
X107288169Y-98130028D01*
X107289767Y-98129750D01*
X107291347Y-98129393D01*
X107292904Y-98128961D01*
X107294436Y-98128454D01*
X107295941Y-98127873D01*
X107297416Y-98127220D01*
X107298859Y-98126495D01*
X107300265Y-98125699D01*
X107301634Y-98124834D01*
X107302961Y-98123901D01*
X107304245Y-98122901D01*
X107305483Y-98121835D01*
X107306671Y-98120704D01*
X107307802Y-98119516D01*
X107308868Y-98118278D01*
X107309868Y-98116994D01*
X107310801Y-98115667D01*
X107311666Y-98114298D01*
X107312462Y-98112892D01*
X107313187Y-98111450D01*
X107313840Y-98109975D01*
X107314421Y-98108469D01*
X107314928Y-98106937D01*
X107315360Y-98105380D01*
X107315717Y-98103800D01*
X107315995Y-98102202D01*
X107316196Y-98100587D01*
X107316317Y-98098958D01*
X107316358Y-98097318D01*
X107448650Y-98097318D01*
X107448690Y-98098958D01*
X107448811Y-98100587D01*
X107449012Y-98102202D01*
X107449291Y-98103800D01*
X107449647Y-98105380D01*
X107450079Y-98106937D01*
X107450586Y-98108469D01*
X107451167Y-98109975D01*
X107451821Y-98111450D01*
X107452546Y-98112892D01*
X107453341Y-98114298D01*
X107454206Y-98115667D01*
X107455139Y-98116994D01*
X107456139Y-98118278D01*
X107457205Y-98119516D01*
X107458336Y-98120704D01*
X107459525Y-98121835D01*
X107460762Y-98122901D01*
X107462046Y-98123901D01*
X107463374Y-98124834D01*
X107464742Y-98125699D01*
X107466149Y-98126495D01*
X107467591Y-98127220D01*
X107469066Y-98127873D01*
X107470571Y-98128454D01*
X107472104Y-98128961D01*
X107473661Y-98129393D01*
X107475240Y-98129750D01*
X107476839Y-98130028D01*
X107478454Y-98130229D01*
X107480083Y-98130350D01*
X107481723Y-98130391D01*
X107547868Y-98130391D01*
X107549508Y-98130350D01*
X107551137Y-98130229D01*
X107552752Y-98130028D01*
X107554351Y-98129750D01*
X107555930Y-98129393D01*
X107557487Y-98128961D01*
X107559020Y-98128454D01*
X107560525Y-98127873D01*
X107562000Y-98127220D01*
X107563442Y-98126495D01*
X107564849Y-98125699D01*
X107566217Y-98124834D01*
X107567545Y-98123901D01*
X107568829Y-98122901D01*
X107570066Y-98121835D01*
X107571254Y-98120704D01*
X107572385Y-98119516D01*
X107573451Y-98118278D01*
X107574452Y-98116994D01*
X107575385Y-98115667D01*
X107576249Y-98114298D01*
X107577045Y-98112892D01*
X107577770Y-98111450D01*
X107578424Y-98109975D01*
X107579005Y-98108469D01*
X107579512Y-98106937D01*
X107579944Y-98105380D01*
X107580300Y-98103800D01*
X107580579Y-98102202D01*
X107580779Y-98100587D01*
X107580900Y-98098958D01*
X107580941Y-98097318D01*
X107713233Y-98097318D01*
X107713274Y-98098958D01*
X107713395Y-98100587D01*
X107713595Y-98102202D01*
X107713874Y-98103800D01*
X107714230Y-98105380D01*
X107714662Y-98106937D01*
X107715169Y-98108469D01*
X107715750Y-98109975D01*
X107716404Y-98111450D01*
X107717129Y-98112892D01*
X107717925Y-98114298D01*
X107718789Y-98115667D01*
X107719722Y-98116994D01*
X107720723Y-98118278D01*
X107721789Y-98119516D01*
X107722920Y-98120704D01*
X107724108Y-98121835D01*
X107725346Y-98122901D01*
X107726629Y-98123901D01*
X107727957Y-98124834D01*
X107729325Y-98125699D01*
X107730732Y-98126495D01*
X107732174Y-98127220D01*
X107733649Y-98127873D01*
X107735155Y-98128454D01*
X107736687Y-98128961D01*
X107738244Y-98129393D01*
X107739824Y-98129750D01*
X107741422Y-98130028D01*
X107743037Y-98130229D01*
X107744666Y-98130350D01*
X107746306Y-98130391D01*
X107812452Y-98130391D01*
X107814091Y-98130350D01*
X107815720Y-98130229D01*
X107817335Y-98130028D01*
X107818934Y-98129750D01*
X107820513Y-98129393D01*
X107822070Y-98128961D01*
X107823603Y-98128454D01*
X107825108Y-98127873D01*
X107826583Y-98127220D01*
X107828025Y-98126495D01*
X107829432Y-98125699D01*
X107830800Y-98124834D01*
X107832128Y-98123901D01*
X107833412Y-98122901D01*
X107834649Y-98121835D01*
X107835838Y-98120704D01*
X107836969Y-98119516D01*
X107838035Y-98118278D01*
X107839035Y-98116994D01*
X107839968Y-98115667D01*
X107840833Y-98114298D01*
X107841628Y-98112892D01*
X107842353Y-98111450D01*
X107843007Y-98109975D01*
X107843588Y-98108469D01*
X107844095Y-98106937D01*
X107844527Y-98105380D01*
X107844883Y-98103800D01*
X107845162Y-98102202D01*
X107845363Y-98100587D01*
X107845484Y-98098958D01*
X107845524Y-98097318D01*
X107845524Y-97766589D01*
X107845484Y-97764949D01*
X107845363Y-97763320D01*
X107845162Y-97761705D01*
X107844883Y-97760107D01*
X107844527Y-97758527D01*
X107844095Y-97756970D01*
X107843588Y-97755438D01*
X107843007Y-97753932D01*
X107842353Y-97752457D01*
X107841628Y-97751015D01*
X107840833Y-97749608D01*
X107839968Y-97748240D01*
X107839035Y-97746913D01*
X107838035Y-97745629D01*
X107836969Y-97744391D01*
X107835838Y-97743203D01*
X107834649Y-97742072D01*
X107833412Y-97741006D01*
X107832128Y-97740006D01*
X107830800Y-97739073D01*
X107829432Y-97738208D01*
X107828025Y-97737412D01*
X107826583Y-97736687D01*
X107825108Y-97736034D01*
X107823603Y-97735453D01*
X107822070Y-97734946D01*
X107820513Y-97734513D01*
X107818934Y-97734157D01*
X107817335Y-97733878D01*
X107815720Y-97733678D01*
X107814091Y-97733557D01*
X107812452Y-97733516D01*
X107746306Y-97733516D01*
X107744666Y-97733557D01*
X107743037Y-97733678D01*
X107741422Y-97733878D01*
X107739824Y-97734157D01*
X107738244Y-97734513D01*
X107736687Y-97734946D01*
X107735155Y-97735453D01*
X107733649Y-97736034D01*
X107732174Y-97736687D01*
X107730732Y-97737412D01*
X107729325Y-97738208D01*
X107727957Y-97739073D01*
X107726629Y-97740006D01*
X107725346Y-97741006D01*
X107724108Y-97742072D01*
X107722920Y-97743203D01*
X107721789Y-97744391D01*
X107720723Y-97745629D01*
X107719722Y-97746913D01*
X107718789Y-97748240D01*
X107717925Y-97749608D01*
X107717129Y-97751015D01*
X107716404Y-97752457D01*
X107715750Y-97753932D01*
X107715169Y-97755438D01*
X107714662Y-97756970D01*
X107714230Y-97758527D01*
X107713874Y-97760107D01*
X107713595Y-97761705D01*
X107713395Y-97763320D01*
X107713274Y-97764949D01*
X107713233Y-97766589D01*
X107713233Y-98097318D01*
X107580941Y-98097318D01*
X107580941Y-97766589D01*
X107580900Y-97764949D01*
X107580779Y-97763320D01*
X107580579Y-97761705D01*
X107580300Y-97760107D01*
X107579944Y-97758527D01*
X107579512Y-97756970D01*
X107579005Y-97755438D01*
X107578424Y-97753932D01*
X107577770Y-97752457D01*
X107577045Y-97751015D01*
X107576249Y-97749608D01*
X107575385Y-97748240D01*
X107574452Y-97746913D01*
X107573451Y-97745629D01*
X107572385Y-97744391D01*
X107571254Y-97743203D01*
X107570066Y-97742072D01*
X107568829Y-97741006D01*
X107567545Y-97740006D01*
X107566217Y-97739073D01*
X107564849Y-97738208D01*
X107563442Y-97737412D01*
X107562000Y-97736687D01*
X107560525Y-97736034D01*
X107559020Y-97735453D01*
X107557487Y-97734946D01*
X107555930Y-97734513D01*
X107554351Y-97734157D01*
X107552752Y-97733878D01*
X107551137Y-97733678D01*
X107549508Y-97733557D01*
X107547868Y-97733516D01*
X107481723Y-97733516D01*
X107480083Y-97733557D01*
X107478454Y-97733678D01*
X107476839Y-97733878D01*
X107475240Y-97734157D01*
X107473661Y-97734513D01*
X107472104Y-97734946D01*
X107470571Y-97735453D01*
X107469066Y-97736034D01*
X107467591Y-97736687D01*
X107466149Y-97737412D01*
X107464742Y-97738208D01*
X107463374Y-97739073D01*
X107462046Y-97740006D01*
X107460762Y-97741006D01*
X107459525Y-97742072D01*
X107458336Y-97743203D01*
X107457205Y-97744391D01*
X107456139Y-97745629D01*
X107455139Y-97746913D01*
X107454206Y-97748240D01*
X107453341Y-97749608D01*
X107452546Y-97751015D01*
X107451821Y-97752457D01*
X107451167Y-97753932D01*
X107450586Y-97755438D01*
X107450079Y-97756970D01*
X107449647Y-97758527D01*
X107449291Y-97760107D01*
X107449012Y-97761705D01*
X107448811Y-97763320D01*
X107448690Y-97764949D01*
X107448650Y-97766589D01*
X107448650Y-98097318D01*
X107316358Y-98097318D01*
X107316358Y-97766589D01*
X107316317Y-97764949D01*
X107316196Y-97763320D01*
X107315995Y-97761705D01*
X107315717Y-97760107D01*
X107315360Y-97758527D01*
X107314928Y-97756970D01*
X107314421Y-97755438D01*
X107313840Y-97753932D01*
X107313187Y-97752457D01*
X107312462Y-97751015D01*
X107311666Y-97749608D01*
X107310801Y-97748240D01*
X107309868Y-97746913D01*
X107308868Y-97745629D01*
X107307802Y-97744391D01*
X107306671Y-97743203D01*
X107305483Y-97742072D01*
X107304245Y-97741006D01*
X107302961Y-97740006D01*
X107301634Y-97739073D01*
X107300265Y-97738208D01*
X107298859Y-97737412D01*
X107297416Y-97736687D01*
X107295941Y-97736034D01*
X107294436Y-97735453D01*
X107292904Y-97734946D01*
X107291347Y-97734513D01*
X107289767Y-97734157D01*
X107288169Y-97733878D01*
X107286554Y-97733678D01*
X107284925Y-97733557D01*
X107283285Y-97733516D01*
X107217139Y-97733516D01*
X107215499Y-97733557D01*
X107213870Y-97733678D01*
X107212255Y-97733878D01*
X107210657Y-97734157D01*
X107209078Y-97734513D01*
X107207520Y-97734946D01*
X107205988Y-97735453D01*
X107204483Y-97736034D01*
X107203008Y-97736687D01*
X107201565Y-97737412D01*
X107200159Y-97738208D01*
X107198790Y-97739073D01*
X107197463Y-97740006D01*
X107196179Y-97741006D01*
X107194941Y-97742072D01*
X107193753Y-97743203D01*
X107192622Y-97744391D01*
X107191556Y-97745629D01*
X107190556Y-97746913D01*
X107189623Y-97748240D01*
X107188758Y-97749608D01*
X107187962Y-97751015D01*
X107187237Y-97752457D01*
X107186584Y-97753932D01*
X107186003Y-97755438D01*
X107185496Y-97756970D01*
X107185064Y-97758527D01*
X107184708Y-97760107D01*
X107184429Y-97761705D01*
X107184228Y-97763320D01*
X107184107Y-97764949D01*
X107184066Y-97766589D01*
X107184066Y-98097318D01*
X107051775Y-98097318D01*
X107051775Y-97766589D01*
X107051734Y-97764949D01*
X107051613Y-97763320D01*
X107051412Y-97761705D01*
X107051133Y-97760107D01*
X107050777Y-97758527D01*
X107050345Y-97756970D01*
X107049838Y-97755438D01*
X107049257Y-97753932D01*
X107048604Y-97752457D01*
X107047878Y-97751015D01*
X107047083Y-97749608D01*
X107046218Y-97748240D01*
X107045285Y-97746913D01*
X107044285Y-97745629D01*
X107043219Y-97744391D01*
X107042088Y-97743203D01*
X107040899Y-97742072D01*
X107039662Y-97741006D01*
X107038378Y-97740006D01*
X107037051Y-97739073D01*
X107035682Y-97738208D01*
X107034275Y-97737412D01*
X107032833Y-97736687D01*
X107031358Y-97736034D01*
X107029853Y-97735453D01*
X107028320Y-97734946D01*
X107026763Y-97734513D01*
X107025184Y-97734157D01*
X107023586Y-97733878D01*
X107021971Y-97733678D01*
X107020342Y-97733557D01*
X107018702Y-97733516D01*
X106952556Y-97733516D01*
X106950916Y-97733557D01*
X106949287Y-97733678D01*
X106947672Y-97733878D01*
X106946074Y-97734157D01*
X106944494Y-97734513D01*
X106942937Y-97734946D01*
X106941405Y-97735453D01*
X106939899Y-97736034D01*
X106938424Y-97736687D01*
X106936982Y-97737412D01*
X106935575Y-97738208D01*
X106934207Y-97739073D01*
X106932879Y-97740006D01*
X106931596Y-97741006D01*
X106930358Y-97742072D01*
X106929170Y-97743203D01*
X106928039Y-97744391D01*
X106926973Y-97745629D01*
X106925973Y-97746913D01*
X106925040Y-97748240D01*
X106924175Y-97749608D01*
X106923379Y-97751015D01*
X106922654Y-97752457D01*
X106922000Y-97753932D01*
X106921420Y-97755438D01*
X106920912Y-97756970D01*
X106920480Y-97758527D01*
X106920124Y-97760107D01*
X106919845Y-97761705D01*
X106919645Y-97763320D01*
X106919524Y-97764949D01*
X106919483Y-97766589D01*
X106919483Y-98097318D01*
X106787191Y-98097318D01*
X106787191Y-97766589D01*
X106787151Y-97764949D01*
X106787029Y-97763320D01*
X106786829Y-97761705D01*
X106786550Y-97760107D01*
X106786194Y-97758527D01*
X106785762Y-97756970D01*
X106785255Y-97755438D01*
X106784674Y-97753932D01*
X106784020Y-97752457D01*
X106783295Y-97751015D01*
X106782500Y-97749608D01*
X106781635Y-97748240D01*
X106780702Y-97746913D01*
X106779701Y-97745629D01*
X106778635Y-97744391D01*
X106777504Y-97743203D01*
X106776316Y-97742072D01*
X106775079Y-97741006D01*
X106773795Y-97740006D01*
X106772467Y-97739073D01*
X106771099Y-97738208D01*
X106769692Y-97737412D01*
X106768250Y-97736687D01*
X106766775Y-97736034D01*
X106765270Y-97735453D01*
X106763737Y-97734946D01*
X106762180Y-97734513D01*
X106760601Y-97734157D01*
X106759002Y-97733878D01*
X106757387Y-97733678D01*
X106755758Y-97733557D01*
X106754118Y-97733516D01*
X106687972Y-97733516D01*
X106686332Y-97733557D01*
X106684704Y-97733678D01*
X106683089Y-97733878D01*
X106681490Y-97734157D01*
X106679911Y-97734513D01*
X106678354Y-97734946D01*
X106676821Y-97735453D01*
X106675316Y-97736034D01*
X106673841Y-97736687D01*
X106672399Y-97737412D01*
X106670992Y-97738208D01*
X106669624Y-97739073D01*
X106668296Y-97740006D01*
X106667012Y-97741006D01*
X106665775Y-97742072D01*
X106664586Y-97743203D01*
X106663456Y-97744391D01*
X106662389Y-97745629D01*
X106661389Y-97746913D01*
X106660456Y-97748240D01*
X106659591Y-97749608D01*
X106658796Y-97751015D01*
X106658071Y-97752457D01*
X106657417Y-97753932D01*
X106656836Y-97755438D01*
X106656329Y-97756970D01*
X106655897Y-97758527D01*
X106655541Y-97760107D01*
X106655262Y-97761705D01*
X106655061Y-97763320D01*
X106654940Y-97764949D01*
X106654900Y-97766589D01*
X106654900Y-98097318D01*
X106522608Y-98097318D01*
X106522608Y-97766589D01*
X106522567Y-97764949D01*
X106522446Y-97763320D01*
X106522246Y-97761705D01*
X106521967Y-97760107D01*
X106521611Y-97758527D01*
X106521178Y-97756970D01*
X106520671Y-97755438D01*
X106520090Y-97753932D01*
X106519437Y-97752457D01*
X106518712Y-97751015D01*
X106517916Y-97749608D01*
X106517051Y-97748240D01*
X106516118Y-97746913D01*
X106515118Y-97745629D01*
X106514052Y-97744391D01*
X106512921Y-97743203D01*
X106511733Y-97742072D01*
X106510495Y-97741006D01*
X106509211Y-97740006D01*
X106507884Y-97739073D01*
X106506515Y-97738208D01*
X106505109Y-97737412D01*
X106503667Y-97736687D01*
X106502191Y-97736034D01*
X106500686Y-97735453D01*
X106499154Y-97734946D01*
X106497597Y-97734513D01*
X106496017Y-97734157D01*
X106494419Y-97733878D01*
X106492804Y-97733678D01*
X106491175Y-97733557D01*
X106489535Y-97733516D01*
X106423389Y-97733516D01*
X106421749Y-97733557D01*
X106420120Y-97733678D01*
X106418505Y-97733878D01*
X106416907Y-97734157D01*
X106415328Y-97734513D01*
X106413770Y-97734946D01*
X106412238Y-97735453D01*
X106410733Y-97736034D01*
X106409258Y-97736687D01*
X106407816Y-97737412D01*
X106406409Y-97738208D01*
X106405040Y-97739073D01*
X106403713Y-97740006D01*
X106402429Y-97741006D01*
X106401192Y-97742072D01*
X106400003Y-97743203D01*
X106398872Y-97744391D01*
X106397806Y-97745629D01*
X106396806Y-97746913D01*
X106395873Y-97748240D01*
X106395008Y-97749608D01*
X106394212Y-97751015D01*
X106393487Y-97752457D01*
X106392834Y-97753932D01*
X106392253Y-97755438D01*
X106391746Y-97756970D01*
X106391314Y-97758527D01*
X106390958Y-97760107D01*
X106390679Y-97761705D01*
X106390478Y-97763320D01*
X106390357Y-97764949D01*
X106390316Y-97766589D01*
X106390316Y-98097318D01*
X106059587Y-98097318D01*
X106059587Y-97766589D01*
X106059587Y-97667370D01*
X106059831Y-97657530D01*
X106060558Y-97647757D01*
X106061762Y-97638067D01*
X106063435Y-97628476D01*
X106065572Y-97619001D01*
X106068165Y-97609658D01*
X106071207Y-97600462D01*
X106074692Y-97591431D01*
X106078614Y-97582581D01*
X106082964Y-97573928D01*
X106087738Y-97565488D01*
X106092927Y-97557277D01*
X106098525Y-97549312D01*
X106104526Y-97541609D01*
X106110923Y-97534184D01*
X106117708Y-97527054D01*
X106124838Y-97520268D01*
X106132263Y-97513872D01*
X106139966Y-97507871D01*
X106147931Y-97502272D01*
X106156142Y-97497083D01*
X106164582Y-97492310D01*
X106173236Y-97487959D01*
X106182086Y-97484038D01*
X106191117Y-97480553D01*
X106200312Y-97477510D01*
X106209655Y-97474917D01*
X106219131Y-97472781D01*
X106228721Y-97471107D01*
X106238412Y-97469904D01*
X106248185Y-97469177D01*
X106258025Y-97468933D01*
X107911670Y-97468933D01*
X107921510Y-97469177D01*
G37*
D13*
G36*
X142482211Y-98018620D02*
G01*
X142558092Y-98031918D01*
X142624190Y-98054654D01*
X142689873Y-98091877D01*
X142745732Y-98142647D01*
X142761943Y-98163464D01*
X142797957Y-98227869D01*
X142820086Y-98300547D01*
X142823859Y-98322833D01*
X142828831Y-98398236D01*
X142823223Y-98471704D01*
X142815432Y-98516273D01*
X142795362Y-98593868D01*
X142768489Y-98664767D01*
X142729448Y-98737593D01*
X142681523Y-98801672D01*
X142668154Y-98816325D01*
X142609604Y-98869196D01*
X142542766Y-98912771D01*
X142467638Y-98947049D01*
X142395102Y-98969416D01*
X142384221Y-98972030D01*
X142734832Y-99626723D01*
X142233646Y-99626723D01*
X141958140Y-99012330D01*
X141830279Y-99626723D01*
X141437903Y-99626723D01*
X141621666Y-98743053D01*
X142014193Y-98743053D01*
X142094427Y-98743053D01*
X142168859Y-98738079D01*
X142245521Y-98718983D01*
X142298859Y-98692128D01*
X142355990Y-98639084D01*
X142390822Y-98569070D01*
X142396678Y-98545949D01*
X142399333Y-98471086D01*
X142363149Y-98402995D01*
X142359675Y-98399769D01*
X142291325Y-98363217D01*
X142214389Y-98350088D01*
X142176493Y-98348845D01*
X142096259Y-98348845D01*
X142014193Y-98743053D01*
X141621666Y-98743053D01*
X141773126Y-98014720D01*
X142404738Y-98014720D01*
X142482211Y-98018620D01*
G37*
G36*
X144070596Y-98372292D02*
G01*
X143580034Y-98372292D01*
X143526545Y-98630212D01*
X143994392Y-98630212D01*
X143921120Y-98981922D01*
X143453272Y-98981922D01*
X143395020Y-99263290D01*
X143885582Y-99263290D01*
X143812309Y-99615000D01*
X142929371Y-99615000D01*
X143260931Y-98020582D01*
X144143869Y-98020582D01*
X144070596Y-98372292D01*
G37*
G36*
X145126962Y-98024704D02*
G01*
X145199548Y-98037069D01*
X145276280Y-98060832D01*
X145332355Y-98086528D01*
X145398944Y-98126836D01*
X145458579Y-98173983D01*
X145511258Y-98227969D01*
X145537519Y-98260917D01*
X145578976Y-98324815D01*
X145612261Y-98394508D01*
X145637374Y-98469998D01*
X145647794Y-98514441D01*
X145658556Y-98587806D01*
X145661533Y-98662819D01*
X145656724Y-98739480D01*
X145644131Y-98817791D01*
X145624484Y-98895300D01*
X145597786Y-98971389D01*
X145564034Y-99046059D01*
X145523230Y-99119309D01*
X145482636Y-99180956D01*
X145431820Y-99247330D01*
X145376287Y-99309355D01*
X145316038Y-99367028D01*
X145308175Y-99373932D01*
X145243397Y-99426116D01*
X145175459Y-99472759D01*
X145104362Y-99513860D01*
X145030104Y-99549420D01*
X144953763Y-99578111D01*
X144876414Y-99598605D01*
X144798058Y-99610901D01*
X144718695Y-99615000D01*
X144125184Y-99615000D01*
X144198322Y-99263290D01*
X144590833Y-99263290D01*
X144685722Y-99263290D01*
X144764187Y-99258550D01*
X144838015Y-99244330D01*
X144884658Y-99229584D01*
X144955271Y-99198027D01*
X145018870Y-99158125D01*
X145045858Y-99136894D01*
X145099201Y-99085044D01*
X145144926Y-99025937D01*
X145163461Y-98996210D01*
X145197623Y-98927527D01*
X145222716Y-98853644D01*
X145231238Y-98817791D01*
X145241689Y-98742750D01*
X145240367Y-98666535D01*
X145236734Y-98640471D01*
X145216415Y-98568343D01*
X145179481Y-98502763D01*
X145176650Y-98499054D01*
X145122978Y-98446389D01*
X145058352Y-98408495D01*
X145053551Y-98406364D01*
X144980512Y-98383072D01*
X144903020Y-98373124D01*
X144870736Y-98372292D01*
X144775847Y-98372292D01*
X144590833Y-99263290D01*
X144198322Y-99263290D01*
X144456744Y-98020582D01*
X145050254Y-98020582D01*
X145126962Y-98024704D01*
G37*
G36*
X146499225Y-98020582D02*
G01*
X146320073Y-98881538D01*
X146306236Y-98956039D01*
X146296259Y-99023321D01*
X146293078Y-99100344D01*
X146301022Y-99154480D01*
X146335080Y-99222272D01*
X146365136Y-99250101D01*
X146433974Y-99278687D01*
X146507545Y-99286594D01*
X146520474Y-99286737D01*
X146598896Y-99280691D01*
X146672704Y-99258687D01*
X146689368Y-99250101D01*
X146750665Y-99204867D01*
X146793415Y-99154480D01*
X146830365Y-99088086D01*
X146853866Y-99023321D01*
X146872825Y-98951605D01*
X146888670Y-98881538D01*
X147067822Y-98020582D01*
X147460198Y-98020582D01*
X147267857Y-98946018D01*
X147246505Y-99036110D01*
X147221283Y-99119904D01*
X147192191Y-99197401D01*
X147159230Y-99268602D01*
X147122399Y-99333506D01*
X147070918Y-99405780D01*
X147013391Y-99468216D01*
X146988688Y-99490436D01*
X146922239Y-99539830D01*
X146848832Y-99580853D01*
X146768467Y-99613504D01*
X146681142Y-99637783D01*
X146606272Y-99651178D01*
X146526948Y-99659215D01*
X146443171Y-99661894D01*
X146360407Y-99659215D01*
X146284306Y-99651178D01*
X146198551Y-99633597D01*
X146123206Y-99607644D01*
X146058273Y-99573318D01*
X145994097Y-99521077D01*
X145967630Y-99490436D01*
X145925912Y-99419055D01*
X145902343Y-99348748D01*
X145888954Y-99268602D01*
X145885743Y-99178617D01*
X145890502Y-99099546D01*
X145901777Y-99014177D01*
X145914508Y-98946018D01*
X146106849Y-98020582D01*
X146499225Y-98020582D01*
G37*
G36*
X148109030Y-98765034D02*
G01*
X147781133Y-98020582D01*
X148278290Y-98020582D01*
X148402121Y-98433108D01*
X148746870Y-98020582D01*
X149243660Y-98020582D01*
X148577243Y-98765034D01*
X148978046Y-99615000D01*
X148487117Y-99615000D01*
X148284884Y-99094762D01*
X147813007Y-99615000D01*
X147326475Y-99615000D01*
X148109030Y-98765034D01*
G37*
D14*
G36*
X125657269Y-76350141D02*
G01*
X125785451Y-76375519D01*
X125900275Y-76416327D01*
X126007445Y-76473716D01*
X126098291Y-76542812D01*
X126174575Y-76623949D01*
X126236696Y-76716453D01*
X126284203Y-76819542D01*
X126317121Y-76934794D01*
X126332902Y-77053843D01*
X126331452Y-77181442D01*
X126311458Y-77319263D01*
X126275209Y-77453902D01*
X126223918Y-77581769D01*
X126157264Y-77703731D01*
X126077434Y-77817677D01*
X125986972Y-77921088D01*
X125885422Y-78014576D01*
X125774390Y-78096406D01*
X125654484Y-78165566D01*
X125524889Y-78222305D01*
X125389831Y-78263851D01*
X125250857Y-78288816D01*
X125106974Y-78297211D01*
X124961525Y-78288345D01*
X124832910Y-78262954D01*
X124718765Y-78222305D01*
X124612485Y-78164869D01*
X124522490Y-78095744D01*
X124447030Y-78014576D01*
X124385651Y-77922088D01*
X124338559Y-77818994D01*
X124305766Y-77703731D01*
X124290032Y-77584683D01*
X124291483Y-77457082D01*
X124295682Y-77428067D01*
X124787702Y-77428067D01*
X124798053Y-77523999D01*
X124828464Y-77612298D01*
X124874989Y-77686741D01*
X124937349Y-77747756D01*
X125015185Y-77794025D01*
X125103476Y-77822380D01*
X125203679Y-77832173D01*
X125306021Y-77822725D01*
X125407881Y-77794025D01*
X125504503Y-77748202D01*
X125593918Y-77686741D01*
X125672924Y-77611623D01*
X125739670Y-77523999D01*
X125790634Y-77426170D01*
X125823125Y-77319263D01*
X125835078Y-77210472D01*
X125824727Y-77114633D01*
X125794187Y-77026355D01*
X125746722Y-76951891D01*
X125683383Y-76890765D01*
X125605245Y-76844607D01*
X125517053Y-76816171D01*
X125416964Y-76806353D01*
X125314533Y-76815828D01*
X125212655Y-76844607D01*
X125116244Y-76890424D01*
X125027794Y-76951891D01*
X124949818Y-77026848D01*
X124883217Y-77114633D01*
X124832174Y-77212379D01*
X124799655Y-77319263D01*
X124787702Y-77428067D01*
X124295682Y-77428067D01*
X124311429Y-77319263D01*
X124347727Y-77184616D01*
X124399020Y-77056747D01*
X124465623Y-76934794D01*
X124545377Y-76820700D01*
X124635389Y-76717294D01*
X124736076Y-76623949D01*
X124846346Y-76542118D01*
X124965468Y-76472998D01*
X125094258Y-76416327D01*
X125228580Y-76374811D01*
X125367995Y-76349767D01*
X125513562Y-76341314D01*
X125657269Y-76350141D01*
G37*
G36*
X127678009Y-76401611D02*
G01*
X127761740Y-76417205D01*
X127831808Y-76441438D01*
X127896881Y-76476428D01*
X127949526Y-76517678D01*
X127991345Y-76565285D01*
X128037390Y-76649036D01*
X128063579Y-76746727D01*
X128069238Y-76851441D01*
X128054710Y-76967385D01*
X128014752Y-77102931D01*
X127957695Y-77215818D01*
X127884061Y-77309539D01*
X127793003Y-77386253D01*
X127683902Y-77445545D01*
X127553555Y-77487241D01*
X127963776Y-78245920D01*
X127379058Y-78245920D01*
X127080716Y-77533830D01*
X126932613Y-78245920D01*
X126464369Y-78245920D01*
X126677286Y-77222023D01*
X127145471Y-77222023D01*
X127233734Y-77222023D01*
X127324278Y-77214789D01*
X127398042Y-77194673D01*
X127458239Y-77163146D01*
X127508428Y-77118484D01*
X127544649Y-77062759D01*
X127567553Y-76993672D01*
X127573204Y-76921970D01*
X127559594Y-76867225D01*
X127528764Y-76824304D01*
X127483692Y-76793676D01*
X127419222Y-76773129D01*
X127328729Y-76765320D01*
X127240466Y-76765320D01*
X127145471Y-77222023D01*
X126677286Y-77222023D01*
X126849051Y-76396025D01*
X127578132Y-76396025D01*
X127678009Y-76401611D01*
G37*
G36*
X129055740Y-76389186D02*
G01*
X128670416Y-78242501D01*
X128202172Y-78242501D01*
X128587496Y-76389186D01*
X129055740Y-76389186D01*
G37*
G36*
X130166617Y-77209842D02*
G01*
X131096480Y-77209842D01*
X131063526Y-77353483D01*
X131028947Y-77477410D01*
X130986482Y-77594207D01*
X130934486Y-77700739D01*
X130846104Y-77838156D01*
X130744496Y-77957301D01*
X130629019Y-78060094D01*
X130503214Y-78143765D01*
X130367702Y-78209660D01*
X130224320Y-78257888D01*
X130075829Y-78287361D01*
X129923840Y-78297211D01*
X129784787Y-78288752D01*
X129662328Y-78264572D01*
X129554117Y-78225938D01*
X129453591Y-78171141D01*
X129368552Y-78104541D01*
X129297342Y-78025689D01*
X129240457Y-77935722D01*
X129197095Y-77833191D01*
X129167618Y-77716127D01*
X129155065Y-77595594D01*
X129159005Y-77463140D01*
X129181189Y-77316805D01*
X129218356Y-77175270D01*
X129268637Y-77043302D01*
X129331963Y-76919941D01*
X129408477Y-76804400D01*
X129494438Y-76701955D01*
X129590128Y-76611660D01*
X129695713Y-76533015D01*
X129810265Y-76466736D01*
X129934632Y-76412587D01*
X130064408Y-76373280D01*
X130200849Y-76349415D01*
X130345067Y-76341314D01*
X130486714Y-76349930D01*
X130610616Y-76374487D01*
X130719305Y-76413598D01*
X130814914Y-76466657D01*
X130899035Y-76535654D01*
X130969770Y-76621598D01*
X131027679Y-76726821D01*
X131072224Y-76854652D01*
X130588272Y-77044642D01*
X130559286Y-76946719D01*
X130519906Y-76875480D01*
X130471264Y-76825159D01*
X130410751Y-76788793D01*
X130340334Y-76766353D01*
X130257552Y-76758481D01*
X130153973Y-76768693D01*
X130056448Y-76799086D01*
X129966280Y-76847959D01*
X129884303Y-76914705D01*
X129813198Y-76996178D01*
X129750305Y-77095506D01*
X129701427Y-77205863D01*
X129666316Y-77331658D01*
X129650069Y-77447755D01*
X129650929Y-77550499D01*
X129669581Y-77646342D01*
X129704998Y-77725209D01*
X129758542Y-77790350D01*
X129830554Y-77839546D01*
X129917090Y-77869205D01*
X130029307Y-77880044D01*
X130098676Y-77876121D01*
X130167365Y-77864336D01*
X130233581Y-77843599D01*
X130294845Y-77813259D01*
X130350209Y-77773086D01*
X130399243Y-77722111D01*
X130439631Y-77661507D01*
X130473295Y-77585976D01*
X130088398Y-77585976D01*
X130166617Y-77209842D01*
G37*
G36*
X132078489Y-76389186D02*
G01*
X131693166Y-78242501D01*
X131224922Y-78242501D01*
X131610245Y-76389186D01*
X132078489Y-76389186D01*
G37*
G36*
X132091739Y-78242501D02*
G01*
X132477063Y-76389186D01*
X132945307Y-76389186D01*
X133579285Y-77522289D01*
X133814903Y-76389186D01*
X134283147Y-76389186D01*
X133897824Y-78242501D01*
X133429580Y-78242501D01*
X132795601Y-77109397D01*
X132559983Y-78242501D01*
X132091739Y-78242501D01*
G37*
G36*
X136045848Y-78242501D02*
G01*
X135545013Y-78242501D01*
X135503980Y-77921077D01*
X134832923Y-77921077D01*
X134658320Y-78242501D01*
X134157484Y-78242501D01*
X134557903Y-77551782D01*
X135034347Y-77551782D01*
X135456215Y-77551782D01*
X135372867Y-76937999D01*
X135034347Y-77551782D01*
X134557903Y-77551782D01*
X135229894Y-76392605D01*
X135742590Y-76392605D01*
X136045848Y-78242501D01*
G37*
G36*
X137145292Y-76392605D02*
G01*
X136845987Y-77832173D01*
X137411257Y-77832173D01*
X137325986Y-78242501D01*
X136292472Y-78242501D01*
X136677048Y-76392605D01*
X137145292Y-76392605D01*
G37*
G36*
X139640779Y-76401611D02*
G01*
X139724510Y-76417205D01*
X139794579Y-76441438D01*
X139859651Y-76476428D01*
X139912296Y-76517678D01*
X139954115Y-76565285D01*
X140000161Y-76649036D01*
X140026350Y-76746727D01*
X140032009Y-76851441D01*
X140017481Y-76967385D01*
X139977522Y-77102931D01*
X139920465Y-77215818D01*
X139846831Y-77309539D01*
X139755773Y-77386253D01*
X139646672Y-77445545D01*
X139516325Y-77487241D01*
X139926546Y-78245920D01*
X139341829Y-78245920D01*
X139043486Y-77533830D01*
X138895383Y-78245920D01*
X138427139Y-78245920D01*
X138640057Y-77222023D01*
X139108241Y-77222023D01*
X139196504Y-77222023D01*
X139287048Y-77214789D01*
X139360812Y-77194673D01*
X139421009Y-77163146D01*
X139471199Y-77118484D01*
X139507420Y-77062759D01*
X139530323Y-76993672D01*
X139535974Y-76921970D01*
X139522364Y-76867225D01*
X139491534Y-76824304D01*
X139446462Y-76793676D01*
X139381992Y-76773129D01*
X139291499Y-76765320D01*
X139203236Y-76765320D01*
X139108241Y-77222023D01*
X138640057Y-77222023D01*
X138811822Y-76396025D01*
X139540902Y-76396025D01*
X139640779Y-76401611D01*
G37*
G36*
X141491670Y-76799514D02*
G01*
X140933132Y-76799514D01*
X140869232Y-77107260D01*
X141397636Y-77107260D01*
X141312258Y-77517588D01*
X140783854Y-77517588D01*
X140718458Y-77832173D01*
X141276995Y-77832173D01*
X141191724Y-78242501D01*
X140164942Y-78242501D01*
X140550266Y-76389186D01*
X141577048Y-76389186D01*
X141491670Y-76799514D01*
G37*
G36*
X143117167Y-77010982D02*
G01*
X143062923Y-76935996D01*
X143000939Y-76879632D01*
X142930437Y-76839579D01*
X142849717Y-76814947D01*
X142756313Y-76806353D01*
X142652519Y-76816207D01*
X142552432Y-76845783D01*
X142458956Y-76892417D01*
X142375371Y-76953066D01*
X142302464Y-77026880D01*
X142239770Y-77114633D01*
X142191640Y-77211822D01*
X142160483Y-77316805D01*
X142147554Y-77425624D01*
X142155140Y-77521435D01*
X142181858Y-77610010D01*
X142224597Y-77684283D01*
X142283125Y-77745648D01*
X142356778Y-77792743D01*
X142441424Y-77821966D01*
X142540677Y-77832173D01*
X142648257Y-77820912D01*
X142757287Y-77786294D01*
X142869787Y-77725713D01*
X142987443Y-77634916D01*
X142869047Y-78204246D01*
X142817756Y-78221343D01*
X142703495Y-78256128D01*
X142604577Y-78278832D01*
X142508012Y-78292709D01*
X142416404Y-78297211D01*
X142293586Y-78288918D01*
X142179802Y-78264638D01*
X142073609Y-78224762D01*
X141974784Y-78169427D01*
X141888774Y-78101637D01*
X141814375Y-78020774D01*
X141753312Y-77929124D01*
X141705060Y-77825666D01*
X141669799Y-77708754D01*
X141651930Y-77587938D01*
X141652403Y-77457129D01*
X141672791Y-77314347D01*
X141710513Y-77174950D01*
X141763533Y-77044653D01*
X141832007Y-76922398D01*
X141913938Y-76808294D01*
X142004529Y-76706175D01*
X142104063Y-76615294D01*
X142212591Y-76535381D01*
X142327304Y-76468385D01*
X142448781Y-76413870D01*
X142575378Y-76373203D01*
X142700629Y-76349236D01*
X142825449Y-76341314D01*
X142931749Y-76347214D01*
X143032537Y-76364609D01*
X143131631Y-76393674D01*
X143236525Y-76436737D01*
X143117167Y-77010982D01*
G37*
G36*
X144046389Y-76389186D02*
G01*
X143661065Y-78242501D01*
X143192821Y-78242501D01*
X143578145Y-76389186D01*
X144046389Y-76389186D01*
G37*
G36*
X145342810Y-76401248D02*
G01*
X145460928Y-76434059D01*
X145551959Y-76484310D01*
X145621236Y-76551287D01*
X145670645Y-76634498D01*
X145699809Y-76735009D01*
X145706933Y-76857574D01*
X145687594Y-77008097D01*
X145646678Y-77152359D01*
X145590041Y-77274645D01*
X145518385Y-77378063D01*
X145431353Y-77464908D01*
X145330081Y-77534196D01*
X145215048Y-77584598D01*
X145083764Y-77616010D01*
X144933082Y-77627009D01*
X144655897Y-77627009D01*
X144528631Y-78239081D01*
X144060387Y-78239081D01*
X144268270Y-77239120D01*
X144736466Y-77239120D01*
X144892263Y-77239120D01*
X144992870Y-77228668D01*
X145069474Y-77200097D01*
X145127721Y-77155257D01*
X145170872Y-77092732D01*
X145199261Y-77008097D01*
X145205850Y-76920949D01*
X145188496Y-76860160D01*
X145150652Y-76817068D01*
X145087692Y-76788335D01*
X144988327Y-76777074D01*
X144832530Y-76777074D01*
X144736466Y-77239120D01*
X144268270Y-77239120D01*
X144444963Y-76389186D01*
X145190392Y-76389186D01*
X145342810Y-76401248D01*
G37*
G36*
X147046485Y-76799514D02*
G01*
X146487947Y-76799514D01*
X146424047Y-77107260D01*
X146952451Y-77107260D01*
X146867073Y-77517588D01*
X146338669Y-77517588D01*
X146273273Y-77832173D01*
X146831810Y-77832173D01*
X146746539Y-78242501D01*
X145719758Y-78242501D01*
X146105081Y-76389186D01*
X147131863Y-76389186D01*
X147046485Y-76799514D01*
G37*
D12*
%TO.C,G\u002A\u002A\u002A*%
G36*
X131132729Y-94467239D02*
G01*
X131250519Y-94507774D01*
X131354218Y-94567886D01*
X131380230Y-94588891D01*
X131469474Y-94691107D01*
X131535182Y-94816239D01*
X131575717Y-94957312D01*
X131589440Y-95107349D01*
X131574711Y-95259377D01*
X131555674Y-95335563D01*
X131491092Y-95494691D01*
X131392714Y-95660069D01*
X131260128Y-95832161D01*
X131092924Y-96011431D01*
X130890693Y-96198344D01*
X130653024Y-96393363D01*
X130552431Y-96470370D01*
X130470447Y-96532838D01*
X130413895Y-96578954D01*
X130378107Y-96613981D01*
X130358416Y-96643177D01*
X130350157Y-96671803D01*
X130348638Y-96700080D01*
X130366636Y-96779952D01*
X130418933Y-96852677D01*
X130502983Y-96915044D01*
X130530232Y-96929415D01*
X130579058Y-96952056D01*
X130621812Y-96966819D01*
X130668422Y-96975250D01*
X130728819Y-96978891D01*
X130812931Y-96979287D01*
X130848857Y-96978955D01*
X130960667Y-96975790D01*
X131050362Y-96967700D01*
X131132772Y-96952651D01*
X131222721Y-96928609D01*
X131228653Y-96926844D01*
X131409030Y-96866359D01*
X131581181Y-96794088D01*
X131749748Y-96707091D01*
X131919372Y-96602424D01*
X132094697Y-96477148D01*
X132280364Y-96328320D01*
X132481014Y-96152998D01*
X132551750Y-96088420D01*
X132643874Y-96002842D01*
X132712876Y-95936088D01*
X132763273Y-95882303D01*
X132774507Y-95867864D01*
X133386912Y-95867864D01*
X133399356Y-95903625D01*
X133428192Y-95918799D01*
X133466651Y-95912730D01*
X133518119Y-95883494D01*
X133585983Y-95829170D01*
X133673241Y-95748214D01*
X133784399Y-95630265D01*
X133874121Y-95513558D01*
X133940688Y-95401757D01*
X133982379Y-95298524D01*
X133997475Y-95207523D01*
X133984255Y-95132417D01*
X133972617Y-95110557D01*
X133929607Y-95072075D01*
X133874675Y-95066448D01*
X133810153Y-95092329D01*
X133738370Y-95148370D01*
X133661658Y-95233223D01*
X133591924Y-95330658D01*
X133534720Y-95427159D01*
X133483932Y-95529197D01*
X133441659Y-95630530D01*
X133410000Y-95724913D01*
X133391051Y-95806105D01*
X133386912Y-95867864D01*
X132774507Y-95867864D01*
X132799583Y-95835632D01*
X132826325Y-95790223D01*
X132848016Y-95740221D01*
X132869174Y-95679771D01*
X132870708Y-95675130D01*
X132955244Y-95455861D01*
X133059472Y-95246964D01*
X133179684Y-95053830D01*
X133312171Y-94881846D01*
X133453224Y-94736402D01*
X133591237Y-94628084D01*
X133749174Y-94538805D01*
X133902723Y-94482517D01*
X134049390Y-94458830D01*
X134186684Y-94467352D01*
X134312115Y-94507694D01*
X134423191Y-94579465D01*
X134517420Y-94682276D01*
X134577004Y-94782499D01*
X134605243Y-94843144D01*
X134623028Y-94893119D01*
X134632747Y-94944624D01*
X134636790Y-95009854D01*
X134637552Y-95091542D01*
X134633010Y-95221430D01*
X134618833Y-95322493D01*
X134604780Y-95373992D01*
X134539322Y-95521597D01*
X134439433Y-95679392D01*
X134306010Y-95846387D01*
X134139946Y-96021589D01*
X133942138Y-96204009D01*
X133713481Y-96392653D01*
X133618587Y-96465842D01*
X133532595Y-96532075D01*
X133472680Y-96581953D01*
X133434693Y-96620554D01*
X133414485Y-96652953D01*
X133407908Y-96684227D01*
X133410812Y-96719454D01*
X133410895Y-96719969D01*
X133434884Y-96798617D01*
X133481955Y-96861016D01*
X133558172Y-96914352D01*
X133587988Y-96929838D01*
X133636515Y-96952306D01*
X133679191Y-96966952D01*
X133725928Y-96975308D01*
X133786635Y-96978905D01*
X133871223Y-96979276D01*
X133905750Y-96978955D01*
X134059041Y-96970639D01*
X134205075Y-96947496D01*
X134353947Y-96907039D01*
X134515747Y-96846782D01*
X134613088Y-96804668D01*
X134774216Y-96724670D01*
X134936785Y-96628243D01*
X135104386Y-96512694D01*
X135280607Y-96375327D01*
X135469038Y-96213450D01*
X135673269Y-96024368D01*
X135745993Y-95954329D01*
X135866493Y-95839500D01*
X135965825Y-95750220D01*
X136047194Y-95684133D01*
X136113808Y-95638880D01*
X136168870Y-95612104D01*
X136215588Y-95601446D01*
X136226398Y-95601024D01*
X136280654Y-95614011D01*
X136309385Y-95650966D01*
X136312467Y-95708883D01*
X136289776Y-95784752D01*
X136241188Y-95875567D01*
X136237925Y-95880682D01*
X136075817Y-96108599D01*
X135883698Y-96337389D01*
X135667977Y-96561106D01*
X135435061Y-96773802D01*
X135191359Y-96969529D01*
X134943281Y-97142338D01*
X134760058Y-97252298D01*
X134559193Y-97356651D01*
X134375457Y-97435430D01*
X134201615Y-97490978D01*
X134030433Y-97525637D01*
X133868196Y-97541132D01*
X133678152Y-97538260D01*
X133496343Y-97511925D01*
X133328727Y-97463947D01*
X133181263Y-97396148D01*
X133059909Y-97310346D01*
X133034497Y-97286445D01*
X132960297Y-97192225D01*
X132892768Y-97066616D01*
X132834365Y-96915041D01*
X132787541Y-96742923D01*
X132786619Y-96738762D01*
X132767212Y-96656897D01*
X132748348Y-96587986D01*
X132732489Y-96540470D01*
X132723895Y-96523793D01*
X132695608Y-96519553D01*
X132650246Y-96537781D01*
X132596020Y-96573860D01*
X132541145Y-96623176D01*
X132534464Y-96630241D01*
X132444091Y-96718693D01*
X132328075Y-96818446D01*
X132193825Y-96924055D01*
X132048751Y-97030074D01*
X131900262Y-97131056D01*
X131755767Y-97221557D01*
X131642979Y-97285452D01*
X131391551Y-97404131D01*
X131149185Y-97487315D01*
X130916098Y-97534983D01*
X130692507Y-97547111D01*
X130478626Y-97523681D01*
X130274673Y-97464670D01*
X130188801Y-97427745D01*
X130055144Y-97349582D01*
X129949964Y-97253158D01*
X129866494Y-97131647D01*
X129836936Y-97072907D01*
X129765176Y-96883706D01*
X129719939Y-96681999D01*
X129700693Y-96463423D01*
X129706905Y-96223615D01*
X129718435Y-96102612D01*
X129726606Y-96009251D01*
X129725599Y-95949609D01*
X129717072Y-95923238D01*
X129696771Y-95913466D01*
X129652291Y-95906733D01*
X129579930Y-95902772D01*
X129475984Y-95901313D01*
X129416454Y-95901408D01*
X129272778Y-95900196D01*
X129157814Y-95894524D01*
X129063423Y-95883803D01*
X128996195Y-95870952D01*
X128888528Y-95847137D01*
X128810321Y-95832750D01*
X128755238Y-95827648D01*
X128716946Y-95831687D01*
X128689107Y-95844725D01*
X128668228Y-95863525D01*
X128636767Y-95907158D01*
X128598623Y-95978312D01*
X128553283Y-96078259D01*
X128500238Y-96208274D01*
X128438977Y-96369629D01*
X128368989Y-96563598D01*
X128289764Y-96791453D01*
X128253971Y-96896503D01*
X128191166Y-97080608D01*
X128137934Y-97232943D01*
X128092507Y-97357013D01*
X128053112Y-97456322D01*
X128017980Y-97534374D01*
X127985340Y-97594672D01*
X127953422Y-97640722D01*
X127920455Y-97676027D01*
X127884669Y-97704092D01*
X127844294Y-97728421D01*
X127829722Y-97736195D01*
X127725309Y-97774178D01*
X127611487Y-97788218D01*
X127502239Y-97777410D01*
X127449746Y-97760788D01*
X127351685Y-97703386D01*
X127256481Y-97613929D01*
X127163725Y-97491662D01*
X127073005Y-97335826D01*
X126983912Y-97145667D01*
X126896035Y-96920428D01*
X126808963Y-96659352D01*
X126756219Y-96482697D01*
X126728251Y-96389802D01*
X126701707Y-96309696D01*
X126679024Y-96249173D01*
X126662638Y-96215027D01*
X126658546Y-96210366D01*
X126638913Y-96203696D01*
X126618783Y-96210145D01*
X126596745Y-96232584D01*
X126571389Y-96273889D01*
X126541304Y-96336933D01*
X126505077Y-96424588D01*
X126461300Y-96539729D01*
X126408560Y-96685229D01*
X126365071Y-96808055D01*
X126272033Y-97060273D01*
X126182539Y-97277199D01*
X126095701Y-97460327D01*
X126010633Y-97611152D01*
X125926447Y-97731169D01*
X125842256Y-97821872D01*
X125757173Y-97884757D01*
X125712946Y-97906684D01*
X125652409Y-97927510D01*
X125600127Y-97931400D01*
X125538146Y-97918765D01*
X125513190Y-97911253D01*
X125468241Y-97888053D01*
X125410354Y-97845907D01*
X125351299Y-97793483D01*
X125345864Y-97788090D01*
X125303913Y-97743738D01*
X125269168Y-97700022D01*
X125237307Y-97649501D01*
X125204006Y-97584732D01*
X125164941Y-97498273D01*
X125130067Y-97416633D01*
X125087124Y-97312849D01*
X125046133Y-97210235D01*
X125010874Y-97118493D01*
X124985125Y-97047330D01*
X124978579Y-97027574D01*
X124892039Y-96725593D01*
X124821067Y-96417486D01*
X124767487Y-96113067D01*
X124733121Y-95822151D01*
X124721995Y-95646121D01*
X124718740Y-95486245D01*
X124723773Y-95358798D01*
X124738728Y-95259759D01*
X124765239Y-95185107D01*
X124804939Y-95130820D01*
X124859463Y-95092876D01*
X124930444Y-95067255D01*
X124959986Y-95060348D01*
X125023805Y-95049302D01*
X125068986Y-95050125D01*
X125112424Y-95064189D01*
X125134519Y-95074523D01*
X125188578Y-95109408D01*
X125232674Y-95158469D01*
X125268066Y-95225589D01*
X125296013Y-95314648D01*
X125317774Y-95429529D01*
X125334607Y-95574112D01*
X125346233Y-95727231D01*
X125357847Y-95863711D01*
X125375828Y-96013861D01*
X125399091Y-96172506D01*
X125426548Y-96334468D01*
X125457111Y-96494570D01*
X125489694Y-96647637D01*
X125523209Y-96788492D01*
X125556569Y-96911958D01*
X125588687Y-97012859D01*
X125618475Y-97086018D01*
X125638681Y-97119626D01*
X125662987Y-97144039D01*
X125686063Y-97152310D01*
X125709779Y-97141621D01*
X125736005Y-97109159D01*
X125766610Y-97052106D01*
X125803464Y-96967648D01*
X125848437Y-96852967D01*
X125890469Y-96740411D01*
X125971457Y-96524210D01*
X126052473Y-96314510D01*
X126132151Y-96114463D01*
X126209121Y-95927222D01*
X126282016Y-95755937D01*
X126349467Y-95603760D01*
X126410107Y-95473843D01*
X126462567Y-95369337D01*
X126505479Y-95293394D01*
X126537475Y-95249166D01*
X126538129Y-95248489D01*
X126620157Y-95172864D01*
X126692964Y-95126481D01*
X126764183Y-95105582D01*
X126829489Y-95105079D01*
X126899866Y-95118079D01*
X126953527Y-95146570D01*
X126986404Y-95175248D01*
X127008381Y-95197231D01*
X127025932Y-95218725D01*
X127040457Y-95244753D01*
X127053359Y-95280331D01*
X127066038Y-95330481D01*
X127079895Y-95400221D01*
X127096332Y-95494571D01*
X127116749Y-95618550D01*
X127125950Y-95675130D01*
X127159300Y-95860234D01*
X127199055Y-96047245D01*
X127243815Y-96231746D01*
X127292181Y-96409317D01*
X127342754Y-96575539D01*
X127394133Y-96725995D01*
X127444919Y-96856266D01*
X127493714Y-96961933D01*
X127539118Y-97038577D01*
X127568704Y-97073111D01*
X127601644Y-97093793D01*
X127633165Y-97092633D01*
X127664697Y-97067291D01*
X127697669Y-97015426D01*
X127733510Y-96934696D01*
X127773650Y-96822759D01*
X127819518Y-96677274D01*
X127828363Y-96647778D01*
X127915183Y-96361422D01*
X127994957Y-96109202D01*
X128068567Y-95889059D01*
X128136895Y-95698936D01*
X128144143Y-95680551D01*
X130452756Y-95680551D01*
X130454387Y-95736345D01*
X130458879Y-95747520D01*
X130481181Y-95776340D01*
X130509798Y-95782676D01*
X130550939Y-95765252D01*
X130610814Y-95722793D01*
X130622022Y-95714007D01*
X130723866Y-95620108D01*
X130813930Y-95511483D01*
X130886387Y-95396866D01*
X130935411Y-95284994D01*
X130951643Y-95219844D01*
X130949805Y-95153582D01*
X130923859Y-95107113D01*
X130878743Y-95086342D01*
X130842334Y-95089198D01*
X130789820Y-95116564D01*
X130730827Y-95170227D01*
X130669139Y-95243689D01*
X130608541Y-95330453D01*
X130552818Y-95424019D01*
X130505757Y-95517890D01*
X130471141Y-95605567D01*
X130452756Y-95680551D01*
X128144143Y-95680551D01*
X128200823Y-95536774D01*
X128261233Y-95400513D01*
X128319008Y-95288096D01*
X128375029Y-95197463D01*
X128430179Y-95126556D01*
X128485339Y-95073316D01*
X128511325Y-95053943D01*
X128601507Y-95013454D01*
X128698947Y-95008349D01*
X128801536Y-95038161D01*
X128907164Y-95102424D01*
X128968605Y-95154935D01*
X129110294Y-95264648D01*
X129267160Y-95340769D01*
X129437616Y-95382750D01*
X129620074Y-95390042D01*
X129644627Y-95388411D01*
X129761412Y-95377069D01*
X129846950Y-95362930D01*
X129907034Y-95344251D01*
X129947453Y-95319290D01*
X129971829Y-95289975D01*
X130108446Y-95079619D01*
X130240341Y-94904107D01*
X130369016Y-94761757D01*
X130495975Y-94650885D01*
X130608011Y-94577724D01*
X130712951Y-94527870D01*
X130825432Y-94487737D01*
X130932587Y-94461269D01*
X131017056Y-94452373D01*
X131132729Y-94467239D01*
G37*
%TD*%
M02*
